<svg width="646" height="427" fill="none" xmlns="http://www.w3.org/2000/svg"><path d="M323 427c178.388 0 323-17.063 323-38.111 0-21.047-144.612-38.11-323-38.11S0 367.842 0 388.889C0 409.937 144.612 427 323 427Z" fill="#786AB5"/><path d="m417.035 294.248-64.507-8.769c-.039 0-.116-.038-.116-.076-.038-.039-.038-.077-.038-.154 0-.116 1.651-12.037-2.342-27.458-2.342-9.038-6.105-17.498-11.212-25.113-6.374-9.537-14.899-17.805-25.266-24.573-17.432-10.499-30.449-23.459-38.705-38.572-8.793-16.075-11.826-34.035-9.1-53.378 2.189-15.498 8.179-31.496 17.318-46.302 8.946-14.537 21.003-27.997 34.788-38.918 14.399-11.422 30.219-19.844 46.96-25.074 17.893-5.576 36.017-7.191 53.872-4.769 41.277 5.615 78.906 27.42 100.678 58.378 7.948 11.344 13.477 23.42 16.434 35.918 3.072 13.075 3.225 26.343.461 39.341-9.753 46.033-29.413 75.298-60.092 89.489-2.573 1.231-16.089 7.999-29.451 19.805-7.565 6.692-13.823 13.845-18.585 21.305-5.874 9.153-9.561 18.805-10.943 28.689.039.154-.038.231-.154.231Zm-64.239-9.115 64.086 8.692c1.421-9.884 5.145-19.536 10.982-28.651 4.799-7.499 11.096-14.69 18.661-21.382 13.401-11.844 26.955-18.613 29.527-19.882 30.526-14.152 50.148-43.302 59.862-89.219 2.765-12.96 2.573-26.151-.461-39.188-2.918-12.46-8.447-24.496-16.395-35.803-21.695-30.88-59.209-52.608-100.41-58.223-17.778-2.423-35.825-.808-53.68 4.769-16.702 5.23-32.484 13.652-46.845 25.035-13.784 10.922-25.764 24.343-34.711 38.803-9.1 14.767-15.052 30.727-17.279 46.148-2.726 19.266.307 37.149 9.062 53.147 8.217 15.036 21.195 27.958 38.551 38.418 10.444 6.807 18.969 15.113 25.381 24.689 5.145 7.653 8.908 16.152 11.25 25.228 3.763 14.421 2.611 25.804 2.419 27.419Z" fill="#66192D"/><path d="M342.122 69.891c-1.92 0-3.763-.5-5.491-1.5-5.721-3.384-7.987-11.229-5.452-19.112 2.534-7.923 9.561-15.46 18.814-20.075 7.104-3.576 14.323-4.653 19.276-2.922 13.247 4.614 20.351 9.306 21.119 13.96.422 2.422-.884 4.806-3.802 7.114-.038.038-.077.038-.077.038-.192.039-19.736 2.885-32.637 16.537-3.763 3.922-7.872 5.96-11.75 5.96Zm21.925-44.071c-4.147 0-9.023 1.27-13.862 3.692-9.177 4.576-16.127 11.998-18.622 19.843-2.458 7.692-.269 15.383 5.298 18.652 5.031 3 11.289 1.346 16.742-4.423 12.671-13.383 31.678-16.459 32.83-16.613 2.764-2.23 3.993-4.46 3.609-6.73-.768-4.5-7.795-9.114-20.888-13.652-1.536-.5-3.264-.769-5.107-.769Z" fill="#66192D" opacity=".4"/><path d="m611.865 173.878 5.337-.154c2.035-.038 3.648-1.769 3.571-3.807l-.154-6.461c-.038-2.038-1.766-3.653-3.801-3.576l-3.763.115c-1.613.039-3.072-1-3.61-2.538-.115-.308-.192-.577-.307-.884a3.654 3.654 0 0 1 1.037-4.038l2.573-2.269c1.536-1.346 1.689-3.692.345-5.192l-4.262-4.884a3.655 3.655 0 0 0-5.184-.346l-2.572 2.269c-1.152 1-2.765 1.231-4.109.5-.269-.154-.537-.269-.844-.423-1.46-.692-2.304-2.308-2.036-3.923l.615-3.73c.307-2-1.037-3.923-3.072-4.23l-6.374-1.039c-1.997-.307-3.917 1.039-4.224 3.038l-.844 5.269a3.685 3.685 0 0 1-2.65 2.961 28.07 28.07 0 0 0-3.417 1.269c-1.498.654-3.226.308-4.301-.923l-2.764-3.153c-1.344-1.538-3.687-1.692-5.184-.346l-4.877 4.268c-1.535 1.346-1.689 3.692-.345 5.192l3.724 4.23a3.675 3.675 0 0 1 .615 3.923c-.154.308-.269.654-.384.961a3.683 3.683 0 0 1-3.302 2.308l-5.99.154c-2.036.038-3.648 1.769-3.571 3.807l.153 6.499c.039 2.038 1.766 3.653 3.802 3.576l5.145-.153c1.574-.039 2.995.923 3.571 2.422v.039a3.654 3.654 0 0 1-1.037 4.038l-3.648 3.192c-1.536 1.346-1.689 3.691-.345 5.191l4.262 4.884c1.344 1.539 3.686 1.692 5.184.346l3.647-3.191a3.733 3.733 0 0 1 4.147-.5s.039 0 .039.038a3.643 3.643 0 0 1 1.92 3.846l-.807 5.114c-.307 2 1.037 3.923 3.072 4.231l6.412 1.038c1.997.308 3.917-1.038 4.224-3.077l.96-5.96c.23-1.462 1.306-2.615 2.726-3 .346-.077.653-.192.999-.269a3.722 3.722 0 0 1 3.801 1.115l3.724 4.269c1.344 1.538 3.687 1.692 5.184.346l4.877-4.269c1.536-1.346 1.689-3.692.345-5.191l-2.764-3.154c-1.076-1.23-1.191-3-.346-4.384.653-1.038 1.19-2.115 1.69-3.23.46-1.269 1.766-2.115 3.187-2.154Zm-17.548 3c-5.645 4.961-17.202 3.538-22.156-2.115-4.953-5.654-2.956-15.229 2.688-20.19 5.645-4.961 15.282-2.308 20.236 3.346 4.915 5.691 4.876 13.998-.768 18.959Z" fill="#FFBA41"/><path d="M584.334 207.028c-.192 0-.423 0-.615-.039l-6.412-1.038a3.608 3.608 0 0 1-2.458-1.538c-.576-.808-.844-1.846-.652-2.846l.806-5.115c.23-1.5-.499-3.038-1.882-3.73l-.038-.038a3.503 3.503 0 0 0-1.651-.424c-.883 0-1.69.308-2.342.885l-3.648 3.192a3.753 3.753 0 0 1-2.496.961c-1.113 0-2.15-.461-2.841-1.307l-4.262-4.884c-.653-.769-.999-1.731-.922-2.769a3.91 3.91 0 0 1 1.306-2.615l3.647-3.192c1.114-.961 1.498-2.538.999-3.923v-.038c-.538-1.423-1.882-2.346-3.341-2.346h-.077l-5.145.154c-2.112.038-3.84-1.577-3.878-3.692l-.154-6.499c-.038-1 .346-2 1.037-2.731a3.862 3.862 0 0 1 2.649-1.192l5.99-.154a3.604 3.604 0 0 0 3.226-2.23c.115-.308.269-.654.384-.961.537-1.269.307-2.731-.615-3.808l-3.724-4.23a3.83 3.83 0 0 1 .345-5.384l4.877-4.268c.691-.616 1.574-.923 2.496-.923 1.113 0 2.15.461 2.841 1.307l2.765 3.153c.691.77 1.651 1.231 2.688 1.231.499 0 1.036-.115 1.497-.308a28.484 28.484 0 0 1 3.418-1.269 3.606 3.606 0 0 0 2.572-2.884l.845-5.268c.307-1.846 1.881-3.192 3.724-3.192.192 0 .423 0 .615.038l6.374 1.038a3.609 3.609 0 0 1 2.457 1.539c.576.807.845 1.846.653 2.846l-.614 3.73c-.269 1.577.537 3.076 1.958 3.769.269.153.537.269.845.423a3.481 3.481 0 0 0 1.612.423c.884 0 1.69-.308 2.381-.885l2.573-2.269c.691-.615 1.574-.923 2.496-.923 1.113 0 2.15.462 2.841 1.308l4.262 4.884c.653.769.998 1.73.922 2.769a3.914 3.914 0 0 1-1.306 2.615l-2.573 2.269a3.545 3.545 0 0 0-.998 3.884c.115.307.23.577.307.884.499 1.462 1.843 2.461 3.379 2.461h.115l3.763-.115c2.112-.077 3.84 1.577 3.917 3.692l.154 6.461c.038 2.076-1.613 3.845-3.687 3.884l-5.337.154c-1.382.038-2.611.884-3.187 2.153a32.337 32.337 0 0 1-1.689 3.231 3.59 3.59 0 0 0 .345 4.268l2.765 3.154a3.83 3.83 0 0 1-.346 5.384l-4.876 4.268c-.691.616-1.574.923-2.496.923-1.114 0-2.15-.461-2.842-1.307l-3.724-4.269c-.691-.769-1.69-1.231-2.688-1.231-.345 0-.653.039-.96.154-.345.077-.653.193-.998.269a3.591 3.591 0 0 0-2.65 2.885l-.96 5.961c-.307 1.884-1.881 3.23-3.762 3.23Zm-12.902-14.96c.614 0 1.229.154 1.766.423l.039.039c1.459.769 2.227 2.346 1.996 3.961l-.806 5.114a3.585 3.585 0 0 0 .614 2.654c.538.769 1.383 1.269 2.343 1.423l6.412 1.038c.192.039.384.039.576.039 1.766 0 3.264-1.269 3.532-3l.96-5.961c.231-1.5 1.344-2.73 2.803-3.076.346-.077.653-.193.999-.269a3.21 3.21 0 0 1 1.037-.154 3.82 3.82 0 0 1 2.879 1.307l3.725 4.269c.691.769 1.651 1.231 2.688 1.231a3.48 3.48 0 0 0 2.342-.885l4.876-4.269c1.498-1.307 1.652-3.576.346-5.037l-2.765-3.154c-1.113-1.269-1.228-3.076-.345-4.538a32.212 32.212 0 0 0 1.689-3.23c.576-1.346 1.92-2.269 3.379-2.308l5.338-.153c1.958-.039 3.532-1.692 3.494-3.692l-.154-6.461c-.038-2-1.689-3.538-3.686-3.5l-3.763.116c-1.689.038-3.187-1-3.686-2.615-.115-.308-.192-.577-.307-.885a3.78 3.78 0 0 1 1.075-4.153l2.573-2.269c.729-.615 1.151-1.5 1.228-2.461a3.46 3.46 0 0 0-.883-2.615l-4.262-4.884c-.691-.769-1.651-1.231-2.688-1.231a3.48 3.48 0 0 0-2.342.885l-2.573 2.269a3.753 3.753 0 0 1-2.496.961c-.614 0-1.19-.154-1.727-.423-.269-.154-.538-.269-.807-.423-1.536-.731-2.342-2.346-2.073-4.038l.614-3.73a3.585 3.585 0 0 0-.614-2.654 3.591 3.591 0 0 0-2.343-1.423l-6.374-1.038a2.937 2.937 0 0 0-.576-.039c-1.766 0-3.225 1.27-3.532 3l-.845 5.269a3.76 3.76 0 0 1-2.726 3.038 36.232 36.232 0 0 0-3.417 1.23c-.5.231-1.037.346-1.575.346-1.113 0-2.15-.461-2.841-1.307l-2.765-3.153c-.691-.77-1.651-1.231-2.688-1.231-.883 0-1.689.308-2.342.884l-4.876 4.269c-1.498 1.308-1.651 3.577-.346 5.038l3.725 4.23c.96 1.115 1.228 2.692.652 4.038-.153.308-.268.654-.384.962a3.769 3.769 0 0 1-3.417 2.384l-5.99.154a3.584 3.584 0 0 0-2.496 1.115c-.653.692-.998 1.615-.998 2.577l.153 6.499a3.551 3.551 0 0 0 3.571 3.499h.116l5.145-.154c1.613-.038 3.11.962 3.648 2.5v.039a3.782 3.782 0 0 1-1.076 4.153l-3.647 3.192c-.73.615-1.152 1.5-1.229 2.461-.077.961.23 1.884.883 2.615l4.262 4.884c.691.769 1.651 1.231 2.688 1.231.883 0 1.69-.308 2.342-.885l3.648-3.192c.499-.5 1.382-.846 2.304-.846ZM198.976 126.153c-2.88 0-5.376-1.961-6.105-4.73l-2.15-8.306a5.987 5.987 0 0 0-5.338-4.423h-.499a5.923 5.923 0 0 0-5.337 3.423l-3.379 7.306a6.304 6.304 0 0 1-5.721 3.654 6.32 6.32 0 0 1-2.65-.577l-9.753-4.538a6.35 6.35 0 0 1-3.264-3.576 6.25 6.25 0 0 1 .231-4.846l3.417-7.307c1.037-2.23.576-4.884-1.113-6.614l-.077-.077a5.986 5.986 0 0 0-4.262-1.808c-.883 0-1.728.193-2.535.577l-7.756 3.654a5.982 5.982 0 0 1-2.688.615c-2.419 0-4.684-1.423-5.721-3.615l-4.608-9.73c-.729-1.538-.806-3.23-.23-4.845a6.416 6.416 0 0 1 3.225-3.577l9.024-4.268c2.15-1 3.456-3.192 3.379-5.538-.039-.577-.039-1.154-.039-1.73a5.903 5.903 0 0 0-3.455-5.346l-8.486-3.961c-3.149-1.461-4.531-5.23-3.034-8.384l4.531-9.73a6.305 6.305 0 0 1 5.722-3.653c.921 0 1.804.193 2.649.577l6.297 2.961c.768.385 1.613.539 2.496.539 1.69 0 3.302-.73 4.454-2 1.344-1.5 2.842-2.923 4.377-4.23 1.767-1.5 2.535-3.884 1.959-6.076l-2.227-8.576c-.884-3.384 1.152-6.845 4.492-7.73l10.406-2.73c.537-.154 1.075-.193 1.613-.193 2.879 0 5.375 1.962 6.105 4.73l1.574 6.038a5.867 5.867 0 0 0 5.529 4.423c.499 0 1.037.038 1.536.077 2.419.192 4.685-1.193 5.721-3.423l2.419-5.153a6.305 6.305 0 0 1 5.722-3.654c.921 0 1.804.193 2.649.577l9.753 4.538c1.536.73 2.688 1.962 3.264 3.577a6.254 6.254 0 0 1-.23 4.845l-2.381 5.153c-1.037 2.23-.614 4.884 1.075 6.577.346.384.73.769 1.075 1.115 1.114 1.23 2.726 1.961 4.378 1.961a5.82 5.82 0 0 0 2.534-.577l5.644-2.692a5.982 5.982 0 0 1 2.688-.615c2.419 0 4.684 1.423 5.721 3.615l4.608 9.73a6.325 6.325 0 0 1-2.995 8.421l-7.987 3.808c-2.073.961-3.379 3.115-3.379 5.422 0 2.038-.115 4.076-.422 6.076a5.989 5.989 0 0 0 3.34 6.269l6.298 2.96c3.148 1.462 4.531 5.23 3.033 8.384l-4.531 9.768a6.304 6.304 0 0 1-5.721 3.654 6.335 6.335 0 0 1-2.65-.577l-8.485-3.961a5.947 5.947 0 0 0-2.535-.577c-1.382 0-2.726.5-3.763 1.384-.422.385-.883.731-1.344 1.077-1.843 1.462-2.649 3.846-2.073 6.153l2.534 9.653c.883 3.384-1.152 6.845-4.492 7.73l-10.406 2.73c-.576.115-1.113.192-1.651.192Zm-14.13-17.844H185.422a6.315 6.315 0 0 1 5.682 4.692l2.151 8.307a5.914 5.914 0 0 0 5.721 4.422c.499 0 .998-.077 1.497-.192l10.406-2.73c3.149-.846 5.069-4.077 4.224-7.23l-2.534-9.653a6.301 6.301 0 0 1 2.188-6.576c.461-.346.883-.692 1.344-1.077a6.326 6.326 0 0 1 4.032-1.461c.921 0 1.881.192 2.726.615l8.486 3.961a5.77 5.77 0 0 0 2.496.577 5.937 5.937 0 0 0 5.376-3.422l4.53-9.769c1.383-2.96.077-6.499-2.879-7.883l-6.298-2.961c-2.534-1.192-3.954-3.846-3.571-6.653.269-1.962.423-4 .423-6 0-2.46 1.421-4.73 3.609-5.768l7.987-3.807c2.957-1.385 4.224-4.961 2.803-7.884l-4.608-9.73c-.96-2.076-3.072-3.384-5.375-3.384a5.82 5.82 0 0 0-2.535.577l-5.644 2.692a5.982 5.982 0 0 1-2.688.615 6.393 6.393 0 0 1-4.684-2.076 30.33 30.33 0 0 0-1.037-1.115c-1.766-1.846-2.227-4.654-1.152-7.038l2.381-5.153a5.996 5.996 0 0 0 .192-4.538c-.538-1.5-1.613-2.692-3.072-3.346l-9.753-4.538c-.807-.384-1.613-.538-2.496-.538a5.937 5.937 0 0 0-5.376 3.423l-2.419 5.153c-1.113 2.346-3.532 3.807-6.105 3.615a20.51 20.51 0 0 0-1.536-.077c-2.803-.116-5.145-2-5.875-4.73l-1.574-6.038a5.914 5.914 0 0 0-5.721-4.423c-.499 0-.999.077-1.498.193l-10.405 2.73c-3.149.846-5.069 4.077-4.224 7.23l2.227 8.576a6.366 6.366 0 0 1-2.074 6.46 40.684 40.684 0 0 0-4.339 4.192 6.453 6.453 0 0 1-4.761 2.115 6.325 6.325 0 0 1-2.649-.576l-6.297-2.962c-.807-.384-1.651-.538-2.496-.538a5.937 5.937 0 0 0-5.376 3.423l-4.531 9.73c-1.382 2.96-.077 6.498 2.88 7.883l8.486 3.96c2.227 1.04 3.686 3.27 3.686 5.73 0 .578 0 1.155.038 1.731.077 2.5-1.305 4.808-3.609 5.923l-9.023 4.269a6.027 6.027 0 0 0-3.034 3.345 5.82 5.82 0 0 0 .231 4.538l4.607 9.73c.96 2.076 3.072 3.384 5.376 3.384.883 0 1.728-.192 2.534-.577l7.757-3.653c.844-.385 1.766-.616 2.687-.616a6.42 6.42 0 0 1 4.57 1.923l.076.077c1.805 1.846 2.266 4.692 1.191 7.038l-3.418 7.306a5.996 5.996 0 0 0-.192 4.538c.538 1.5 1.613 2.692 3.072 3.346l9.753 4.538c.806.384 1.613.538 2.496.538a5.938 5.938 0 0 0 5.376-3.422l3.379-7.307c.96-2.231 3.187-3.654 5.606-3.654Z" fill="#66192D"/><path d="M185.191 89.927c-3.648 0-7.103-.692-9.945-2-5.375-2.5-9.292-7.499-11.02-14.075-1.651-6.23-1.113-12.998 1.498-18.613 3.225-6.922 11.173-11.268 20.734-11.268 4.416 0 8.755.923 12.518 2.692 5.568 2.616 9.868 7.038 12.057 12.46 2.227 5.538 2.073 11.614-.461 17.075-4.185 8.999-15.935 13.73-25.381 13.73Zm1.306-45.61c-9.408 0-17.241 4.23-20.389 11.038-2.573 5.537-3.11 12.229-1.498 18.343 1.728 6.461 5.568 11.384 10.828 13.845 2.765 1.307 6.144 2 9.753 2 9.331 0 20.927-4.654 25.074-13.537 2.496-5.346 2.649-11.306.461-16.767-2.151-5.346-6.374-9.691-11.865-12.268-3.725-1.73-7.987-2.653-12.364-2.653Z" fill="#66192D"/><path d="M408.895 1.323C334.98-8.714 265.212 52.586 256.15 116.232c-5.683 39.995 13.977 71.414 47.69 91.757 45.616 29.727 38.896 77.298 38.896 77.298l64.47 8.769c6.143-43.226 53.142-67.069 59.132-69.953 28.568-13.229 49.61-40.418 59.977-89.335 13.362-62.954-43.543-123.407-117.42-133.445Z" fill="#553E93"/><path d="M411.66 277.827s19.928 5.768 11.788 27.842c0 0 12.172 17.344-3.226 28.304 0 0 9.331 17.691-4.108 31.804-13.439 14.114-95.61-4.269-100.947-13.69-5.337-9.422-.653-18.921 6.719-20.344 0 0-8.793-9.076-4.799-18.344 3.993-9.268 9.369-10.46 9.369-10.46s-6.873-5.269-5.76-18.152c1.114-12.96 17.893-27.458 90.964-6.96Z" fill="#FFBA41"/><path d="M376.641 47.163s-19.659 2.73-32.753 16.575c-13.093 13.844-27.339 1.115-22.347-14.421 4.953-15.575 26.417-26.843 37.821-22.882 11.404 3.961 28.799 11.576 17.279 20.728Z" fill="#fff" opacity=".4"/><path d="M420.184 335.396c-.23 0-.461-.038-.653-.153-.076-.039-7.257-3.731-18.546-6.615-10.405-2.654-26.494-5.115-44.118-1.884-.768.153-1.498-.385-1.652-1.154-.153-.769.384-1.5 1.152-1.654 18.201-3.345 34.75-.807 45.425 1.923 11.596 2.961 18.776 6.692 19.083 6.845.691.347.96 1.231.615 1.923-.308.462-.807.769-1.306.769ZM423.448 307.092c-.192 0-.346-.038-.538-.115-.115-.039-10.06-3.961-23.346-7.038-12.21-2.807-29.796-5.499-44.272-2.192a1.386 1.386 0 0 1-1.689-1.077 1.389 1.389 0 0 1 1.075-1.692c15.013-3.422 33.06-.692 45.578 2.192 13.477 3.115 23.614 7.115 23.729 7.153a1.451 1.451 0 0 1 .807 1.846c-.269.577-.807.923-1.344.923Z" fill="#66192D"/><path d="M257.532 207.182c2.15-2.115-4.224-9.999-4.224-9.999-.806-.577-14.437 12.344-30.026 7.384-5.568-1.769-13.248-11.499-13.785-12.96-.077-.193-12.287 4.23-12.287 4.23.998 2.615 2.15 10.922 8.14 16.421 12.364 11.46 40.74 10.345 52.182-5.076Z" fill="#FDAD9B"/><path d="M184.922 364.393s.116 4.23 2.957 5.422c2.841 1.192 11.135 2.269 8.025 4.999-1.766 1.577-10.137.539-12.479.539-2.342 0-4.569 1.038-6.336-.539-1.92-1.73 0-10.421 0-10.421s2.035 1.076 3.879.999c2.649-.038 3.954-.999 3.954-.999Z" fill="#66192D"/><path d="M209.574 236.832s.576 19.074-5.491 55.685c-4.378 26.42-9.561 53.032-12.095 65.8-.922 4.576-4.762 7.922-9.293 8.075l-2.457.116c-4.915.192-8.908-4.038-8.524-9.038l6.182-86.335 1.536-28.419 30.142-5.884Z" fill="#552748"/><path d="M157.891 364.393s.115 4.23 2.956 5.422c2.842 1.192 11.135 2.269 8.025 4.999-1.766 1.577-10.137.539-12.479.539-2.342 0-4.569 1.038-6.335-.539-1.92-1.73 0-10.421 0-10.421s2.035 1.076 3.878.999c2.611-.038 3.955-.999 3.955-.999Z" fill="#66192D"/><path d="M182.503 236.832s.576 19.074-5.49 55.685c-4.378 26.42-9.561 53.032-12.096 65.8-.921 4.576-4.761 7.922-9.292 8.075l-2.457.116c-4.915.192-8.909-4.038-8.525-9.038l6.182-86.335 1.536-28.419 30.142-5.884Z" fill="#552748"/><path d="M149.328 257.714c.077 2.307 13.938 3.23 31.14 2.692 17.202-.539 30.91-2.923 30.872-5.23-.077-2.308-13.9-3.654-31.064-3.115-17.202.538-31.025 3.384-30.948 5.653Z" fill="#66192D"/><path d="M153.552 192.568s3.033-12.075 25.457-12.191c32.331-.192 29.336 29.574 32.331 74.799 0 0-31.87-4.5-62.012 1.961 0 .038-2.803-46.148 4.224-64.569Z" fill="#FF8548"/><path d="m145.258 190.838 14.629 8.114s32.062 2.923 40.586 1.5c8.525-1.423 10.867-7.653 10.867-7.653s-9.062-9.384-24.459-11.922c-1.459-.23-2.957-.423-4.493-.5a48.017 48.017 0 0 0-7.795.154c-19.582 2.231-29.335 10.307-29.335 10.307Z" fill="#FF8548"/><path d="m175.899 177.609 1.689-5.461.5-1.577 2.879-9.383.384 9.306.231 5.576.077 1.769c.038 1.192.268 2.385 1.152 3.461.345.423 1.766 2.923-.884 4.038-2.111.923-7.91-1.615-10.252-4.461.077.039 3.686-1.499 4.224-3.268Z" fill="#FDAD9B"/><path d="M208.614 257.06s-18.623-5.499-57.174 2.038l-.307 5.538 56.521 2 .96-9.576Z" fill="#552748"/><path d="M144.951 191.184c-1.229 1.769.576 5.23 4.07 7.768 3.494 2.538 7.334 3.153 8.562 1.384 1.229-1.769-.576-5.23-4.07-7.768-3.494-2.538-7.334-3.153-8.562-1.384Z" fill="#66192D"/><path d="M260.143 202.029c.384.615 1.19.846 1.843.461l9.791-5.884a1.36 1.36 0 0 0 .461-1.846 1.356 1.356 0 0 0-1.843-.461l-9.791 5.884a1.361 1.361 0 0 0-.461 1.846ZM258.377 199.067c.384.615 1.19.846 1.843.462l10.943-6.576a1.36 1.36 0 0 0 .461-1.846 1.356 1.356 0 0 0-1.843-.462l-10.943 6.576c-.615.385-.845 1.231-.461 1.846ZM252.233 201.721l.461.154a1.607 1.607 0 0 0 2.073-.962l3.034-8.114a1.611 1.611 0 0 0-.96-2.077l-.461-.154a1.607 1.607 0 0 0-2.073.962l-3.034 8.114a1.625 1.625 0 0 0 .96 2.077Z" fill="#FDAD9B"/><path d="M256.611 196.144c.384.616 1.19.846 1.843.462l8.754-5.269a1.36 1.36 0 0 0 .461-1.846 1.356 1.356 0 0 0-1.843-.461l-8.755 5.268c-.614.385-.806 1.193-.46 1.846Z" fill="#FDAD9B"/><path d="M255.766 207.374s7.641-.077 10.943-4.384c1.152-1.5-4.262-9.999-6.374-9.807-2.112.193-7.679 4.308-7.679 4.308l3.11 9.883Z" fill="#FDAD9B"/><path d="M261.909 204.951a1.358 1.358 0 0 0 1.844.462l8.754-5.269a1.36 1.36 0 0 0 .461-1.846 1.356 1.356 0 0 0-1.843-.461l-8.755 5.268c-.653.385-.845 1.192-.461 1.846Z" fill="#FDAD9B"/><path d="M205.58 199.375c-.921-3.346-4.032-7.576-4.07-7.615l.307-.23c.039.038 3.187 4.307 4.147 7.729l-.384.116Z" fill="#66192D"/><path d="M179.777 199.759c.308.5.768.885 1.191 1.27.96.807 1.881 1.653 2.841 2.461 1.114.961 2.266 2.038 2.496 3.499.154 1.039-.192 2.154.192 3.154.422 1.038 1.574 1.577 2.688 1.73 1.113.154 4.07.308 5.107 1.962.307.538 1.113.846 1.919.73 1.421-.23 1.844-1.73.884-2.884-.576-.654-1.076-1.346-1.575-2.038-.844-1.192-1.344-2.615-1.382-4.077-.077-1.845.461-3.845-.538-5.384-.576-.922-1.574-1.461-2.534-1.961-1.843-1-3.84-2.23-4.262-4.268-.153-.847-.038-1.808-.576-2.5-.422-.539-1.152-.769-1.805-.808-.614-.077-1.343.039-1.689.539-.307.5-.115 1.115-.154 1.653-.115 1.539-1.881 2.308-2.687 3.577-.692 1-.73 2.346-.116 3.345Zm2.535-2.23c.345-.577 1.075-.885 1.727-.692.231.077.423.154.576.346.231.231.346.577.538.884.269.423.653.77 1.075 1 .615.308 1.306.346 1.997.385 1.075.077 3.187.346 3.148 1.884-.038.885-.921 1.115-1.689 1.154-1.152.038-2.035-.462-3.072-.885-1.305-.538-2.918-.653-3.917-1.769-.575-.615-.844-1.576-.383-2.307Z" fill="#fff"/><path d="M206.502 217.219s-2.842 19.92-4.915 20.113c-2.074.192-9.83.615-12.21 0-2.381-.616-3.687-20.421-3.034-20.882.691-.462 21.042-1.5 20.159.769Z" fill="#66192D"/><path d="m186.996 229.294.921-1.807c-2.534-1.308-6.297-3.846-6.604-5.384-.038-.231 0-.346.115-.538 1.651-2.077 5.453.192 5.491.23l1.075-1.73c-.038-.039-1.305-.808-2.841-1.192-2.88-.731-4.454.384-5.299 1.422-.499.654-.691 1.423-.499 2.231.614 3.038 6.489 6.153 7.641 6.768Z" fill="#66192D"/><path d="M185.921 223.795s4.415-5.384 8.486-5.576c4.07-.154 9.407 2.692 6.911 3.345-2.496.654-5.913.577-5.913.577s7.295.5 6.451 2.154c-.845 1.653-7.219 1.192-7.219 1.192s8.639 1.269 7.334 2.577c-1.306 1.307-7.872.307-7.872.307s7.987 1.5 6.451 3c-1.574 1.5-6.604-1.269-7.449.384-.845 1.654-4.8 7.999-9.715 6.154l2.535-14.114Z" fill="#FDAD9B"/><path d="m192.487 222.68-.192-.231c.96-.923 3.033-.5 3.11-.462l-.077.308s-1.958-.423-2.841.385ZM191.143 226.103l-.154-.269c1.613-1.001 3.61-.539 3.686-.539l-.076.308c-.039 0-1.959-.424-3.456.5ZM190.836 228.91l-.231-.192c.96-1.078 3.379-.539 3.494-.539l-.076.308s-2.343-.5-3.187.423Z" fill="#DD8964"/><path d="M184.73 238.178c2.803 0 2.036-14.537 2.036-14.537-16.319 1.731-23.308-2.269-26.341-5.884-6.067-7.345-2.803-18.42-2.765-18.574 0 0 .499-2.077-4.569-4.923-2.419-1.384-4.416-1.807-5.798-1.884-1.152-.077-2.227.692-2.496 1.807-1.344 5.23-4.377 21.267 4.761 32.419 6.259 7.615 21.58 11.576 35.172 11.576Z" fill="#FDAD9B"/><path d="M157.468 229.14c-.845 0-1.766-.269-2.611-.807-1.92-1.192-2.803-3.154-2.035-4.461.269-.5.768-.846 1.382-1 .999-.269 2.304 0 3.418.731 1.92 1.192 2.803 3.153 2.035 4.461-.269.5-.768.846-1.382 1-.231.076-.5.076-.807.076Zm-2.457-5.614c-.231 0-.423.038-.615.077-.307.077-.691.23-.921.653-.538.962.269 2.539 1.766 3.462.96.615 2.035.846 2.88.615.307-.077.691-.231.921-.654.538-.961-.268-2.538-1.766-3.461-.768-.423-1.574-.692-2.265-.692Z" fill="#E08B65" opacity=".5"/><path d="M181.62 176.109s-3.225-.615-4.454-2.5l4.723 1.038-.269 1.462ZM188.455 157.688s.576 2.269 0 5.115-3.494-4.154-3.494-4.154l3.494-.961Z" fill="#66192D"/><path d="M188.801 163.61c-.73-5.499-4.992-9.46-9.561-8.883-4.57.615-7.641 5.537-6.95 11.037.729 5.499 4.991 9.46 9.561 8.883 4.569-.615 7.679-5.538 6.95-11.037Z" fill="#FDAD9B"/><path d="m172.098 162.918 4.031-.423c.884-.077 1.69-.577 2.189-1.307.806-1.308 1.805-1.962 5.568-1.808 4.761.192 7.871-2.653 8.409-5.153.537-2.538-1.92-4.269-4.301-3.038-2.38 1.231-1.344-1.769-3.648-2.077-4.3-.577-5.106 2.731-8.601 2.615-4.607-.153-12.863 3.346-8.946 11.46l5.299-.269Z" fill="#66192D"/><path d="M181.006 164.264c.038-.038.077-.077.077-.115 0-.077-.077-.193-.154-.193-.038 0-1.305-.23-1.958 1.116-.039.077 0 .192.077.23.076.039.153 0 .23-.076.576-.731 1.574-.923 1.613-.923.038 0 .076 0 .115-.039ZM180.276 166.418c.115.384.423.653.691.576.269-.077.423-.461.308-.846-.116-.384-.423-.653-.692-.576-.268.076-.422.461-.307.846ZM187.226 163.765c.039 0 .077-.039.077-.077.038-.077 0-.193-.077-.231-.038-.039-.921-.77-1.728.192a.248.248 0 0 0 0 .231c.039.077.116.077.192.038.615-.423 1.383-.192 1.421-.153h.115ZM185.69 165.494c-.038.385.154.77.423.808.307.038.576-.269.614-.654.038-.384-.153-.769-.422-.807-.307-.039-.576.269-.615.653Z" fill="#060633"/><path d="M166.76 163.149s2.765 5.999 6.72 6.461c0 0-2.189-5.269 3.533-7.346 0 0-6.144-1-10.253.885Z" fill="#66192D"/><path d="M172.482 166.687c.652 1 1.766 1.423 2.534.961.768-.5.845-1.692.192-2.692-.653-1-1.766-1.423-2.534-.961-.768.461-.845 1.692-.192 2.692Z" fill="#FDAD9B"/><path d="M186.42 169.34s-2.573.692-5.414.423c0 0 .422 2.615 3.264 2.115 1.651-.346 2.15-2.538 2.15-2.538Z" fill="#fff"/><path d="M187.457 150.767c-1.229 0-1.344-1.078-1.344-1.078l.23-.038c0 .038.115.923 1.19.885v.231h-.076Z" fill="#66192D"/><path d="m185.23 158.034-.039-.115s1.306-.385 2.573-1.077c1.19-.654 2.611-1.692 2.726-3.038.077-.731-.077-1.231-.384-1.5-.499-.423-1.421-.231-2.227-.038-.115.038-.23.038-.346.076l-.038-.115c.115-.038.23-.038.346-.077.844-.192 1.766-.423 2.303.039.346.307.461.807.423 1.576-.154 2.731-5.145 4.192-5.337 4.269ZM175.246 152.727c-.461 0-.998-.039-1.497-.116v-.115c4.953.654 7.295-2.115 7.334-2.153l.076.076c0 .039-1.919 2.308-5.913 2.308Z" fill="#fff"/><path d="m478.817 119.039 9.254 1c3.533.385 6.72-2.192 7.104-5.73l1.228-11.306c.384-3.538-2.188-6.73-5.721-7.115l-6.566-.73c-2.841-.308-5.107-2.423-5.644-5.23-.115-.539-.192-1.077-.346-1.616-.576-2.576.538-5.268 2.765-6.73l4.992-3.307c2.995-1.961 3.801-5.999 1.843-8.96l-6.259-9.46a6.473 6.473 0 0 0-8.947-1.846l-4.991 3.307c-2.227 1.461-5.107 1.461-7.258-.116-.422-.307-.883-.615-1.343-.922-2.381-1.577-3.418-4.538-2.611-7.269l1.919-6.307c1.037-3.422-.883-7.037-4.3-8.076l-10.867-3.307a6.457 6.457 0 0 0-8.063 4.307l-2.726 8.922c-.73 2.423-2.803 4.154-5.299 4.538-2.074.308-4.186.77-6.221 1.385-2.726.807-5.682-.231-7.257-2.615l-4.031-6.154c-1.959-3-5.991-3.807-8.947-1.846l-9.446 6.269c-2.956 1.961-3.801 6-1.843 8.96l5.452 8.268a6.511 6.511 0 0 1 .154 6.961c-.307.5-.614 1.039-.921 1.577a6.485 6.485 0 0 1-6.298 3.23l-10.444-1.153c-3.532-.385-6.719 2.192-7.103 5.73l-1.229 11.306c-.384 3.538 2.189 6.73 5.721 7.114l8.985.962c2.765.307 4.992 2.346 5.606 5.038 0 .038 0 .077.039.077a6.446 6.446 0 0 1-2.765 6.768l-7.104 4.692c-2.995 1.961-3.801 5.999-1.843 8.96l6.259 9.499c1.958 2.961 5.99 3.807 8.947 1.846l7.065-4.692c2.227-1.461 5.145-1.423 7.295.115l.077.077a6.468 6.468 0 0 1 2.419 7.153l-2.611 8.653c-1.036 3.423.883 7.038 4.301 8.076l10.866 3.307a6.458 6.458 0 0 0 8.064-4.307l3.072-10.076c.729-2.461 2.879-4.268 5.414-4.538.614-.076 1.19-.153 1.804-.23 2.496-.385 4.954.769 6.336 2.846l5.452 8.268c1.959 2.999 5.99 3.807 8.947 1.846l9.446-6.269c2.956-1.961 3.801-5.999 1.843-8.96l-4.032-6.153c-1.574-2.385-1.382-5.5.461-7.73 1.344-1.654 2.611-3.384 3.686-5.192 1.306-2.153 3.725-3.384 6.22-3.115Zm-31.217 1.116c-10.981 7.268-30.718 2.076-37.975-8.922-7.257-10.999-1.574-27.15 9.407-34.42 10.982-7.267 27.109-.384 34.366 10.615 7.257 10.999 5.184 25.458-5.798 32.727Z" fill="#C8C1E1"/><path d="M424.101 170.148c-.653 0-1.306-.116-1.92-.269l-10.867-3.308a6.61 6.61 0 0 1-3.955-3.23c-.844-1.577-.998-3.384-.499-5.076l2.611-8.653c.768-2.577-.153-5.346-2.38-6.922l-.077-.077a6.114 6.114 0 0 0-3.61-1.154 6.177 6.177 0 0 0-3.455 1.038l-7.066 4.692a6.47 6.47 0 0 1-3.647 1.115c-2.227 0-4.301-1.115-5.568-2.999l-6.259-9.499c-.998-1.5-1.305-3.269-.96-4.999.346-1.731 1.383-3.231 2.842-4.231l7.103-4.691c2.15-1.423 3.226-4.077 2.65-6.576l-.039-.077a6.203 6.203 0 0 0-5.452-4.884l-8.985-.962c-1.766-.192-3.341-1.077-4.454-2.461a6.59 6.59 0 0 1-1.421-4.884l1.229-11.306c.384-3.384 3.225-5.923 6.604-5.923.23 0 .499 0 .73.039l10.444 1.154c.23.038.461.038.691.038 2.265 0 4.339-1.192 5.414-3.153.307-.539.614-1.077.922-1.577 1.267-2.038 1.19-4.692-.154-6.73l-5.453-8.268a6.652 6.652 0 0 1 1.882-9.23l9.446-6.268a6.473 6.473 0 0 1 3.647-1.115 6.652 6.652 0 0 1 5.568 3l4.032 6.152c1.152 1.77 3.11 2.807 5.222 2.807.614 0 1.229-.076 1.805-.269a43.275 43.275 0 0 1 6.258-1.384 6.267 6.267 0 0 0 5.107-4.384l2.726-8.922c.845-2.846 3.418-4.73 6.375-4.73.652 0 1.305.115 1.919.307l10.867 3.308a6.43 6.43 0 0 1 3.916 3.23c.845 1.577.999 3.384.5 5.076l-1.92 6.307c-.807 2.654.192 5.5 2.534 7.038.461.307.921.615 1.344.923a6.18 6.18 0 0 0 7.027.115l4.991-3.307a6.476 6.476 0 0 1 3.648-1.115c2.227 0 4.301 1.115 5.568 3l6.259 9.46c.998 1.5 1.305 3.268.959 4.999-.345 1.73-1.382 3.23-2.841 4.23l-4.992 3.307c-2.15 1.423-3.225 4.038-2.688 6.538l.346 1.615c.499 2.73 2.726 4.769 5.491 5.076l6.566.731c1.766.192 3.341 1.077 4.454 2.461a6.59 6.59 0 0 1 1.421 4.884l-1.229 11.307c-.384 3.384-3.225 5.922-6.604 5.922-.231 0-.5 0-.73-.038l-9.254-1c-.23-.039-.46-.039-.691-.039-2.15 0-4.224 1.154-5.375 3.038-1.114 1.808-2.343 3.577-3.725 5.23-1.766 2.154-1.958 5.192-.422 7.499l4.031 6.153c.999 1.5 1.306 3.269.96 5-.345 1.73-1.382 3.23-2.841 4.23l-9.446 6.269a6.479 6.479 0 0 1-3.648 1.115 6.649 6.649 0 0 1-5.567-3l-5.453-8.268c-1.19-1.769-3.11-2.846-5.222-2.846-.307 0-.614.039-.921.077a222.9 222.9 0 0 0-1.805.231c-2.458.269-4.531 2-5.261 4.422l-3.071 10.076c-.653 2.73-3.226 4.615-6.182 4.615Zm-20.658-29.112c1.382 0 2.726.423 3.839 1.231l.077.077a6.592 6.592 0 0 1 2.496 7.345l-2.611 8.653c-.499 1.615-.307 3.307.461 4.768.806 1.462 2.112 2.577 3.724 3.038l10.867 3.308a5.71 5.71 0 0 0 1.805.269 6.258 6.258 0 0 0 5.99-4.461l3.071-10.076a6.653 6.653 0 0 1 5.606-4.692c.576-.076 1.191-.153 1.805-.23a7.96 7.96 0 0 1 .96-.077 6.584 6.584 0 0 1 5.529 2.999l5.453 8.269c1.152 1.769 3.11 2.807 5.222 2.807a6.18 6.18 0 0 0 3.456-1.038l9.445-6.269a6.357 6.357 0 0 0 2.688-3.961c.346-1.654 0-3.307-.921-4.73l-4.032-6.153c-1.613-2.461-1.421-5.653.461-7.961 1.344-1.615 2.572-3.384 3.686-5.191 1.229-2 3.379-3.231 5.683-3.231.23 0 .46 0 .729.039l9.254 1c.23.038.461.038.691.038 3.187 0 5.875-2.423 6.221-5.576l1.228-11.306c.192-1.654-.307-3.308-1.344-4.615-1.036-1.308-2.534-2.115-4.223-2.308l-6.566-.73a6.607 6.607 0 0 1-5.798-5.384c-.116-.539-.192-1.077-.346-1.577-.576-2.653.538-5.422 2.842-6.96l4.991-3.308a6.36 6.36 0 0 0 2.688-3.96c.346-1.654 0-3.308-.921-4.731l-6.259-9.46c-1.152-1.77-3.111-2.808-5.222-2.808a6.179 6.179 0 0 0-3.456 1.039l-4.992 3.307a6.687 6.687 0 0 1-3.686 1.115 6.41 6.41 0 0 1-3.801-1.23c-.423-.308-.884-.616-1.344-.923-2.458-1.654-3.533-4.654-2.688-7.461l1.92-6.307c.499-1.615.307-3.307-.461-4.769-.806-1.46-2.112-2.576-3.686-3.038l-10.867-3.307a5.7 5.7 0 0 0-1.804-.27 6.256 6.256 0 0 0-5.99 4.462l-2.727 8.922c-.729 2.461-2.879 4.268-5.452 4.653-2.073.308-4.185.77-6.22 1.346a6.446 6.446 0 0 1-1.92.27 6.66 6.66 0 0 1-5.568-2.962l-4.032-6.153c-1.152-1.769-3.11-2.807-5.222-2.807a6.181 6.181 0 0 0-3.456 1.038l-9.445 6.268c-2.88 1.923-3.686 5.807-1.767 8.692l5.453 8.268c1.421 2.153 1.497 5 .153 7.153-.307.5-.614 1.038-.921 1.576-1.152 2.077-3.379 3.346-5.76 3.346-.23 0-.499 0-.729-.038l-10.444-1.154c-.231-.038-.461-.038-.692-.038-3.187 0-5.874 2.422-6.22 5.576l-1.229 11.306c-.192 1.654.307 3.307 1.344 4.615 1.037 1.307 2.535 2.115 4.186 2.307l8.985.962a6.613 6.613 0 0 1 5.759 5.191l.039.077a6.738 6.738 0 0 1-2.842 6.999l-7.103 4.692a6.357 6.357 0 0 0-2.688 3.961c-.346 1.654 0 3.307.921 4.73l6.259 9.499c1.152 1.769 3.11 2.807 5.222 2.807a6.18 6.18 0 0 0 3.456-1.038l7.065-4.692c1.152-.653 2.419-1.038 3.725-1.038Z" fill="#66192D"/><path d="M314.706 171.032v5.538c0 2.115 1.69 3.846 3.801 3.846h6.72c2.112 0 3.84-1.692 3.84-3.808v-3.922c0-1.692 1.113-3.192 2.726-3.654.307-.076.614-.192.922-.307 1.497-.5 3.148 0 4.146 1.192l2.266 2.73c1.344 1.616 3.763 1.846 5.376.5l5.183-4.268c1.613-1.346 1.843-3.769.499-5.384l-2.265-2.731c-.998-1.23-1.19-2.922-.384-4.307.154-.269.307-.577.461-.846.768-1.5 2.457-2.307 4.108-2l3.84.731a3.864 3.864 0 0 0 4.493-3.038l1.267-6.615a3.869 3.869 0 0 0-3.034-4.499l-5.414-1.038c-1.459-.27-2.611-1.385-2.995-2.846-.307-1.231-.729-2.423-1.19-3.577-.653-1.576-.23-3.384 1.075-4.461l3.341-2.768c1.612-1.346 1.843-3.769.499-5.384l-4.262-5.192c-1.344-1.615-3.763-1.846-5.376-.5l-4.493 3.73a3.834 3.834 0 0 1-4.07.539c-.307-.154-.652-.308-.96-.462-1.382-.615-2.303-2-2.303-3.499v-6.23c0-2.115-1.69-3.846-3.802-3.846h-6.719c-2.112 0-3.84 1.692-3.84 3.807v5.346a3.812 3.812 0 0 1-2.611 3.615h-.039a3.782 3.782 0 0 1-4.146-1.193l-3.187-3.884c-1.344-1.615-3.763-1.846-5.376-.5l-5.184 4.269c-1.613 1.346-1.843 3.769-.499 5.384l3.187 3.884a3.848 3.848 0 0 1 .384 4.307l-.038.039a3.816 3.816 0 0 1-4.032 1.884l-5.261-1a3.864 3.864 0 0 0-4.492 3.038l-1.267 6.615c-.384 2.077.96 4.076 3.033 4.461l6.144 1.154c1.497.269 2.688 1.422 3.033 2.922.077.346.154.692.269 1.039.384 1.422-.154 2.961-1.267 3.922l-4.531 3.73c-1.613 1.346-1.843 3.769-.499 5.384l4.262 5.192c1.344 1.615 3.763 1.846 5.376.5l3.34-2.769c1.306-1.077 3.149-1.154 4.569-.231a27.718 27.718 0 0 0 3.303 1.846c1.228.769 2.111 2.115 2.073 3.615Zm-2.573-18.344c-4.953-6.037-3.148-17.997 2.842-22.958 6.028-4.961 15.858-2.615 20.811 3.384 4.954 6.038 1.92 15.959-4.108 20.959-5.99 4.961-14.591 4.653-19.545-1.385Z" fill="#FF8548"/><path d="M381.134 207.028v3.653a2.533 2.533 0 0 0 2.534 2.538h4.416a2.534 2.534 0 0 0 2.534-2.538v-2.576c0-1.116.73-2.077 1.805-2.423.192-.077.422-.116.614-.193.998-.346 2.074 0 2.726.808l1.498 1.808a2.548 2.548 0 0 0 3.571.346l3.417-2.808a2.51 2.51 0 0 0 .346-3.538l-1.498-1.807a2.572 2.572 0 0 1-.269-2.846c.116-.192.193-.385.308-.577a2.472 2.472 0 0 1 2.726-1.307l2.534.5c1.382.269 2.688-.654 2.957-2l.845-4.346c.268-1.384-.653-2.692-1.997-2.961l-3.571-.692a2.52 2.52 0 0 1-1.958-1.885 14.532 14.532 0 0 0-.807-2.384c-.422-1.038-.153-2.23.73-2.923l2.227-1.845a2.556 2.556 0 0 0 .345-3.577l-2.803-3.423a2.548 2.548 0 0 0-3.571-.346l-2.956 2.462c-.768.615-1.805.769-2.688.346-.23-.116-.422-.193-.653-.308-.921-.385-1.497-1.308-1.497-2.307v-4.115a2.534 2.534 0 0 0-2.534-2.538h-4.416a2.533 2.533 0 0 0-2.534 2.538v3.538a2.517 2.517 0 0 1-1.728 2.384h-.039c-.998.346-2.073 0-2.726-.769l-2.112-2.577a2.548 2.548 0 0 0-3.571-.346l-3.417 2.846a2.556 2.556 0 0 0-.346 3.576l2.112 2.577a2.57 2.57 0 0 1 .269 2.846s0 .038-.039.038a2.47 2.47 0 0 1-2.687 1.231l-3.456-.654c-1.382-.269-2.688.654-2.957 2l-.844 4.346c-.269 1.384.652 2.691 1.996 2.961l4.032.769a2.561 2.561 0 0 1 1.997 1.923c.038.23.115.461.153.692.231.961-.077 1.961-.845 2.576l-2.994 2.462a2.555 2.555 0 0 0-.346 3.576l2.803 3.423a2.547 2.547 0 0 0 3.571.346l2.227-1.846c.845-.731 2.073-.769 3.033-.154.691.462 1.421.885 2.189 1.231.768.423 1.344 1.307 1.344 2.269Zm-1.728-12.076c-3.264-3.961-2.073-11.883 1.882-15.152 3.954-3.268 10.482-1.73 13.746 2.231 3.264 3.961 1.267 10.537-2.688 13.806-3.955 3.269-9.638 3.076-12.94-.885Z" fill="#C8C1E1"/><path d="M494.714 394.273s33.866 5.269 62.242 2.462c28.376-2.769 67.618-4.308 60.476-51.186-7.142-46.879.576-66.453-27.454-77.99-28.03-11.537-60.63-4.038-82.516 22.766-21.887 26.804-73.071 83.912-12.748 103.948Z" fill="#FF443C"/><path d="M555.727 325.128c-.192 0-.345-.154-.384-.346-.038-.192.116-.384.346-.423 20.005-2.615 31.831-21.882 31.947-22.074.115-.192.345-.231.537-.115.192.115.231.346.115.538-.038.039-3.033 4.999-8.524 10.191-5.068 4.807-13.324 10.845-23.998 12.229h-.039Z" fill="#66192D"/><path d="M571.816 319.052c-.039 0-.115 0-.154-.038-.192-.077-.269-.308-.192-.5 2.074-4.192 1.958-7.922 1.536-10.307-.499-2.576-1.497-4.23-1.497-4.23-.116-.192-.077-.423.115-.538.192-.116.422-.077.537.115.039.077 4.186 6.845.039 15.267-.115.154-.231.231-.384.231ZM470.638 384.698s-.23 4.768-3.455 6.076c-3.264 1.269-12.633 2.307-9.216 5.461 1.959 1.807 11.443.846 14.131.923 2.687.038 5.145 1.269 7.18-.462 2.227-1.923.23-11.768.23-11.768s-2.342 1.154-4.415 1.039c-2.996-.154-4.455-1.269-4.455-1.269ZM442.148 381.967s-.269 4.769-3.533 6.038c-3.264 1.231-12.671 2.154-9.254 5.345 1.958 1.808 11.443 1 14.092 1.077 2.649.077 5.145 1.346 7.18-.384 2.227-1.885.384-11.768.384-11.768s-2.342 1.115-4.415 1c-2.995-.192-4.454-1.308-4.454-1.308Z" fill="#66192D"/><path d="M444.336 385.928c-5.529-.615-9.561-5.499-9.177-11.037 2.15-31.342 5.069-47.109 15.628-60.146 6.796-8.384 16.703-16.344 28.606-20.69 10.252-3.73 18.892-5.345 30.104-5.038 18.277.5 26.609 3.961 26.609 3.961 11.212 29.612-10.521 31.535-26.379 30.958-.538-.038-1.037-.038-1.574-.038-9.638-.231-26.879.73-34.136 9.729-5.759 7.115-10.213 17.383-14.053 44.571-.73 5.231-5.491 8.922-10.713 8.307l-4.915-.577Z" fill="#FF8548"/><path d="M470.562 389.812c-5.53-.615-9.561-5.499-9.178-11.037 2.151-31.342 5.069-47.109 15.628-60.146 6.797-8.384 16.434-14.344 28.645-17.652 8.716-2.384 18.815-3.422 30.027-3.115 18.277.5 26.648-.999 26.648-.999 11.596 37.649-41.585 25.304-56.944 39.571-6.681 6.23-15.359 18.421-19.199 45.61-.729 5.23-5.491 8.922-10.713 8.307l-4.914-.539Z" fill="#FF8548"/><path d="M506.655 243.677c-1.459 1.846-15.512 17.921-15.704 35.649l13.132-2.653 9.177-22.574-6.605-10.422Z" fill="#FDAD9B"/><path d="M557.494 243.792s-5.606-14.882-24.805-13.844c-19.199 1.038-32.677 8.614-35.48 62.261 0 0 26.495-1.499 56.752 16.344 5.107 3 13.055 2.385 13.401-3.499.652-11.806-1.767-34.303-9.868-61.262Z" fill="#FFBA41"/><path d="m574.35 246.138-16.856 5.346s-34.904 4.076-44.234 2.615c-9.293-1.5-11.98-8.884-11.98-8.884s9.714-11.306 26.494-14.575a48.997 48.997 0 0 1 4.915-.692c2.841-.269 5.567-.5 8.37-.231 27.301 2.885 33.291 16.421 33.291 16.421Z" fill="#FFBA41"/><path d="M574.35 246.138c.922 2-3.033 3.923-7.91 5.692-4.838 1.807-9.177 2.153-9.638.807-.499-1.346 3.034-3.922 7.91-5.691 4.838-1.769 9.062-2.115 9.638-.808Z" fill="#66192D"/><path d="M526.353 297.555c-3.302-.5-5.875-1.731-7.794-3.692-3.687-3.73-3.687-8.807-2.611-12.037l4.3-1.731c.346-1.038 7.372 4.115 7.372 4.115.039 0 3.495 1.616 16.934-2.961 9.369-3.153 14.667-8.845 16.28-17.344 1.191-6.422-.883-9.691-1.344-11.383-.077-.231 1.152-3 6.144-4.653 5.414-1.769 7.372-.385 7.372-.385.807 3.038 2.458 9.922.768 18.882-1.728 9.269-7.487 21.613-25.073 27.535-9.6 3.231-16.934 4.461-22.348 3.654Z" fill="#FDAD9B"/><path d="m523.397 299.055-35.249-.962c-.73-.038-1.383-.5-1.575-1.192l-6.719-22.113a1.69 1.69 0 0 1 1.689-2.192l33.867.923c1.536.039 2.88 1.077 3.34 2.539l6.336 20.805c.346 1.115-.538 2.23-1.689 2.192Z" fill="#552748"/><path d="m521.17 299.016-35.249-.961c-.73-.039-1.383-.5-1.575-1.192l-6.719-22.113a1.69 1.69 0 0 1 1.689-2.192l33.867.923c1.536.038 2.88 1.077 3.34 2.538l6.336 20.805a1.689 1.689 0 0 1-1.689 2.192Z" fill="#552748"/><path d="M496.864 284.979c.038-.846.998-1.153 1.843-1.115.845.039 2.189.962 2.15 2.154-.038 1.269-1.036 1.384-1.881 1.384-.845-.077-2.15-1.384-2.112-2.423Z" fill="#DEEBE9"/><path d="m534.225 296.247-48.228-1.307-.076 3.076 49.225 1.346c.576 0 1.037-.423 1.075-1 .039-1.115-.883-2.076-1.996-2.115Z" fill="#552748"/><path d="M519.058 284.71c0-.077-1.575-6.614-2.65-8.652-1.037-2-2.38-2.462-2.419-2.462l.077-.23c.077 0 1.459.461 2.534 2.576 1.075 2.077 2.573 8.422 2.65 8.691l-.192.077ZM523.973 296.093c-1.306-.038-1.613-.615-1.613-.653l-2.534-8.307.23-.077 2.534 8.307s.269.461 1.421.5l-.038.23Z" fill="#6F4975"/><path d="M560.681 283.441c-.308 0-.538-.077-.73-.23-.768-.616-.499-2.231.576-3.654.73-.923 1.651-1.538 2.457-1.653.384-.039.692.038.922.23.768.616.538 2.231-.576 3.654-.73.923-1.651 1.538-2.457 1.653h-.192Zm2.457-5.076h-.154c-.652.077-1.497.654-2.15 1.461-.921 1.193-1.229 2.538-.653 3 .154.115.346.154.615.154.653-.077 1.497-.654 2.15-1.462.922-1.192 1.229-2.538.653-2.999-.115-.116-.269-.154-.461-.154Z" fill="#E08B65" opacity=".3"/><path d="m536.145 227.333-2.88-5.115-.845-1.499-4.953-8.73 1.651 9.422.998 5.653.307 1.769c.231 1.231-.46 1.615-1.113 2.884-.269.5-2.035 3.577.845 4.153 3.571.731 9.215-2.807 10.904-6.153-.038 0-3.993-.73-4.914-2.384Z" fill="#FDAD9B"/><path d="M519.25 210.143s-.077 2.384 1.113 5.115c1.229 2.73 2.573-4.923 2.573-4.923l-3.686-.192Z" fill="#56335B"/><path d="M520.171 216.142c-.46-5.653 2.919-10.576 7.603-10.96 4.685-.385 8.87 3.846 9.369 9.537.499 5.653-2.918 10.576-7.603 10.96-4.684.385-8.87-3.884-9.369-9.537Z" fill="#FDAD9B"/><path d="m536.72 211.796-4.108.462a2.915 2.915 0 0 1-2.457-.846c-1.114-1.115-2.228-1.577-5.952-.577-4.723 1.231-8.486-.923-9.523-3.307-1.075-2.423.96-4.692 3.648-4 2.688.693.96-2.076 3.225-2.884 4.147-1.538 5.683 1.615 9.178.731 4.569-1.154 13.592.538 11.442 9.537l-5.453.884Z" fill="#66192D"/><path d="M528.158 215.104c-.039 0-.077-.077-.115-.115-.039-.077.038-.193.115-.231.038 0 1.267-.501 2.189.692.076.077.038.193-.039.231-.077.077-.153.039-.23-.038-.73-.616-1.767-.577-1.805-.577-.077.038-.115.038-.115.038ZM529.348 217.104c-.038.423-.269.73-.576.73-.307 0-.537-.346-.499-.769.038-.423.269-.731.576-.731.307 0 .499.347.499.77ZM521.784 215.95c-.038 0-.077-.038-.115-.077-.039-.077-.039-.192 0-.231.038-.038.729-.962 1.766-.192.077.039.077.154.038.231-.038.077-.115.077-.192.077-.729-.269-1.42.115-1.459.154.039.038 0 .038-.038.038ZM523.704 217.373c.153.384.038.769-.269.884-.269.116-.614-.154-.768-.538-.154-.385-.038-.769.269-.885.307-.115.653.116.768.539Z" fill="#060633"/><path d="M542.135 210.874s-1.46 6.614-5.299 7.922c0 0 2.188-5.269-5.146-6.615-.038.038 5.952-2.307 10.445-1.307Z" fill="#66192D"/><path d="M537.297 215.412c-.73.73-1.844.769-2.496.115-.653-.654-.576-1.769.153-2.5.73-.731 1.843-.769 2.496-.115s.576 1.769-.153 2.5Z" fill="#FDAD9B"/><path d="M531.652 212.22s1.651 4.922.806 6.114c-.806 1.192-7.487 3.077-10.905 2.538.653 3.269 3.571 5.615 6.874 5.461 1.075-.038 2.188-.307 3.225-.73 2.112-.885 4.07-2.269 4.531-4.5.154-.692-1.498-4.345-1.498-4.345s-.806-2.192.269-3.654c0-.038-1.804-1.077-3.302-.884Z" fill="#66192D"/><path d="M523.627 222.295s2.765.154 5.529-.769c0 0 .154 2.73-2.841 2.807-1.728.077-2.688-2.038-2.688-2.038Z" fill="#fff"/><path d="m518.635 202.99-.038-.231c1.113-.192.998-1.115.998-1.154l.231-.038c0 .038.115 1.192-1.191 1.423Z" fill="#66192D"/><path d="M522.552 209.758c-.231 0-5.529-.384-6.336-3.038-.23-.769-.192-1.307.077-1.692.461-.577 1.421-.577 2.304-.577h.384v.116h-.384c-.845 0-1.805-.039-2.227.5-.269.346-.269.846-.039 1.576.423 1.346 2.074 2.077 3.379 2.462 1.46.423 2.803.499 2.842.499v.154ZM529.233 202.528c-2.726 0-4.301-1.192-4.301-1.23l.077-.077c.039.038 3.034 2.269 7.795.538l.038.116c-1.344.461-2.534.653-3.609.653Z" fill="#fff"/><path d="M462.767 361.162c0-.115 0-12.075 4.454-24.92 2.611-7.537 6.22-13.921 10.713-18.92 5.606-6.269 12.671-10.461 20.927-12.383l.038.192c-8.217 1.923-15.205 6.076-20.811 12.306-4.455 4.999-8.064 11.345-10.637 18.844-4.415 12.806-4.454 24.727-4.454 24.843l-.23.038Z" fill="#020202"/><path d="m71.227 378.66-3.57.692.23-45.148 2.726 1.154.614 43.302Z" fill="#66192D"/><path d="M81.71 381.16s-18.815.346-25.074.384c-.69 0-1.19-.961-1.19-1.653 0-.693.998-1.5 1.69-1.5 6.143.038 24.574.269 24.574.269a1.28 1.28 0 0 1 1.267 1.269c0 .654-.576 1.231-1.267 1.231Z" fill="#66192D"/><path d="M56.368 383.39c.23-1.384 1.42-2.269 2.841-2.269 1.382 0 2.841.923 2.841 2.308 0 1.73-1.766 2.961-3.148 2.961-1.46.038-2.842-1.231-2.534-3ZM76.411 383.39c.23-1.384 1.42-2.269 2.841-2.269 1.383 0 2.842.923 2.842 2.308 0 1.73-1.766 2.961-3.149 2.961-1.42.038-2.841-1.231-2.534-3ZM60.745 335.666s-.691 2.999 6.259 3.961c6.95.961 9.945-3.961 9.945-3.961H60.745Z" fill="#66192D"/><path d="M82.977 331.089c.077-8.422-.307-44.571-12.057-47.725-13.285-3.576-30.372-10.037-35.364 1.654-4.992 11.729 11.788 47.802 11.788 47.802s.922 3.192 4.34 3.576c3.416.346 45.27 1.615 45.347 0 0-1.038-8.14-3.576-14.054-5.307Z" fill="#FF8548"/><path d="m104.787 257.521 20.082 23.767s-22.808 5.999-22.578 5.614c.23-.384-4.032-25.919-4.032-25.919l6.528-3.462Z" fill="#FDAD9B"/><path d="M124.139 385.851s-.115 4.231 2.65 5.577c2.764 1.346 10.981 2.884 7.756 5.422-1.843 1.461-10.137 0-12.479-.115-2.343-.116-4.608.769-6.297-.885-1.844-1.846.575-10.383.575-10.383s1.959 1.153 3.802 1.23c2.611.039 3.993-.846 3.993-.846ZM147.446 383.775s-.115 4.23 2.65 5.576c2.765 1.346 10.982 2.884 7.756 5.422-1.843 1.462-10.137 0-12.479-.115-2.342-.115-4.608.769-6.297-.884-1.843-1.846.576-10.384.576-10.384s1.958 1.154 3.801 1.231c2.611.038 3.993-.846 3.993-.846Z" fill="#552748"/><path d="M152.784 378.852c-2.074-27.65-2.573-46.263-11.289-58.262-9.561-13.113-35.172-22.381-45.04-22.958-16.127-.962-23.692 1.461-23.692 1.461-12.095 25.189 6.835 28.535 20.85 29.227.46.039.922.039 1.383.077 8.485.539 23.576 2.692 29.258 11.153 4.531 6.691 7.641 16.075 8.985 40.264a8.586 8.586 0 0 0 8.793 8.114s11.52.846 10.752-9.076Z" fill="#66192D"/><path d="M129.937 380.275c.269-27.727 1.152-41.841-7.18-54.147-5.337-7.883-13.362-13.844-23.845-17.69-7.488-2.769-16.28-4.422-26.187-5.038-16.127-.961-23.346-2.884-23.346-2.884-13.055 32.227 34.635 25.382 47.076 39.111 5.414 5.999 12.095 17.382 13.439 41.571a8.586 8.586 0 0 0 8.793 8.115c0 .038 11.135 1.076 11.25-9.038Z" fill="#66192D"/><path d="M129.86 353.048c0-.154-.844-16.613-3.571-22.343-3.494-7.269-13.592-14.845-24.036-18.037l.038-.192c10.483 3.192 20.62 10.845 24.114 18.152 2.764 5.768 3.571 22.266 3.609 22.42h-.154Z" fill="#020202"/><path d="M60.822 249.33s6.834-11.729 22.654-8.114c15.782 3.615 22.232 19.767 23.384 58.569 0 0-14.63-.538-53.065 12.23-4.57 1.499-11.212.307-8.908-7.461 4.377-14.421 8.562-43.225 15.935-55.224Z" fill="#FF443C"/><path d="m43.466 252.753 16.242 3.076s28.414 8.422 36.363 8.499c7.948.077 11.25-5.768 11.25-5.768s-6.412-10.922-19.851-16.037a31.657 31.657 0 0 0-3.955-1.269c-2.343-.615-4.685-1.153-7.066-1.192-26.84-.346-32.983 12.691-32.983 12.691Z" fill="#FF443C"/><path d="M43.466 252.753c-.346 1.269 3.072 3.422 7.603 4.768 4.569 1.346 8.524 1.423 8.87.154.345-1.269-3.072-3.422-7.603-4.768-4.57-1.346-8.524-1.423-8.87-.154Z" fill="#66192D"/><path d="M83.86 304.823s9.139-.538 11.481 1.423c2.342 1.961 3.878 6.268 2.189 5.345-1.728-.922-3.61-2.653-3.61-2.653s3.84 3.961 2.535 4.461c-1.306.5-4.608-2.961-4.608-2.961s4.185 5.076 2.803 5.153c-1.382.077-4.531-3.807-4.531-3.807s3.725 4.884 2.073 4.922c-1.612.039-3.033-4.038-4.338-3.538-1.306.5-5.069 3.384-6.912-.115l2.918-8.23ZM50.186 294.709c6.72 11.037 15.32 15.46 30.718 18.267l2.956-8.191c-11.212-2.038-16.933-10.153-21.464-17.575-6.412-10.499-5.26-23.343-4.3-28.996a1.542 1.542 0 0 0-.538-1.423c-1.42-1.115-5.145-3.346-11.788-3.461-.576 0-1.114.384-1.267.961-2.765 10.499-2.803 26.535 5.683 40.418Z" fill="#FDAD9B"/><path d="M53.565 292.479c-.27 0-.538-.039-.845-.154-.806-.308-1.498-1.077-1.882-2-.69-1.654-.269-3.384.96-3.923a2.037 2.037 0 0 1 1.575.039c.806.308 1.497 1.077 1.881 2 .691 1.653.269 3.384-.96 3.922a2.23 2.23 0 0 1-.73.116Zm-1.037-5.692a1.35 1.35 0 0 0-.538.115c-.96.423-1.228 1.846-.653 3.231.346.807.922 1.461 1.613 1.73.423.154.806.193 1.152.039.96-.423 1.229-1.846.653-3.231-.346-.807-.922-1.461-1.613-1.73a1.208 1.208 0 0 0-.614-.154Z" fill="#E08B65" opacity=".3"/><path d="m84.513 235.716-.077-.153s1.843-.693 2.227-2.077c.192-.692-.038-1.461-.691-2.269-.307-.385-.576-.731-.845-1.038-1.766-2.154-2.419-2.961-2.265-4.923h.153c-.153 1.885.461 2.615 2.227 4.807.27.308.538.654.845 1.039.691.846.922 1.653.73 2.422-.384 1.423-2.227 2.154-2.304 2.192Z" fill="#66192D"/><path d="M82.939 225.256s-.27 3.038 2.073 5.923c2.342 2.845.5 5.383-2.304 4.537-2.803-.846-3.379 2.654-7.026 1.231-3.61-1.461 7.257-11.691 7.257-11.691Z" fill="#66192D"/><path d="M68.885 240.293c1.46-.346 2.611-1.385 3.033-2.807l1.268-4.461.384-1.308 2.188-7.653.423 7.615.268 4.576.077 1.269c.077 1.077.999 2.615 2.074 2.654 0 0 1.612 1.884-.576 2.884-2.573 1.192-7.296-.462-9.177-2.769h.038Z" fill="#FDAD9B"/><path d="M73.186 232.909c0 .039 0 .077.038.116.5 2.422 3.225 3.192 3.225 3.192l-.268-4.577c-.845-.192-1.997-.346-2.611.077-.308.231-.461.577-.384 1.192Z" fill="#66192D"/><path d="M83.36 224.295c-.613-4.807-4.261-8.345-8.178-7.845-3.916.5-6.566 4.807-5.951 9.652.614 4.807 4.262 8.345 8.178 7.845 3.878-.499 6.566-4.807 5.952-9.652Z" fill="#FDAD9B"/><path d="M70.344 227.333c.883.654 2.035.615 2.535-.154.499-.731.153-1.884-.73-2.538-.883-.654-2.035-.615-2.534.154-.5.73-.192 1.846.73 2.538Z" fill="#FDAD9B"/><path d="M76.987 225.218c.038 0 .077-.077.077-.115.038-.077-.039-.193-.115-.193-.039 0-1.19-.423-2.035.731-.039.077-.039.193.038.231.077.039.154.039.23-.038.692-.578 1.651-.616 1.69-.616h.115ZM75.912 227.141c.038.384.307.692.576.654.269-.039.46-.347.422-.731-.038-.385-.307-.692-.576-.654-.23 0-.422.346-.422.731ZM82.823 225.334c.039 0 .116-.039.116-.077.038-.077.038-.154-.039-.231-.038-.039-.96-.847-2.15-.077-.077.038-.115.154-.038.231.038.077.153.077.23.038.845-.308 1.766.039 1.766.077.039 0 .077.039.115.039ZM81.134 226.718c-.115.384 0 .73.269.807.268.077.576-.154.69-.538.116-.385 0-.731-.268-.808-.269-.077-.576.154-.691.539Z" fill="#060633"/><path d="M78.37 217.68s.23 3.038-3.495 4.038c-3.724 1-6.105 2.923-5.26 5.615.845 2.654 7.68 7.538 3.456 10.306-4.186 2.769-3.763-1.461-8.486.116-4.723 1.576-6.451-4.807-3.571-8.999 2.841-4.192.23-13.998 12.824-15.152 12.595-1.154 9.293 9.422 9.293 9.422s-4.34-2-4.762-5.346Z" fill="#66192D"/><path d="m71.88 238.37-.038-.077c.883-.5 1.344-1.077 1.459-1.846.269-2.038-2.458-4.807-4.877-7.23-.652-.653-1.228-1.269-1.804-1.846-1.498-1.615-1.882-3.768-.999-5.537.999-2 3.226-3.077 5.798-2.808 2.496.269 4.109-.461 5.03-1.115.999-.692 1.383-1.461 1.383-1.5l.077.039c0 .038-1.652 3.153-6.49 2.653-2.534-.269-4.722.808-5.682 2.731-.884 1.769-.5 3.807.998 5.422.537.577 1.152 1.192 1.805 1.846 2.419 2.423 5.183 5.192 4.914 7.307-.153.807-.69 1.461-1.574 1.961Z" fill="#fff"/><path d="m80.136 228.064.115-.116c-.192-.692-.23-1.423-.192-2.192-.039-.038-.115-.077-.269-.115-.038.846.115 1.692.346 2.423Zm-.308-.654c.039.269.116.538.192.807.346 1.269 1.037 2.269 1.92 2.692.346.154.73.231 1.114.193.269-.039.499-.116.73-.231.23-.115.46-.269.652-.5.154-.154.346-.346.5-.577.46-.615.767-1.461.96-2.384.498-2.654-.462-5.461-2.074-6.192a2.649 2.649 0 0 1-.307-.115 1.718 1.718 0 0 0-1.076 0c-.153.038-.307.115-.46.192a1.46 1.46 0 0 0-.5.346c-.076.077-.153.154-.268.231-.653.654-1.114 1.692-1.344 2.884-.039.116-.039.193-.039.308v.038c-.038.193-.038.385-.076.616-.039.538-.039 1.153.076 1.692Zm5.837-.731c0 .231-.039.462-.077.654-.153.846-.46 1.615-.845 2.192l-.46.577a2.518 2.518 0 0 1-.653.461c-.5.231-1.037.269-1.536.077 0 0-.038 0-.038-.038-.845-.385-1.498-1.423-1.805-2.654-.192-.692-.23-1.423-.192-2.192 0-.192.038-.423.077-.615 0-.116.038-.231.038-.346.192-1.154.691-2.154 1.305-2.769.192-.192.423-.346.653-.5.154-.077.307-.115.461-.154.077-.038.154-.038.23-.038.23 0 .423 0 .653.077.077.038.154.038.23.076 1.344.654 2.19 2.885 1.959 5.192Z" fill="#6F4975"/><path d="M71.458 224.103c-.23 2.576.998 5.114 2.803 5.73 1.804.577 3.456-1 3.686-3.577.23-2.576-.998-5.115-2.803-5.73-1.805-.577-3.456 1-3.686 3.577ZM79.79 224.949c-.23 2.576.845 5.191 2.457 5.845 1.613.654 3.11-.923 3.38-3.499.23-2.577-.845-5.192-2.458-5.846-1.613-.654-3.11.923-3.379 3.5Z" fill="#fff" opacity=".3"/><path d="M71.304 225.602c.115.769.384 1.5.691 2.115.538.962 1.267 1.731 2.112 2.077.039.039.115.039.192.077.384.115.768.154 1.152.115.23-.038.423-.077.614-.153.154-.077.346-.154.5-.27 1.036-.653 1.69-1.961 1.843-3.576 0-.154.038-.308.038-.423v-.615c-.077-1.616-.691-3.154-1.651-4.115a3.588 3.588 0 0 0-1.46-.962c-.805-.269-1.573-.154-2.303.308-.921.615-1.574 1.73-1.805 3.115-.038.154-.038.308-.076.461 0 .154-.039.308-.039.5.077.423.115.923.192 1.346Zm5.913 2.961c-.23.308-.499.539-.768.731-.115.077-.23.116-.345.192a2.321 2.321 0 0 1-1.69.077c-.076-.038-.115-.038-.192-.077-.768-.307-1.42-.999-1.92-1.845a6.831 6.831 0 0 1-.767-3.346c0-.192 0-.346.038-.539.038-.269.077-.5.115-.73.039-.154.077-.346.115-.5.077-.269.192-.539.308-.769.307-.577.69-1.039 1.151-1.346.308-.193.653-.346.999-.385.345-.038.69 0 1.037.115.46.154.921.462 1.305.847.922.922 1.536 2.422 1.574 3.999v.615c0 .116 0 .231-.038.346-.077 1-.422 1.923-.922 2.615 0-.038 0-.038 0 0Z" fill="#6F4975"/><path d="M80.25 225.834c-.076 0-.153 0-.191-.039-.039-.038-.883-.538-2.15-.115-.154.038-.308-.039-.385-.193-.038-.154.039-.307.192-.384 1.536-.539 2.612.115 2.65.154.153.076.192.269.077.423-.039.077-.115.154-.192.154Z" fill="#6F4975"/><path d="M78.177 231.564c-.921 0-1.728-.424-1.766-.424-.115-.077-.154-.192-.115-.307.077-.116.192-.154.307-.116 0 0 1.651.847 2.803 0 .115-.077.23-.038.307.039.077.115.039.231-.038.307-.5.385-.998.501-1.498.501Z" fill="#66192D"/><path d="m95.533 399.811-.5-.038c-.383-.039-.652-.654-.652-1.423l3.802-94.065 7.257-3.577-8.793 97.219c-.039 1.115-.538 1.961-1.114 1.884Z" fill="#552748"/><path d="M317.356 305.285c0 6.614-53.603 11.998-119.762 11.998-66.159 0-119.762-5.384-119.762-11.998 0-6.615 53.603-11.999 119.762-11.999 66.159 0 119.762 5.384 119.762 11.999Z" fill="#FF8548"/><path d="M317.356 299.747H77.87v5.538h239.486v-5.538Z" fill="#FF8548"/><path d="M197.632 311.745c66.143 0 119.762-5.372 119.762-11.998 0-6.627-53.619-11.999-119.762-11.999S77.87 293.12 77.87 299.747c0 6.626 53.619 11.998 119.762 11.998Z" fill="#FFBA41"/><path d="M297.043 306.785a.375.375 0 0 1-.384-.308c-.038-.192.115-.385.307-.423.116 0 11.75-1.846 16.089-3.538.192-.077.422.038.499.231.077.192-.038.423-.23.5-4.454 1.692-15.782 3.499-16.242 3.576 0-.038 0-.038-.039-.038Z" fill="#42428E"/><path d="M103.52 298.209h29.067c.614 0 1.152-.385 1.344-.962l6.028-18.074a1.403 1.403 0 0 0-1.344-1.846h-27.953c-1.267 0-2.419.807-2.803 2l-5.683 17.036c-.307.884.384 1.846 1.344 1.846Z" fill="#66192D"/><path d="M105.363 298.209h29.067c.614 0 1.152-.385 1.344-.962l6.028-18.074a1.403 1.403 0 0 0-1.344-1.846h-27.953c-1.267 0-2.419.807-2.803 2l-5.683 17.036c-.307.884.384 1.846 1.344 1.846Z" fill="#66192D"/><path d="M125.714 287.171c0-.692-.807-.961-1.498-.961s-1.805.769-1.805 1.731c0 1.038.807 1.153 1.498 1.153.729 0 1.805-1.076 1.805-1.923Z" fill="#DEEBE9"/><path d="M94.65 295.632h39.78v2.538H93.805a.853.853 0 0 1-.845-.846c0-.923.768-1.692 1.69-1.692ZM107.436 286.441l-.192-.039c.077-.23 1.459-5.422 2.381-7.114.96-1.692 2.112-2.038 2.15-2.077l.039.193s-1.152.346-2.035 1.961c-.922 1.654-2.343 7.037-2.343 7.076Z" fill="#66192D"/><path d="M103.136 295.747v-.192c.96 0 1.19-.384 1.19-.384l2.266-6.769.192.077-2.266 6.769c-.038 0-.307.499-1.382.499ZM248.432 395.196s-.192 4.038-2.918 5.115c-2.765 1.077-10.675 1.961-7.756 4.615 1.651 1.538 9.637.731 11.903.769 2.265.039 4.339 1.077 6.067-.385 1.881-1.615.192-9.921.192-9.921s-1.959.961-3.725.884c-2.534-.154-3.763-1.077-3.763-1.077ZM224.395 399.311s-.23 4.038-2.995 5.077c-2.765 1.038-10.674 1.845-7.795 4.499 1.651 1.538 9.638.846 11.904.884 2.265.077 4.339 1.116 6.066-.346 1.882-1.615.308-9.921.308-9.921s-1.959.961-3.725.846c-2.534-.077-3.763-1.039-3.763-1.039Z" fill="#66192D"/><path d="M226.238 402.657a8.78 8.78 0 0 1-7.756-9.306c1.805-26.42 4.262-39.726 13.17-50.763 5.721-7.076 14.092-13.806 24.114-17.46 8.639-3.153 15.935-4.499 25.381-4.23 15.435.423 22.462 3.346 22.462 3.346 9.446 24.958-8.87 26.612-22.27 26.112-.461 0-.884-.038-1.344-.038-8.141-.193-22.655.615-28.798 8.191-4.839 5.999-8.602 14.69-11.865 37.61-.615 4.384-4.608 7.499-9.024 7l-4.07-.462Z" fill="#FF443C"/><path d="M249.507 398.004c-4.646-.539-8.102-4.346-7.833-8.576 1.459-24.074 3.725-36.188 12.479-46.11 5.606-6.383 13.67-10.844 23.922-13.267 7.295-1.731 15.82-2.423 25.266-2.077 15.397.577 22.424-.461 22.424-.461 10.329 40.533-34.75 18.997-47.498 29.804-5.568 4.73-12.748 13.998-15.666 34.88-.576 3.999-4.531 6.807-8.908 6.268l-4.186-.461Z" fill="#FF443C"/><path d="m242.135 381.429-.192-.039c0-.077 1.228-6.037 6.22-12.306 2.918-3.692 6.605-6.73 10.867-9.076 5.337-2.922 11.634-4.73 18.776-5.383v.192c-16.05 1.461-24.92 8.614-29.489 14.383-4.992 6.23-6.182 12.19-6.182 12.229Z" fill="#020202"/><path d="m296.198 253.714-1.497-6.422-.422-1.884-2.535-10.999-1.228 10.652-.73 6.423-.23 2.038c-.154 1.384-1.037 1.615-2.112 2.73-.461.462-3.302 3.192-.423 4.769 3.61 1.923 10.829-.077 13.708-3.153 0 0-4.07-2.077-4.531-4.154Z" fill="#FDAD9B"/><path d="M282.567 236.524c1.306-6.268 6.528-10.46 11.712-9.383 5.183 1.076 8.332 6.999 7.026 13.267-1.305 6.269-6.527 10.46-11.711 9.384-5.145-1.077-8.294-6.999-7.027-13.268Z" fill="#FDAD9B"/><path d="M286.868 234.063c-5.491-.192-7.872-3.538-7.718-6.461.192-3.769 2.803-6.884 5.414-5.307 2.611 1.577 1.728-1.923 4.377-2.077 4.992-.307 5.645 3.269 9.677 3.731 5.298.615 10.712 9.922 5.798 16.075-.039 0-13.209-5.807-17.548-5.961Z" fill="#66192D"/><path d="M282.299 229.948s5.414 6.038 4.415 9.153c-.998 3.115-.883 4.345 2.381 6.307 3.264 1.961.077 4.461 4.608 4.999 4.531.538 10.482-4.423 11.135-13.268.345-4.922-2.227-8.345-2.227-8.345l-20.312 1.154Z" fill="#66192D"/><path d="M283.758 238.716c.729-.884 1.958-1.076 2.764-.423.807.654.845 1.923.116 2.808-.73.884-1.959 1.076-2.765.423-.768-.654-.845-1.885-.115-2.808Z" fill="#FDAD9B"/><path d="M303.225 238.793c-.038 0-.115-.038-.115-.077-.422-1.154-1.651-1.654-1.651-1.654-.077-.038-.115-.115-.077-.192.038-.077.115-.115.192-.077.038.039 1.344.577 1.805 1.846.038.077 0 .154-.077.192-.038-.038-.038-.038-.077-.038ZM301.382 236.37c-.077 0-.115-.038-.153-.115 0-.077.038-.154.115-.154 0 0 1.459-.308 1.497-1.5 0-.077.077-.153.154-.153s.153.076.153.153c-.038 1.385-1.689 1.731-1.766 1.769.039 0 .039 0 0 0ZM284.986 221.565c-.115 0-.23-.039-.384-.077-.46-.193-.806-.462-1.113-.731-.615-.5-1.114-.923-2.342-.615-.077.038-.154-.039-.192-.116 0-.077.038-.153.115-.192 1.344-.346 1.996.192 2.611.654.307.231.614.5 1.037.654.23.076.422.076.576-.039.691-.384.96-1.884.96-1.884 0-.077.076-.116.153-.116s.154.077.115.154c0 .077-.307 1.654-1.075 2.115a.607.607 0 0 1-.461.193ZM298.694 222.295c-2.188 0-3.801-1.73-3.878-1.807-.038-.077-.038-.154 0-.193.077-.038.154-.038.192 0 0 .039 1.766 1.885 3.955 1.731.077 0 .154.038.154.154 0 .077-.039.154-.154.154-.038-.039-.153-.039-.269-.039ZM285.102 242.023c-.308 0-.5-.076-.5-.076-.038 0-.038-.039-.038-.077 0-.039.038-.039.077-.039.038.039 1.19.5 2.15-1.115 0-.039.077-.039.077-.039a.121.121 0 0 1 .038.077c-.576 1.077-1.305 1.269-1.804 1.269Z" fill="#66192D"/><path d="M294.624 254.445c-24.113 0-28.798 15.921-28.798 15.921s7.641 2.192 7.603 4.692c-.077 8.537-5.376 32.65-4.262 47.417 0 0 25.688 42.802 59.362 6.999-.038 0 13.746-75.029-33.905-75.029Z" fill="#552748"/><path d="M300.691 398.811h4.224v-46.378l-2.765 3.076-1.459 43.302Z" fill="#66192D"/><path d="M290.055 401.349s19.045.347 25.381.385c.691 0 1.19-.961 1.19-1.654 0-.692-1.037-1.538-1.728-1.538-6.22.039-24.881.269-24.881.269a1.28 1.28 0 0 0-1.268 1.269c.039.693.615 1.269 1.306 1.269Z" fill="#66192D"/><path d="M315.743 403.618c-.231-1.384-1.459-2.269-2.88-2.269-1.421 0-2.88.923-2.88 2.346 0 1.769 1.767 3 3.187 3 1.421 0 2.842-1.308 2.573-3.077ZM295.431 403.618c-.231-1.384-1.46-2.269-2.88-2.269-1.421 0-2.88.923-2.88 2.346 0 1.769 1.766 3 3.187 3 1.421 0 2.841-1.308 2.573-3.077ZM311.289 355.278s.691 3.038-6.336 4c-7.027.961-10.06-4-10.06-4h16.396Z" fill="#66192D"/><path d="M294.317 350.587c-.077-8.499 1.229-42.918 13.324-45.187 4.761-.884 21.541-3.038 23.806 4.153 3.84 12.306-6.604 42.841-6.604 42.841s-.96 3.23-4.377 3.615c-3.456.346-45.463 1.577-45.885 0-1.613-6.191 13.708-3.692 19.736-5.422Z" fill="#FF8548"/><path d="M287.329 274.827c-.192 1-5.184.808-11.136-.423-5.951-1.231-10.597-3.038-10.405-4.038.192-1 5.183-.808 11.135.423 5.99 1.231 10.636 3.038 10.406 4.038Z" fill="#66192D"/><path d="M229.54 303.362c-2.572-1.269.768-10.345.768-10.345.576-.769 16.818 6.768 29.451-2.5 4.493-3.307 7.564-17.459 7.603-18.92 0-.116 3.302-.808 8.716.23 4.454.846 8.908 3.615 8.908 3.615-.115 2.692-2.419 13.575-6.143 20.382-7.718 14.152-34.251 17.998-49.303 7.538Z" fill="#F18C7E"/><path d="M262.14 301.824c-.538 0-1.037-.193-1.382-.577-.807-.885-.423-2.5.806-3.615.576-.539 1.267-.885 1.958-.962.73-.115 1.344.116 1.728.539.384.461.538 1.077.346 1.769-.154.654-.576 1.307-1.152 1.846-.691.654-1.575 1-2.304 1Zm1.766-4.615h-.269c-.576.077-1.152.384-1.651.807-.998.923-1.344 2.154-.768 2.808.576.654 1.882.423 2.88-.462.499-.461.845-1 .998-1.576.116-.5.039-.962-.23-1.269a1.776 1.776 0 0 0-.96-.308Z" fill="#E08B65" opacity=".5"/><path d="M227.083 297.555c-.422.731-1.382 1-2.112.577l-9.599-5.615c-.73-.423-.999-1.384-.576-2.115.422-.731 1.382-1 2.112-.577l9.599 5.615c.768.423 1.037 1.384.576 2.115ZM229.08 294.132c-.423.731-1.383 1-2.112.577l-12.479-7.268c-.73-.423-.999-1.385-.576-2.115.422-.731 1.382-1 2.111-.577l12.48 7.268c.768.462.998 1.385.576 2.115ZM236.222 297.093l-.5.193c-.96.384-2.035-.116-2.419-1.077l-3.647-9.307c-.384-.961.115-2.038 1.075-2.422l.499-.193c.96-.384 2.035.116 2.419 1.077l3.648 9.307c.384.961-.115 2.038-1.075 2.422Z" fill="#F18C7E"/><path d="M231.076 290.748c-.422.731-1.382 1-2.112.577l-10.175-5.922c-.73-.424-.998-1.385-.576-2.116.422-.73 1.382-.999 2.112-.576l10.175 5.922c.73.423.999 1.384.576 2.115Z" fill="#F18C7E"/><path d="M232.228 303.67s-8.793.038-12.671-4.884c-1.344-1.693 2.227-12.96 4.646-12.768 2.419.192 11.443 6.191 11.443 6.191l-3.418 11.461Z" fill="#F18C7E"/><path d="m225.163 300.901-.038.077c-.423.692-1.306.961-2.035.538l-7.757-4.538c-.691-.423-.96-1.307-.537-2.038l.038-.077c.423-.692 1.306-.961 2.035-.538l7.757 4.537c.729.423.959 1.346.537 2.039Z" fill="#F18C7E"/><path d="M127.71 272.443c-.038 0-.115 0-.153-.039a.202.202 0 0 1-.039-.307s.461-.616 1.114-1.731c.076-.115.192-.154.307-.077.115.077.153.192.077.308-.692 1.153-1.114 1.769-1.152 1.769 0 .038-.077.077-.154.077Zm2.189-3.577c-.039 0-.077 0-.115-.038-.116-.077-.154-.193-.077-.308.307-.615.653-1.231.921-1.846.039-.115.192-.154.308-.115.115.038.153.192.115.307a29.195 29.195 0 0 1-.96 1.885.211.211 0 0 1-.192.115Zm1.804-3.769h-.076c-.116-.038-.154-.192-.116-.307.269-.616.538-1.269.768-1.923a.263.263 0 0 1 .308-.154c.115.039.192.192.153.308-.23.654-.499 1.307-.768 1.961-.115.038-.192.115-.269.115Zm1.46-3.922h-.077c-.115-.039-.192-.154-.154-.308.231-.654.423-1.346.615-2 .038-.115.153-.192.268-.153.116.038.192.153.154.269-.192.654-.422 1.346-.614 2 0 .115-.077.192-.192.192Zm1.152-4.038h-.039c-.115-.039-.192-.154-.153-.269.153-.693.307-1.346.46-2.038a.29.29 0 0 1 .269-.193.29.29 0 0 1 .192.269c-.154.693-.307 1.385-.461 2.039a.288.288 0 0 1-.268.192Zm.844-4.115c-.153-.038-.269-.154-.23-.269.115-.692.192-1.385.269-2.077 0-.115.115-.231.268-.192.116 0 .231.115.192.269-.076.692-.192 1.385-.307 2.077 0 .115-.077.192-.192.192Zm.499-4.153c-.153 0-.23-.116-.23-.231l.115-2.077c0-.115.115-.23.231-.23.115 0 .23.115.23.23l-.115 2.115c-.039.116-.115.193-.231.193Zm.116-4.192a.248.248 0 0 1-.231-.231c0-.692-.038-1.384-.077-2.076 0-.116.077-.231.231-.231.115 0 .23.077.23.231.039.692.039 1.422.077 2.115 0 .115-.077.192-.23.192Zm-.192-4.153c-.116 0-.231-.077-.231-.193l-.23-2.076a.29.29 0 0 1 .192-.27.29.29 0 0 1 .269.193c.076.692.192 1.384.23 2.076 0 .154-.077.231-.23.27Zm-.576-4.154c-.116 0-.192-.077-.231-.192a31.465 31.465 0 0 0-.422-2.038c-.038-.116.038-.231.192-.269.115-.039.23.038.269.192.153.692.307 1.384.422 2.077.038.115-.077.23-.192.269 0-.039-.038-.039-.038-.039Zm-.883-4.076c-.116 0-.192-.077-.231-.192-.192-.654-.384-1.346-.576-2a.263.263 0 0 1 .154-.308c.115-.038.269.039.307.154.192.654.384 1.346.576 2.038.038.116-.039.269-.154.269-.038.039-.076.039-.076.039Zm-1.229-4c-.077 0-.192-.077-.231-.153-.23-.654-.46-1.308-.729-1.962-.039-.115 0-.269.115-.307.115-.039.269 0 .307.115.269.654.499 1.308.73 1.961a.263.263 0 0 1-.154.308l-.038.038Zm-1.536-3.922c-.077 0-.192-.039-.23-.154-.269-.615-.576-1.269-.845-1.884-.039-.116 0-.27.115-.308.115-.039.269 0 .307.115.307.616.576 1.269.883 1.923.039.116 0 .269-.115.308h-.115Zm-1.843-3.73a.21.21 0 0 1-.192-.116 20.13 20.13 0 0 0-1.19-1.692c-.077-.115-.077-.231.038-.308.115-.077.23-.077.307.039a16.12 16.12 0 0 1 1.229 1.73c.077.116.038.27-.077.308 0 0-.038.039-.115.039Zm-2.573-3.308c-.077 0-.115-.038-.153-.077-.461-.461-.96-.961-1.498-1.461a.243.243 0 0 1 0-.346.242.242 0 0 1 .346 0c.537.5 1.036 1 1.497 1.461.077.077.077.231 0 .346-.077.077-.115.077-.192.077Zm-3.072-2.807c-.038 0-.115 0-.153-.039-.499-.423-1.075-.846-1.651-1.269a.204.204 0 0 1-.039-.307.202.202 0 0 1 .307-.039c.576.423 1.152.885 1.652 1.308a.203.203 0 0 1 .038.307c-.038 0-.077.039-.154.039Zm-3.34-2.5c-.039 0-.077 0-.115-.038-.538-.385-1.114-.769-1.728-1.192-.115-.077-.154-.231-.077-.308.077-.115.23-.154.307-.077.614.423 1.19.808 1.728 1.192a.204.204 0 0 1 .038.308c-.038.077-.076.115-.153.115Zm-3.494-2.346c-.039 0-.077 0-.116-.038-.576-.385-1.151-.731-1.766-1.115-.115-.077-.153-.231-.077-.308.077-.115.231-.154.308-.077.614.385 1.19.769 1.766 1.115.115.077.153.231.077.308a.212.212 0 0 1-.192.115Zm-3.533-2.23c-.038 0-.077 0-.115-.039-.576-.346-1.19-.73-1.766-1.076-.116-.077-.154-.193-.077-.308.077-.115.192-.154.307-.077.614.385 1.19.731 1.766 1.115.115.077.154.193.077.308a.294.294 0 0 1-.192.077Zm-3.571-2.192c-.038 0-.077 0-.115-.039l-1.805-1.076c-.115-.077-.153-.193-.077-.308.077-.115.192-.154.308-.077l1.804 1.077c.115.077.154.192.077.307a.21.21 0 0 1-.192.116Zm-3.571-2.192c-.038 0-.077 0-.115-.039-.576-.346-1.19-.73-1.766-1.115-.116-.077-.154-.192-.077-.308.077-.115.192-.153.307-.076.576.384 1.19.73 1.766 1.115.116.077.154.192.077.307a.21.21 0 0 1-.192.116Zm-3.571-2.192c-.038 0-.077 0-.115-.039-.576-.384-1.19-.73-1.766-1.115-.116-.077-.154-.231-.077-.308.077-.115.23-.153.307-.076.576.384 1.19.769 1.766 1.115.116.077.154.23.077.307a.21.21 0 0 1-.192.116Zm-3.494-2.269c-.038 0-.077 0-.115-.039l-1.728-1.153c-.115-.077-.115-.231-.077-.308.077-.115.23-.115.307-.077l1.728 1.154c.115.077.154.231.077.307a.212.212 0 0 1-.192.116Zm-3.456-2.384c-.038 0-.077 0-.115-.039-.576-.423-1.152-.808-1.69-1.231a.203.203 0 0 1-.038-.307.202.202 0 0 1 .307-.039c.538.385 1.114.808 1.69 1.231a.204.204 0 0 1 .038.308c-.077.038-.115.077-.192.077Zm-3.379-2.462c-.038 0-.115 0-.153-.038-.576-.423-1.114-.885-1.652-1.308-.115-.077-.115-.23-.038-.346.077-.115.23-.115.346-.038.537.423 1.075.846 1.65 1.307a.204.204 0 0 1 .04.308.21.21 0 0 1-.193.115Zm-3.225-2.653c-.039 0-.115 0-.154-.039a57.917 57.917 0 0 1-1.574-1.384.243.243 0 0 1 0-.346.241.241 0 0 1 .346 0c.499.461 1.036.923 1.574 1.384.115.077.115.231.038.346-.115 0-.192.039-.23.039Zm-3.11-2.846c-.077 0-.116-.038-.154-.077-.5-.5-.998-1-1.46-1.5-.076-.077-.076-.23 0-.346.078-.077.231-.077.347 0 .46.5.96 1 1.459 1.5.076.077.076.231 0 .346a.29.29 0 0 1-.192.077Zm-2.842-3.038c-.077 0-.115-.039-.192-.077a49.852 49.852 0 0 1-1.344-1.615c-.077-.116-.077-.231.039-.308.115-.077.23-.077.307.039.422.538.845 1.076 1.305 1.615.077.115.077.231-.038.346.038-.039 0 0-.077 0Zm-2.534-3.346a.21.21 0 0 1-.192-.115 23.057 23.057 0 0 1-1.152-1.769c-.077-.116-.038-.269.077-.308.115-.077.269-.038.307.077.346.577.73 1.154 1.152 1.731.077.115.038.269-.077.307-.038.077-.077.077-.115.077Zm-2.189-3.538a.21.21 0 0 1-.192-.115 21.278 21.278 0 0 1-.921-1.885c-.039-.115 0-.269.115-.307.115-.039.269 0 .307.115.269.615.576 1.269.922 1.884.076.116 0 .27-.115.308-.039-.038-.077 0-.116 0Zm-1.69-3.846c-.076 0-.191-.076-.23-.153a40.42 40.42 0 0 1-.652-2c-.039-.115.038-.269.153-.269.115-.039.269.038.269.154.192.653.384 1.307.653 1.961.038.115 0 .269-.154.307h-.038Zm13.478-2.268c-.422 0-.883 0-1.344-.039a.248.248 0 0 1-.23-.231c0-.115.115-.23.23-.23.692.038 1.383.077 2.074.038.115 0 .23.077.23.231 0 .115-.076.231-.23.231h-.73Zm2.803-.231c-.115 0-.192-.077-.23-.192-.038-.116.077-.231.192-.27a16.75 16.75 0 0 0 1.997-.461c.115-.039.268.038.307.154.038.115-.039.269-.154.307-.652.193-1.344.385-2.073.5 0-.038 0-.038-.039-.038Zm-6.22-.077h-.038a19.772 19.772 0 0 1-2.074-.462c-.115-.038-.192-.153-.153-.269.038-.115.153-.192.268-.154.691.193 1.344.346 2.035.462a.289.289 0 0 1 .192.269c-.038.077-.115.154-.23.154ZM82.9 170.84h-.077c-.652-.231-1.305-.5-1.958-.769-.115-.038-.153-.192-.115-.308.038-.115.192-.154.307-.115.653.269 1.306.538 1.92.769a.262.262 0 0 1 .154.308c-.039.077-.154.115-.23.115Zm14.246-.077a.21.21 0 0 1-.192-.115c-.039-.116 0-.269.115-.308.346-.154.73-.346 1.075-.577.23-.154.5-.307.73-.423.115-.077.268-.038.307.077.077.116.038.269-.077.308-.23.154-.5.308-.73.461-.345.193-.73.385-1.113.577h-.115Zm-21.388-.269c-.115 0-.192-.077-.23-.192a19.563 19.563 0 0 1-.346-2.077c0-.115.077-.231.192-.269.116 0 .23.077.27.192.076.692.191 1.385.345 2.038.038.116-.039.231-.192.27l-.039.038Zm3.303-1.308c-.039 0-.077 0-.116-.038-.614-.308-1.228-.654-1.843-1-.115-.077-.153-.192-.077-.308.077-.115.192-.153.308-.076.614.346 1.228.692 1.804.999.115.077.154.193.115.308a.21.21 0 0 1-.191.115Zm21.617-.653a.299.299 0 0 1-.192-.077c-.076-.116-.076-.231.039-.308.537-.423 1.075-.884 1.536-1.384.076-.077.23-.077.345 0 .077.077.077.23 0 .346-.499.5-1.037.961-1.574 1.384-.039.039-.115.039-.154.039Zm-25.227-1.462c-.038 0-.077 0-.115-.038-.576-.385-1.152-.769-1.728-1.192a.204.204 0 0 1-.038-.308.203.203 0 0 1 .307-.038l1.152.807c-.039-.038-.039-.077-.039-.154-.038-.576-.038-1.192-.038-1.807v-.308c0-.115.115-.23.23-.23s.23.115.23.23v.308c0 .577 0 1.192.04 1.769 0 .115-.078.231-.231.231h-.077c.153.115.307.192.46.307.116.077.154.231.078.308-.077.077-.154.115-.23.115Zm28.222-1.461c-.038 0-.115 0-.153-.038a.203.203 0 0 1-.039-.308 25.95 25.95 0 0 0 1.229-1.654c.077-.115.23-.154.307-.077.115.077.154.231.077.308a26.77 26.77 0 0 1-1.229 1.692.63.63 0 0 1-.192.077Zm-31.6-1c-.04 0-.116 0-.154-.038-.538-.423-1.076-.885-1.613-1.346-.077-.077-.115-.231-.039-.346.077-.077.23-.116.346-.039.538.462 1.037.923 1.574 1.346a.204.204 0 0 1 .039.308c0 .077-.077.115-.154.115Zm3.186-2.423c-.038 0-.038 0 0 0-.153 0-.23-.115-.23-.269.038-.692.115-1.384.23-2.077a.21.21 0 0 1 .269-.192.21.21 0 0 1 .192.269l-.23 2.077c-.039.077-.116.192-.23.192Zm30.68-.077c-.039 0-.077 0-.115-.038-.116-.077-.154-.192-.116-.308.308-.615.615-1.23.845-1.884.038-.115.192-.192.307-.115.115.038.192.192.115.307-.268.654-.537 1.308-.883 1.923 0 .077-.076.115-.153.115Zm-36.977-.269c-.077 0-.115-.038-.154-.077-.499-.461-.998-1-1.497-1.499-.077-.077-.077-.231 0-.347.077-.077.23-.077.345 0 .5.5.96 1 1.46 1.462.076.077.076.231 0 .346-.039.077-.116.115-.154.115Zm-2.88-3.038c-.077 0-.115-.038-.192-.077a49.852 49.852 0 0 1-1.344-1.615c-.077-.115-.077-.231.039-.308.115-.076.23-.076.307.039.422.538.883 1.077 1.344 1.577.076.115.076.23-.039.346-.038 0-.076.038-.115.038Zm41.393-.577h-.077c-.115-.038-.192-.153-.154-.269.192-.654.346-1.346.499-2a.29.29 0 0 1 .269-.192.29.29 0 0 1 .192.269 30.969 30.969 0 0 1-.499 2.038.258.258 0 0 1-.23.154Zm-31.678-.192h-.039a.289.289 0 0 1-.192-.269 17.44 17.44 0 0 1 .461-2.038c.038-.116.154-.193.269-.154.115.038.192.154.153.269-.153.692-.307 1.346-.46 2.038.038.077-.077.154-.192.154Zm-12.364-2.461a.295.295 0 0 1-.192-.077c-.423-.577-.845-1.115-1.229-1.692-.077-.116-.038-.269.077-.308.115-.077.269-.038.307.077.384.577.806 1.154 1.229 1.692.077.116.038.231-.039.308-.076-.039-.115 0-.153 0Zm44.848-1.462c-.154 0-.23-.115-.23-.269a38.12 38.12 0 0 0 .153-2.076c0-.116.115-.231.231-.231.115 0 .23.115.23.231-.038.692-.077 1.422-.154 2.115 0 .154-.115.23-.23.23Zm-31.448-.153h-.076c-.116-.039-.192-.154-.154-.308.192-.654.422-1.346.653-2a.262.262 0 0 1 .307-.154c.115.039.192.193.154.308-.23.654-.461 1.308-.653 1.961-.039.154-.154.193-.23.193Zm-15.781-1.846a.212.212 0 0 1-.192-.116c-.384-.577-.73-1.192-1.075-1.807-.077-.115-.038-.269.077-.308.115-.077.268-.038.307.077.346.577.691 1.192 1.075 1.769.077.116.038.269-.077.308-.038.077-.077.077-.115.077Zm17.164-2.077h-.077c-.115-.038-.192-.192-.115-.308.269-.653.537-1.307.806-1.922.038-.116.192-.154.307-.116.115.039.154.192.115.308a98.617 98.617 0 0 1-.806 1.923c-.038.038-.153.115-.23.115Zm30.219-.077a.248.248 0 0 1-.231-.231 38.12 38.12 0 0 0-.153-2.076c0-.116.076-.231.192-.269.115 0 .23.076.268.192.077.692.116 1.423.154 2.115.038.154-.077.231-.23.269.038 0 .038 0 0 0Zm-49.495-1.461a.212.212 0 0 1-.192-.116c-.307-.615-.653-1.269-.921-1.884-.039-.115 0-.269.115-.308.115-.038.269 0 .307.116.307.615.614 1.269.921 1.884.077.115 0 .269-.115.308-.038-.039-.076 0-.115 0Zm172.943-.346c-.692 0-1.421-.039-2.112-.116a.21.21 0 0 1-.192-.269.21.21 0 0 1 .269-.192c.691.077 1.382.077 2.073.115.115 0 .23.116.23.231-.038.115-.153.231-.268.231Zm2.073-.077c-.115 0-.23-.077-.23-.231a.29.29 0 0 1 .192-.269 32.933 32.933 0 0 0 2.035-.269c.115-.039.23.077.269.192.038.115-.077.231-.192.269a29.96 29.96 0 0 1-2.074.308Zm-6.259-.308h-.038a20.09 20.09 0 0 1-2.074-.461c-.115-.039-.192-.154-.153-.27.038-.115.153-.192.269-.153a17.35 17.35 0 0 0 2.035.461.29.29 0 0 1 .192.269c0 .077-.115.154-.231.154Zm10.368-.461c-.116 0-.192-.077-.231-.154-.038-.116.039-.269.154-.269.653-.193 1.305-.385 1.958-.654.115-.039.269 0 .307.154.039.115 0 .269-.153.307a39.72 39.72 0 0 1-1.997.654c0-.038 0-.038-.038-.038Zm-14.399-.616h-.077c-.653-.23-1.306-.5-1.959-.769-.115-.038-.153-.192-.115-.307.039-.116.192-.154.307-.116.653.269 1.306.539 1.92.769a.262.262 0 0 1 .154.308c-.038.077-.115.115-.23.115Zm-143.76-.5c-.04 0-.078 0-.116-.038-.115-.039-.154-.192-.115-.308.307-.615.614-1.23.96-1.884.077-.115.192-.154.307-.115.115.076.154.192.115.307-.307.615-.653 1.269-.921 1.846-.077.154-.154.192-.23.192Zm162.075-.307a.212.212 0 0 1-.192-.116c-.038-.115 0-.269.115-.307a42.193 42.193 0 0 0 1.843-.962c.116-.077.269-.038.308.077.076.116.038.269-.077.308-.615.346-1.229.692-1.882 1-.038-.039-.076 0-.115 0Zm-133.969-.116c-.115 0-.192-.077-.23-.192a19.391 19.391 0 0 0-.461-2.038c-.038-.115.038-.269.154-.269.115-.039.268.038.268.153.192.693.346 1.385.461 2.077.039.116-.077.231-.192.269Zm111.814-.692c-.039 0-.077 0-.115-.038-.615-.308-1.229-.654-1.843-1-.116-.077-.154-.192-.077-.308.077-.115.192-.154.307-.077.614.346 1.229.692 1.805 1 .115.077.153.192.115.308 0 .038-.115.115-.192.115Zm-162.652-.384c-.077 0-.192-.039-.23-.154a41.278 41.278 0 0 1-.768-1.962c-.039-.115 0-.269.153-.307.115-.039.269 0 .307.154.23.653.5 1.307.768 1.922.039.116 0 .27-.115.308-.038.039-.077.039-.115.039Zm95.187-.885c-.729 0-1.42-.038-2.112-.077-.115 0-.23-.115-.23-.269 0-.115.115-.231.269-.231.653.039 1.382.077 2.073.077.116 0 .231.116.231.231 0 .154-.115.269-.231.269Zm2.074-.038c-.115 0-.231-.116-.231-.231s.077-.231.231-.231c.653-.038 1.382-.077 2.073-.154.115 0 .231.077.269.193a.29.29 0 0 1-.192.269c-.768.038-1.459.115-2.15.154Zm91.156 0a.21.21 0 0 1-.192-.116c-.077-.115-.039-.23.038-.307a33.605 33.605 0 0 0 1.229-.962l.153.154.231.038c0 .193-.845.808-1.344 1.154-.039 0-.077.039-.115.039Zm-97.415-.308c-.73-.115-1.421-.269-2.112-.423-.115-.039-.192-.154-.153-.269.038-.116.153-.193.268-.154.653.154 1.344.308 2.035.423.116.038.231.154.192.269 0 .077-.115.154-.23.154Zm10.406-.115c-.115 0-.231-.077-.231-.193a.29.29 0 0 1 .192-.269c.653-.115 1.344-.192 2.074-.346.115-.038.23.077.269.192.038.116-.077.231-.192.269-.692.116-1.383.231-2.112.347.038 0 .038 0 0 0Zm57.634-.423c-.038 0-.076 0-.115-.039a45.76 45.76 0 0 1-1.728-1.192.204.204 0 0 1-.038-.308.203.203 0 0 1 .307-.038c.576.423 1.152.807 1.69 1.192.115.077.153.231.076.308-.038.077-.115.077-.192.077Zm-53.487-.347c-.116 0-.192-.076-.231-.192-.038-.115.039-.231.192-.269.653-.154 1.344-.308 2.035-.462.116-.038.231.039.269.154.039.116-.038.231-.153.27-.692.153-1.383.307-2.036.461l-.076.038Zm-80.904-.076c-.038 0-.077 0-.115-.039-.115-.077-.154-.192-.077-.308.346-.615.691-1.23 1.075-1.807.077-.115.192-.154.307-.077.116.077.154.192.077.308-.345.577-.69 1.192-1.037 1.807-.038.039-.153.116-.23.116Zm62.319-.116h-.077a16.806 16.806 0 0 1-1.919-.884c-.116-.077-.154-.193-.116-.308.077-.115.192-.154.308-.115.614.346 1.267.615 1.881.846.115.038.192.192.115.307 0 .116-.077.154-.192.154Zm-37.207-.654a.26.26 0 0 1-.23-.153 28.734 28.734 0 0 0-.768-1.923c-.039-.116 0-.269.115-.308.115-.038.269 0 .307.115.269.616.538 1.308.768 1.962.038.115-.038.269-.154.307h-.038Zm59.862-.115c-.115 0-.192-.077-.231-.192-.038-.116.039-.269.154-.269.653-.154 1.344-.347 2.035-.539.115-.038.269.039.269.154.038.115-.039.269-.154.269-.691.192-1.344.346-2.035.539 0 .038-.038.038-.038.038Zm-111.046-.846c-.115 0-.192-.077-.23-.154-.192-.692-.384-1.346-.576-2.038-.039-.115.038-.269.153-.269.116-.039.27.038.27.154.153.653.345 1.346.537 1.999.038.116-.039.27-.154.308.039 0 .039-.038 0 0Zm115.078-.231c-.116 0-.192-.077-.231-.154-.038-.115.039-.269.154-.269.653-.192 1.344-.384 1.996-.577.116-.038.269.039.269.154.039.116-.038.269-.153.269-.653.193-1.344.385-1.997.577h-.038Zm-30.373-.077c-.038 0-.077 0-.115-.038-.576-.346-1.152-.769-1.728-1.192a.204.204 0 0 1-.038-.308.203.203 0 0 1 .307-.038c.576.423 1.152.807 1.689 1.192.115.077.154.231.077.307a.29.29 0 0 1-.192.077Zm72.418 0c-.039 0-.115 0-.154-.038a45.516 45.516 0 0 0-1.651-1.231c-.115-.077-.153-.23-.077-.307.077-.116.231-.154.308-.077.575.384 1.151.807 1.689 1.23a.204.204 0 0 1 .038.308c0 .077-.076.115-.153.115Zm-38.052-1.076a.258.258 0 0 1-.23-.154c-.039-.116.038-.269.153-.269.653-.193 1.344-.385 1.997-.577.115-.039.269.038.269.154.038.115-.039.269-.154.269-.653.192-1.344.384-1.997.577h-.038Zm-90.772-.462c-.038 0-.077 0-.115-.038-.115-.077-.115-.231-.077-.308.422-.577.845-1.154 1.267-1.692a.202.202 0 0 1 .308-.039.204.204 0 0 1 .038.308 26.215 26.215 0 0 0-1.229 1.654.21.21 0 0 1-.192.115Zm94.804-.692c-.116 0-.192-.077-.231-.154-.038-.115.039-.269.154-.269.691-.192 1.344-.385 2.035-.539.115-.038.269.039.269.154.038.116-.039.269-.154.269-.653.193-1.344.347-2.035.539h-.038Zm30.564-.116c-.038 0-.077 0-.115-.038a20.714 20.714 0 0 0-1.843-.923c-.115-.038-.154-.192-.115-.308.038-.115.192-.153.307-.115.653.269 1.267.577 1.881.923.115.077.154.192.077.308-.038.115-.115.153-.192.153Zm-72.341-.115c-.038 0-.115 0-.153-.038a44.77 44.77 0 0 1-1.575-1.385.243.243 0 0 1 0-.346.243.243 0 0 1 .346 0c.537.5 1.075.923 1.574 1.346.115.077.115.231.039.346a.54.54 0 0 1-.231.077Zm-31.831-.077a.21.21 0 0 1-.192-.115 27.379 27.379 0 0 0-1.076-1.769c-.076-.116-.038-.231.039-.308.115-.077.23-.038.307.039.384.576.768 1.153 1.114 1.807.076.115.038.269-.077.308-.039 0-.077.038-.115.038Zm77.639-.769c-.115 0-.192-.077-.23-.192-.038-.116.038-.269.154-.269.691-.193 1.382-.347 2.035-.5.115-.039.23.038.268.192.039.115-.038.231-.192.269-.652.154-1.344.308-2.035.5.039 0 .039 0 0 0Zm-128.132-.461c-.115 0-.192-.077-.23-.193l-.346-2.076a.29.29 0 0 1 .192-.27c.115 0 .23.077.269.193.077.692.192 1.384.307 2.038.038.115-.077.231-.192.269.038.039 0 .039 0 .039Zm150.825-.231h-.076a17.056 17.056 0 0 0-1.997-.577c-.115-.038-.192-.154-.154-.269.039-.116.154-.192.269-.154.691.154 1.382.346 2.035.577.115.038.192.154.154.307-.039.039-.115.116-.231.116Zm-18.584-.231c-.115 0-.192-.077-.23-.192-.039-.116.038-.231.192-.269.691-.154 1.382-.27 2.073-.385.115-.038.23.077.269.192.038.116-.077.231-.192.27-.653.115-1.344.23-2.035.384h-.077Zm-100.371-.577a.287.287 0 0 1-.154-.077.243.243 0 0 1 0-.346c.5-.538.998-1.038 1.498-1.5.077-.076.23-.076.345 0 .077.077.077.231 0 .347-.499.423-.998.922-1.459 1.461-.077.077-.153.115-.23.115Zm104.479-.115c-.115 0-.23-.077-.23-.192a.29.29 0 0 1 .192-.27c.691-.077 1.421-.192 2.074-.23.115 0 .23.077.268.192a.288.288 0 0 1-.192.269c-.691.039-1.382.116-2.112.231Zm10.406-.077a18.87 18.87 0 0 0-2.112-.231c-.115 0-.23-.115-.23-.269 0-.115.115-.231.269-.231.691.077 1.42.154 2.073.231.115.038.231.154.192.269.039.154-.077.231-.192.231Zm-67.541-.269c-.077 0-.115-.039-.154-.077-.46-.462-.998-.962-1.497-1.461-.077-.077-.077-.231 0-.347.077-.077.23-.077.345 0 .5.5.999 1 1.498 1.462.077.077.077.23 0 .346a.294.294 0 0 1-.192.077Zm61.282-.039a.247.247 0 0 1-.23-.23c0-.116.077-.231.23-.231.73-.039 1.421-.039 2.112-.039.115 0 .231.116.231.231s-.116.231-.231.231c-.691 0-1.382 0-2.112.038.039 0 .039 0 0 0Zm-92.422-.653c-.077 0-.116-.039-.154-.077-.461-.539-.96-1-1.498-1.423a.204.204 0 0 1-.038-.308.203.203 0 0 1 .307-.038c.538.423 1.037.923 1.536 1.461.077.077.077.231 0 .346-.038.039-.077.039-.153.039Zm-13.056-1.616a.21.21 0 0 1-.192-.115c-.076-.115-.038-.269.077-.308a15.16 15.16 0 0 1 1.843-1.076c.115-.039.269 0 .307.115.039.115 0 .269-.115.308-.576.269-1.19.615-1.766 1.038-.077 0-.115.038-.154.038Zm-35.556-.346c-.115 0-.23-.077-.23-.23-.038-.654-.077-1.27-.077-1.923v-.193c0-.115.115-.23.23-.23.116 0 .23.115.23.23v.193c0 .615.04 1.269.078 1.884.038.154-.077.269-.23.269.038 0 .038 0 0 0Zm76.834-.307c-.077 0-.115-.039-.154-.077-.461-.5-.96-1-1.421-1.539-.076-.076-.076-.23 0-.346.077-.077.231-.077.346 0l1.421 1.539c.077.077.077.23 0 .346-.077.038-.154.077-.192.077Zm-31.448-.308c-.038 0-.077 0-.115-.039-.614-.307-1.267-.576-1.882-.73-.115-.039-.191-.154-.153-.269.038-.116.153-.193.269-.154.69.192 1.344.423 1.996.769.116.077.154.192.115.308-.076.038-.153.115-.23.115Zm-6.067-.808c-.115 0-.192-.077-.23-.192-.038-.115.038-.269.154-.269.69-.154 1.382-.269 2.073-.269h.038c.116 0 .23.115.23.23a.248.248 0 0 1-.23.231h-.038a9.09 9.09 0 0 0-1.997.231c.039.038 0 .038 0 .038Zm34.673-1.961c-.076 0-.115-.038-.153-.077-.461-.5-.922-1.038-1.421-1.577-.077-.076-.077-.23 0-.346.077-.077.23-.077.346 0 .46.539.921 1.039 1.382 1.539.077.077.077.23 0 .346-.038.077-.115.115-.154.115Zm-73.953-.808c-.154 0-.23-.115-.23-.269.038-.692.153-1.423.23-2.115.038-.115.153-.231.268-.192.116.038.23.154.192.269a19.084 19.084 0 0 0-.23 2.077c0 .154-.115.23-.23.23Zm71.15-2.307c-.077 0-.115-.038-.192-.077l-1.382-1.577c-.077-.076-.077-.23 0-.346.077-.077.23-.077.346 0l1.382 1.577c.077.077.077.231 0 .346a.288.288 0 0 1-.154.077Zm-70.498-1.807h-.038c-.115-.039-.192-.154-.154-.27.154-.692.346-1.384.576-2.038.039-.115.154-.192.308-.154.115.039.192.154.153.308-.23.654-.384 1.308-.576 2-.077.077-.153.154-.269.154Zm67.695-1.346c-.077 0-.115-.039-.153-.077-.461-.5-.922-1.039-1.421-1.539-.077-.076-.077-.23 0-.346.077-.077.23-.077.346 0 .46.5.921 1.039 1.42 1.539.077.077.077.23 0 .346-.077.077-.115.077-.192.077Zm-66.39-2.654h-.076c-.115-.038-.192-.192-.115-.308.269-.653.576-1.307.883-1.922.077-.116.192-.154.307-.116.115.077.154.193.115.308a28.362 28.362 0 0 0-.883 1.884c-.077.116-.153.154-.23.154Zm63.587-.423c-.077 0-.115-.038-.153-.077l-1.421-1.538c-.077-.077-.077-.231 0-.346.077-.077.23-.077.346 0 .499.5.959 1.038 1.42 1.538.077.077.077.231 0 .346a.63.63 0 0 1-.192.077Zm-2.88-3.038c-.076 0-.115-.038-.153-.077-.499-.5-.96-1-1.459-1.5-.077-.077-.077-.23 0-.346.077-.077.23-.077.345 0 .5.5.999 1 1.459 1.5.077.077.077.231 0 .346a.62.62 0 0 1-.192.077Zm-58.786-.231c-.039 0-.077 0-.115-.038-.116-.077-.154-.231-.077-.308.384-.577.768-1.192 1.19-1.73a.202.202 0 0 1 .307-.039.204.204 0 0 1 .039.308c-.423.538-.807 1.115-1.19 1.692 0 .077-.077.115-.154.115Zm55.791-2.73a.293.293 0 0 1-.153-.077c-.499-.5-1.037-.961-1.536-1.423a.243.243 0 0 1 0-.346.243.243 0 0 1 .346 0c.499.461 1.036.923 1.535 1.423a.242.242 0 0 1 0 .346c-.038.077-.115.077-.192.077Zm-53.295-.615c-.039 0-.116 0-.154-.039-.115-.077-.115-.231-.038-.346.46-.538.921-1.038 1.459-1.538.077-.077.23-.077.345 0 .077.077.077.23 0 .346-.499.5-.96 1-1.42 1.5-.077.038-.116.077-.192.077Zm50.224-2.192c-.039 0-.116 0-.154-.039-.538-.461-1.075-.923-1.613-1.346a.204.204 0 0 1-.038-.308.203.203 0 0 1 .307-.038c.538.423 1.075.884 1.613 1.346.115.077.115.231.038.346-.038.039-.115.039-.153.039Zm-47.268-.77c-.076 0-.115-.038-.192-.077-.076-.115-.076-.23.039-.346.537-.461 1.075-.884 1.65-1.346.116-.077.231-.077.308.039.077.115.077.231-.038.307-.538.424-1.114.847-1.613 1.308-.038.115-.115.115-.154.115Zm44.004-1.846c-.039 0-.115 0-.154-.038-.576-.423-1.113-.846-1.689-1.231-.115-.077-.115-.23-.077-.307.077-.116.23-.116.307-.077.576.384 1.152.807 1.69 1.23a.204.204 0 0 1 .038.308c0 .077-.038.115-.115.115Zm-40.663-.692a.21.21 0 0 1-.192-.115c-.077-.115-.038-.269.077-.308.576-.384 1.152-.769 1.766-1.115.115-.077.269-.038.307.077.077.115.038.269-.077.308-.614.346-1.19.73-1.766 1.115-.038.038-.077.038-.115.038Zm37.207-1.653c-.038 0-.077 0-.115-.039a44.435 44.435 0 0 0-1.805-1.077c-.115-.077-.153-.192-.077-.307.077-.116.192-.154.308-.077.614.346 1.19.692 1.804 1.077.115.076.154.192.077.307a.21.21 0 0 1-.192.116Zm-33.636-.5a.212.212 0 0 1-.192-.116c-.077-.115-.038-.269.077-.307.614-.346 1.267-.654 1.881-.962.115-.038.269 0 .307.116.039.115 0 .269-.115.307-.614.308-1.229.616-1.843.962h-.115Zm29.988-1.539c-.038 0-.077 0-.115-.038-.614-.308-1.267-.577-1.881-.846-.116-.039-.192-.192-.116-.308.039-.115.192-.192.308-.115a21.23 21.23 0 0 1 1.919.884c.116.039.154.193.116.308-.077.038-.154.115-.231.115Zm-26.264-.307c-.076 0-.192-.039-.23-.154-.038-.115 0-.269.115-.308a41.716 41.716 0 0 1 1.958-.769c.116-.038.27 0 .308.154.038.115 0 .269-.154.308-.653.23-1.305.5-1.92.769h-.077Zm22.425-1.308h-.077a29.957 29.957 0 0 0-1.997-.615c-.115-.039-.192-.154-.153-.269.038-.116.153-.193.268-.154.653.192 1.344.384 1.997.615a.262.262 0 0 1 .153.308.21.21 0 0 1-.191.115Zm-18.508-.154a.26.26 0 0 1-.23-.153c-.039-.116.038-.27.153-.308.691-.192 1.344-.385 2.035-.577.115-.038.269.039.269.154.038.115-.038.269-.154.269-.652.154-1.344.346-1.996.538 0 .077-.039.077-.077.077Zm14.476-.923h-.039c-.69-.115-1.382-.23-2.035-.307a.21.21 0 0 1-.192-.269.21.21 0 0 1 .27-.193c.69.077 1.381.193 2.073.308a.289.289 0 0 1 .192.269c-.077.116-.192.192-.27.192Zm-10.406-.038c-.115 0-.192-.077-.23-.192-.039-.116.076-.231.192-.27.69-.115 1.382-.23 2.073-.307.115 0 .23.077.269.192a.288.288 0 0 1-.192.269c-.691.077-1.382.154-2.035.308h-.077Zm6.259-.423a18.871 18.871 0 0 0-2.074 0 .248.248 0 0 1-.23-.231c0-.115.077-.231.23-.231.691-.038 1.421-.038 2.112 0 .115 0 .23.116.23.231-.038.116-.153.231-.268.231ZM477.55 284.057h-.038s-.73-.193-1.882-.539c-.115-.038-.192-.154-.154-.269.039-.115.154-.192.269-.154 1.152.346 1.843.539 1.843.539.116.038.192.153.154.269 0 .077-.077.154-.192.154Zm-3.686-1.154h-.077c-.614-.231-1.19-.462-1.805-.692-.115-.039-.153-.154-.115-.27.039-.115.154-.153.269-.115.576.231 1.19.462 1.805.692.115.039.153.154.115.27 0 .076-.077.115-.192.115Zm-3.533-1.423h-.077c-.575-.269-1.19-.538-1.727-.808-.116-.038-.154-.192-.116-.269.039-.115.192-.154.269-.077l1.728.808c.115.038.154.192.115.269a.29.29 0 0 1-.192.077Zm-3.456-1.692c-.038 0-.076 0-.115-.039-.576-.307-1.113-.653-1.651-.961-.115-.077-.115-.192-.077-.308.077-.115.192-.115.308-.077a22.83 22.83 0 0 0 1.651.962c.115.038.153.192.076.308a.212.212 0 0 1-.192.115Zm-3.263-2.038c-.039 0-.077 0-.116-.039-.537-.384-1.075-.769-1.535-1.153-.077-.077-.116-.193-.039-.308.077-.077.192-.115.307-.039.5.385.999.77 1.536 1.116.115.077.115.192.039.307a.213.213 0 0 1-.192.116Zm-2.995-2.385c-.039 0-.115 0-.154-.038-.499-.423-.96-.885-1.382-1.346a.234.234 0 0 1 0-.308.233.233 0 0 1 .307 0c.422.462.883.885 1.344 1.346a.234.234 0 0 1 0 .308c0 .038-.039.038-.115.038Zm-2.611-2.768c-.077 0-.116-.039-.154-.077-.422-.5-.768-1.039-1.113-1.577-.077-.116-.039-.231.076-.308.116-.077.231-.038.308.077a14.11 14.11 0 0 0 1.113 1.538c.077.077.038.231-.038.308-.116 0-.154.039-.192.039Zm-2.074-3.231a.211.211 0 0 1-.192-.115 35.572 35.572 0 0 1-.768-1.769c-.038-.116 0-.231.115-.269.116-.039.231 0 .269.115.192.577.461 1.154.73 1.731.038.115 0 .23-.077.269 0 .038-.038.038-.077.038Zm-1.267-3.576c-.115 0-.192-.077-.192-.154s-.038-.154-.038-.192c-.346.038-.691.038-.999.038-.115 0-.23-.077-.23-.192 0-.116.077-.231.192-.231.307 0 .614-.038.922-.038a14.268 14.268 0 0 1-.192-1.27c0-.115.076-.23.192-.23.115 0 .23.077.23.192.038.423.115.846.192 1.308.192 0 .345-.039.537-.039.116 0 .231.077.231.192 0 .116-.077.231-.192.231-.154 0-.307.039-.499.039 0 .038.038.115.038.153.038.116-.038.231-.154.27 0-.116-.038-.077-.038-.077Zm-3.187-.385a15.22 15.22 0 0 1-1.92-.231c-.115-.038-.192-.115-.153-.23.038-.116.115-.193.23-.154.614.115 1.267.192 1.881.231.116 0 .192.115.192.23-.038.039-.115.154-.23.154Zm5.721-.423c-.115 0-.192-.077-.192-.154-.038-.115.039-.23.154-.269.614-.115 1.229-.308 1.843-.5.115-.038.23.039.269.154.038.115-.039.231-.154.269-.614.192-1.229.346-1.881.5h-.039Zm-9.484-.269h-.038c-.615-.154-1.229-.385-1.843-.615-.116-.039-.154-.154-.116-.27.039-.115.154-.153.269-.115.576.231 1.191.423 1.805.577.115.038.192.154.153.269-.038.077-.153.154-.23.154Zm13.132-.885a.21.21 0 0 1-.192-.115c-.038-.115 0-.231.115-.269a17.4 17.4 0 0 0 1.728-.808c.115-.038.231 0 .269.077.038.116 0 .231-.077.269-.576.308-1.152.577-1.766.808-.039.038-.077.038-.077.038Zm-16.703-.461c-.038 0-.077 0-.077-.039a14.186 14.186 0 0 1-1.689-.923c-.115-.076-.154-.192-.077-.307.077-.116.192-.154.307-.077a23.25 23.25 0 0 0 1.69.884c.115.039.153.193.115.27-.115.153-.192.192-.269.192Zm20.082-1.308a.21.21 0 0 1-.192-.115c-.077-.115-.038-.231.077-.308.537-.346 1.075-.692 1.536-1.076.077-.077.23-.039.307.038.077.077.038.231-.038.308-.5.384-1.037.769-1.575 1.115-.038.038-.077.038-.115.038Zm-9.945-.077a.247.247 0 0 1-.23-.23c0-.616.038-1.269.115-1.923 0-.115.115-.192.23-.192s.192.115.192.23a15.957 15.957 0 0 0-.115 1.885c0 .115-.077.23-.192.23Zm-13.439-.538c-.038 0-.077 0-.115-.038-.538-.346-1.037-.731-1.575-1.154-.076-.077-.115-.192-.038-.308.077-.077.192-.115.307-.038.499.384 1.037.769 1.536 1.115.115.077.115.192.039.308-.039.077-.116.115-.154.115Zm26.417-1.73a.293.293 0 0 1-.153-.077.234.234 0 0 1 0-.308c.461-.462.921-.885 1.305-1.346.077-.077.231-.115.308-.038.076.076.115.23.038.307-.422.462-.845.923-1.344 1.385-.038.077-.115.077-.154.077Zm-29.45-.616c-.039 0-.116 0-.154-.038l-.077-.077c-.077-.077-.115-.231-.038-.308.077-.077.23-.115.307-.038l.077.077a.233.233 0 0 1 0 .307c0 .039-.039.077-.115.077Zm16.933-.923h-.039c-.115-.038-.192-.154-.153-.269.153-.615.307-1.231.499-1.884.038-.116.154-.193.269-.154.115.038.192.154.153.269-.192.615-.345 1.231-.499 1.846-.038.115-.153.192-.23.192Zm15.013-1.346c-.038 0-.077 0-.115-.038-.115-.077-.115-.192-.077-.308.384-.615.653-1.154.807-1.653.038-.116.153-.193.268-.154.116.038.192.154.154.269-.154.538-.461 1.154-.883 1.769-.039.077-.077.115-.154.115Zm-13.9-2.307h-.076c-.116-.039-.154-.154-.116-.269.231-.577.5-1.193.768-1.769.039-.116.192-.154.269-.116.115.039.154.193.115.269-.268.577-.537 1.154-.768 1.731 0 .115-.115.154-.192.154Zm14.745-1.308c-.077 0-.192-.077-.192-.154-.154-.538-.422-1.115-.768-1.692-.077-.115-.038-.23.077-.307.115-.077.23-.039.307.077.384.615.653 1.192.806 1.807.039.116-.038.231-.153.269h-.077Zm-13.093-2.153c-.039 0-.077 0-.116-.039-.115-.077-.153-.192-.076-.307.345-.616.729-1.154 1.113-1.616.077-.076.23-.115.307-.038.077.077.115.192.039.308-.384.461-.73.961-1.075 1.538-.039.115-.116.154-.192.154Zm11.135-1.077a.288.288 0 0 1-.154-.077c-.422-.461-.921-.846-1.421-1.231-.115-.076-.115-.192-.038-.307.077-.116.192-.116.307-.039.538.385 1.037.808 1.498 1.269a.234.234 0 0 1 0 .308.64.64 0 0 1-.192.077Zm-8.64-1.769a.293.293 0 0 1-.192-.077c-.076-.115-.038-.231.077-.308a5.808 5.808 0 0 1 1.805-.807c.115-.039.23.038.269.154.038.115-.039.23-.154.269a5.914 5.914 0 0 0-1.69.731c-.038.038-.076.038-.115.038Zm5.491-.385h-.077a7.822 7.822 0 0 0-1.804-.461c-.116 0-.192-.115-.192-.231 0-.115.115-.192.23-.192a7.482 7.482 0 0 1 1.92.5c.115.038.154.154.115.269 0 .039-.077.115-.192.115Z" fill="#553E93"/></svg>