<svg width="667" height="654" fill="none" xmlns="http://www.w3.org/2000/svg"><path d="M483.257 510.694c79.164-79.146 79.164-207.466 0-286.612-79.165-79.145-207.516-79.145-286.681 0-79.165 79.146-79.164 207.466 0 286.612 79.165 79.146 207.516 79.146 286.681 0Z" fill="#553E93"/><path d="M358.018 165.531a64.376 64.376 0 0 0 2.576 1.626c.091-.587 42.713 12.924 47.097 14.912 12.656 5.784 20.43 7.863 6.554 12.246 6.012-1.898 19.661 35.156 29.198 33.62 9.311-1.491 12.068 8.992 14.509 16.177 1.311 3.796 5.379 6.055 3.842 10.619-.497 1.446-7.141 4.429-6.644 5.423 2.802 5.287 15.503 5.919 15.593 13.737-1.22 1.943-3.073 2.892-5.604 2.801-5.876 2.395-.317 7.14.813 10.845 2.712 8.902 11.255 16.81 17.402 6.688 6.192-10.167-8-20.154.633-30.547 5.062-6.1 18.531 4.835 15.322-6.778-.904-3.344-14.961-18.075-7.187-20.244.362-.09.633-.859.814-2.124-23.051-26.615-53.38-47.537-89.222-59.422a199.465 199.465 0 0 0-45.696-9.579ZM520.326 275.02c-.994-1.897-10.983 9.083-13.062 10.258-7.593 4.202-9.266-4.067-15.639 4.654-1.13 1.537-12.655 16.81-12.701 15.138.226 5.694-2.124 11.297.588 16.765 2.441 4.88-3.299 9.309-2.983 14.46.452 6.778-5.74 11.387-4.158 18.12 1.356 5.829 4.881 10.122 4.881 16.313 0 9.896-1.763 14.415 6.192 21.509 5.108 4.564 11.797 20.335 20.792 11.433 1.672-1.627 18.079-14.777 17.13-15.816 5.831 6.191.678 2.124 8.994 1.763 2.26-.091-1.672 57.026-5.107 55.716.542.226 1.175.136 1.898-.136 1.899-4.518 3.616-9.173 5.198-13.917 17.808-53.729 11.887-109.581-12.023-156.26ZM425.454 464.809c.046-5.829-10.847-11.297-16.768-11.026-12.701.497-16.046-3.57-27.843-6.643-9.898-2.575-8.361-19.43-23.413-20.153-8-.407-23.096-22.142-31.006-15.635-5.243 4.292-15.277-7.23-18.802-7.276-8.091-.09-1.537 4.7-6.825-1.31-3.481-3.977-13.063 4.383-15.052 6.733-3.932 4.564-20.972-2.305-23.593-8.857-.949-2.35 4.52-11.704.452-18.346-1.537-2.576-12.837-.678-14.599-2.395-2.351-2.305 6.056-10.71 5.107-12.472-3.932-7.32-16.859 11.026-22.509-3.705-4.565-11.975 1.401-16.494 2.576-28.017.543-5.422 9.809-8.088 14.283-6.145 7.187 3.163 6.238.226 11.707-.362 4.294-.452 8.904 4.429 13.017 5.152 4.881.858 1.537 14.595 6.147 17.894 2.667 1.898 2.621-18.482 2.802-18.979 2.938-8.269 15.729-7.501 17.808-14.46 5.063-17.126 16.634-15.816 30.69-21.871 6.69-2.892 23.232-6.236 27.391-12.788 7.819-12.201-12.701-30.456-18.035-39.087-.045-.091-4.745 5.287-5.83 5.332-3.978.181-7.684-22.233-15.277-9.354-1.447 2.44-7.006 3.163-3.933 6.778 6.057 7.049-5.695 8.767-9.356 7.727-3.706-.994-21.966-11.568-15.548-17.487 13.108-12.02 16.045-5.784 29.65-5.875 15.549-.045 16.136 14.551 29.018-1.084 3.57-4.338-19.707-16.72-15.097-22.187 16.272-19.431 25.176 23.723 31.278 31.179 8.904 10.936 14.644 5.151 13.921-6.914-.316-5.693 11.752-10.98 12.61-17.126.181-1.265-7.819-12.562-8.994-13.33-4.204-2.711-5.153-5.558-7.322-8.224-2.712-3.389-6.961 1.672-9.402-1.356-1.13-1.401-21.559-.633-23.729-.587-10.712-.407-22.735-.046-33.582.09-4.43-.181-27.933 11.297-28.566 1.898-.316-4.655 5.288-12.833-4.701-9.038-3.209 1.22-5.197-.587-4.565-.723-6.87 1.401-19.751 6.191-25.266 11.162-3.073 2.756 4.249 4.021 4.746 6.371.949 4.519-10.486 12.969-13.017 15.906-9.085 10.484-8.678 24.402-20.927 34.569-14.147 11.749-14.916 28.965-15.051 45.188-.045 7.862-6.825 11.161-2.531 20.063 3.616 7.591 10.395 11.252 11.525 20.47.724 6.055-4.022 11.658-1.717 17.578 2.802 7.275 8.181 13.692 14.735 17.126 14.011 7.366 23.187 12.879 32.181 26.345 11.119 16.719 31.006 9.399 24.498 26.299-2.757 7.094-9.718 10.483-12.566 18.075-3.435 9.083 3.164 15.68 7.368 23.046 4.249 7.456 5.83 16.358 13.288 21.419 5.334 3.615 15.097 6.642 16.453 14.008 2.169 11.749-7.729 26.39-6.645 37.144.724 7.23.859 14.641 7.142 19.386 11.345 8.495 8.633-3.344 15.684-8.947 6.599-5.242 14.373-3.706 21.921-5.784 6.915-1.898-1.311-4.474 1.491-6.01 5.921-3.344 9.447 1.672 15.142-3.389 5.153-4.61 12.113-5.965 14.554-13.195 3.932-11.839 21.786-7.501 29.198-16.72 4.565-5.648 6.554-11.703 8.633-18.572 2.486-8.495 14.961-12.381 15.051-21.509.046-6.101-.09 6.1 0 0Z" fill="#786AB5"/><path d="M301.339 98.382c-2.35 4.157-26.08 40.578-21.108 76.186l25.809-9.263 11.797-47.99-16.498-18.933Z" fill="#FDAD9B"/><path d="M404.482 83.47s-15.864-28.198-54.509-20.38c-38.645 7.772-59.708 62.539-49.221 170.99 0 0 61.379-24.175 141.155-4.699 0-.046-13.108-105.062-37.425-145.912Z" fill="#FF8548"/><path d="m433.952 72.082-27.165 26.842s-69.605 18.617-88.95 18.391c-19.345-.226-26.939-14.234-26.939-14.234s16.317-25.576 49.357-37.144a98.868 98.868 0 0 1 9.763-2.847c5.695-1.356 11.48-2.124 17.266-2.485 34.125-2.034 66.668 11.477 66.668 11.477Z" fill="#FF8548"/><path d="M433.952 72.082c4.339 4.655-2.351 9.76-9.854 17.172-7.502 7.41-15.231 11.748-17.311 9.67-2.079-2.079 2.351-9.76 9.854-17.172 7.503-7.456 15.322-11.839 17.311-9.67Z" fill="#66192D"/><path d="M410.403 99.014s-.407-5.377 6.418-12.2c4.114-4.113 9.266-6.824 12.746-8.315a3.955 3.955 0 0 1 5.289 2.214l2.169 5.558-10.124 6.462-16.498 6.281Z" fill="#FDAD9B"/><path d="M362.447 198.427s83.753-44.961 113.811 4.067c22.237 36.286-11.164 70.086-135.099 66.652 0 0-12.249-5.694-9.266-35.156 1.13-11.613 30.554-35.563 30.554-35.563Z" fill="#FFD00E"/><path d="M362.447 198.427s-111.55-45.233-133.652-16.945c-25.356 32.49-1.039 87.709 116.567 67.962l14.328-15.409 2.757-35.608Z" fill="#FFD00E"/><path d="M331.125 242.124s-20.565.813-30.238 5.512c-9.672 4.7-4.52 16.132 15.096 15.816 19.617-.316 18.125-3.208 18.125-3.208s-3.706-9.987-2.983-18.12Z" fill="#66192D"/><path d="M340.978 269.372c-13.74-9.715-9.401-35.111-9.356-35.382l.045-.136.136-.045 84.702-30.502.181.452-84.567 30.457c-.316 1.988-3.796 25.576 9.176 34.794l-.317.362Z" fill="#020202"/><path d="M357.431 200.596c-6.825 0-12.385-1.717-16.95-5.106-8.588-6.417-10.17-16.584-8.904-23.407l8.181-4.7c.407-2.214 16.226 6.055 16.181 6.055.09.045 7.548 2.169 33.447-10.935 18.034-9.128 27.119-22.097 27.797-39.63.497-13.195-5.469-20.651-6.87-23.859-.181-.407 8.723-9.263 8.452-10.167l6.69-3.344c-.226-.768 6.418-3.344 6.327-3.57l5.153 4.338c2.531 5.83 7.955 19.205 7.277 37.642-.723 19.159-8.723 45.549-42.622 62.72-18.396 9.309-32.905 13.963-44.159 13.963Z" fill="#FDAD9B"/><path d="M351.961 201.681h-72.317a3.564 3.564 0 0 1-3.345-2.35l-15.006-44.419c-.768-2.26.949-4.564 3.345-4.564h69.515c3.164 0 5.966 1.988 6.961 4.97l14.147 41.844c.768 2.214-.904 4.519-3.3 4.519Z" fill="#66192D"/><path d="M347.396 201.681h-72.272a3.52 3.52 0 0 1-3.345-2.35l-15.006-44.419c-.768-2.26.949-4.564 3.345-4.564h69.515c3.164 0 5.967 1.988 6.961 4.97l14.147 41.844c.769 2.214-.949 4.519-3.345 4.519Z" fill="#66192D"/><path d="M296.774 174.523c0-1.672 1.944-2.395 3.661-2.395 1.718 0 4.52 1.853 4.52 4.203 0 2.53-2.034 2.892-3.752 2.892-1.717.045-4.429-2.531-4.429-4.7Z" fill="#DEEBE9"/><path d="M374.018 195.4h-98.939v6.281h101.019a2.122 2.122 0 0 0 2.124-2.124c-.045-2.304-1.898-4.157-4.204-4.157ZM342.289 172.806c-.045-.136-3.571-13.286-5.876-17.398-2.26-4.021-5.062-4.835-5.062-4.835l.136-.452c.135.046 3.028.859 5.378 5.061 2.305 4.158 5.786 16.946 5.921 17.488l-.497.136Z" fill="#66192D"/><path d="M352.956 195.626c-2.667 0-3.345-1.175-3.39-1.22v-.046l-5.65-16.674.452-.135 5.605 16.629c.09.09.723.949 2.938.949v.497h.045Z" fill="#66192D"/><path d="M422.426 162.096a2.19 2.19 0 0 1-1.175-.316c-1.763-1.04-1.718-4.293.09-7.501.859-1.492 1.944-2.667 3.119-3.435 1.266-.768 2.441-.949 3.3-.406 1.762 1.039 1.717 4.292-.091 7.501-1.446 2.53-3.525 4.157-5.243 4.157Zm4.249-10.981c-.497 0-1.04.181-1.672.588-1.04.632-2.034 1.762-2.803 3.073-1.537 2.62-1.717 5.467-.452 6.19 1.266.723 3.616-.858 5.153-3.479 1.537-2.621 1.717-5.468.452-6.191-.181-.135-.452-.181-.678-.181Z" fill="#F18C7E"/><path d="M367.826 60.514c-4.746-.136-8.362-.633-11.073-3.796l-8.453-9.85-2.44-2.847-14.464-16.855 7.594 19.701 4.564 11.84 1.447 3.75c.994 2.53-.317 3.706-1.221 6.688-.361 1.22-2.847 8.63 3.616 8.676 8.091.045 18.351-9.263 20.566-17.307h-.136Z" fill="#FDAD9B"/><path d="M350.651 40.541s15.955-15.183 6.734-27.97c-9.175-12.79-11.48 20.56-11.48 20.56l2.576 7.727 2.17-.317ZM348.21 46.551c.045.09.045.226.09.362 1.492 6.643-4.7 11.84-4.7 11.84l-.046-.046-4.565-11.84c1.944-1.445 4.791-3.162 6.871-2.846 1.039.136 1.943.904 2.35 2.53Z" fill="#66192D"/><path d="M314.492 38.282c-3.616-11.84 1.446-23.86 11.3-26.842 9.808-2.982 20.701 4.203 24.316 16.042 3.616 11.84-1.446 23.86-11.299 26.842-9.854 3.027-20.746-4.158-24.317-16.042Z" fill="#FDAD9B"/><path d="M346.718 25.81s-5.062 3.66-9.31.588c-4.249-3.073-7.277-6.01-16.769-1.266-9.537 4.745-19.933 2.621-21.876-2.71-1.944-5.333 2.621-9.445 8.587-9.174 5.967.271-1.265-2.982 2.893-8.586 4.158-5.603 14.735.181 19.933-2.62 5.243-2.802 23.865-5.197 27.209 10.619l-10.667 13.15Z" fill="#66192D"/><path d="M350.696 28.973c-1.22 1.853-3.571 2.485-5.243 1.4-1.672-1.084-2.034-3.479-.814-5.377 1.221-1.852 3.571-2.485 5.243-1.4 1.673 1.084 2.034 3.48.814 5.377Z" fill="#FDAD9B"/><path d="M309.249 20.523c-.362 0-.678-.045-1.04-.136-2.124-.542-2.757-1.672-2.576-2.53.181-.994 1.401-1.943 3.299-1.762 2.848.27 4.385-.678 4.43-.678l.361.587c-.09.045-1.762 1.085-4.836.768-1.401-.135-2.44.498-2.531 1.175-.135.723.678 1.356 2.079 1.717 3.661.904 9.989-4.744 10.08-4.79l.451.498c-.316.316-5.74 5.151-9.717 5.151ZM325.701 7.283c-3.887 0-7.322-1.672-7.639-1.988l.543-.452-.271.226.226-.226c.361.316 6.011 3.027 10.847 1.13 1.628-.633 3.029-1.356 4.43-2.08 2.802-1.49 5.243-2.756 8.045-2.213l-.135.678c-2.532-.498-4.882.723-7.594 2.123-1.401.723-2.847 1.492-4.474 2.124a12.266 12.266 0 0 1-3.978.678ZM352.549 11.758c-1.04 0-2.938-1.582-3.435-2.577-.362-.723 0-1.085.181-1.175 1.401-.859 3.39 1.853 3.796 2.396l.046.045v.045c.226.859-.136 1.13-.362 1.22 0 .046-.09.046-.226.046Zm-2.622-3.21c-.09 0-.18 0-.226.046-.045.045.046.452.724 1.13.949.949 1.898 1.4 2.124 1.356 0 0 0-.09-.045-.317-.678-.994-1.853-2.215-2.577-2.215Z" fill="#fff"/><path d="M462.382 230.782c-1.401 0-2.712-.362-3.933-1.04-2.033-1.174-3.435-3.208-3.887-5.693-.452-2.486.046-5.152 1.356-7.456 2.803-4.835 8.498-6.824 12.656-4.429 4.203 2.441 5.333 8.315 2.531 13.195-1.356 2.35-3.39 4.067-5.785 4.926-.95.361-1.989.497-2.938.497Zm2.305-18.708c-2.983 0-6.147 1.808-7.955 4.971-1.22 2.124-1.672 4.564-1.266 6.823.407 2.214 1.628 4.022 3.435 5.061 1.808 1.039 3.978 1.175 6.102.452 2.17-.768 4.023-2.35 5.288-4.519 2.532-4.383 1.582-9.76-2.169-11.884-1.04-.633-2.215-.904-3.435-.904ZM343.781 86.723l-.046-1.174c20.747-.588 28.25-18.392 28.34-18.573l1.085.452c-.091.18-1.944 4.745-6.509 9.444-4.249 4.338-11.661 9.535-22.87 9.851Z" fill="#66192D"/><path d="m353.679 96.71-.633-.994c.091-.046 10.712-6.779 12.068-18.798l1.175.135c-1.446 12.562-12.52 19.566-12.61 19.657ZM309.407 102.009l-4.271 12.867 1.115.37 4.271-12.866-1.115-.371Z" fill="#66192D"/><path d="M266.898 145.602a.73.73 0 0 1-.588-.271c-.904-1.175-1.898-2.349-2.847-3.479a.78.78 0 0 1 .09-1.085.78.78 0 0 1 1.085.091c.994 1.129 1.943 2.35 2.892 3.524.272.317.181.814-.135 1.04-.181.09-.316.18-.497.18ZM163.619 482.568a.762.762 0 0 1-.768-.769c0-.406.316-.768.768-.768 2.938-.045 5.966-.09 8.994-.226.407-.045.769.317.769.723 0 .407-.317.768-.723.768-3.029.181-6.102.272-9.04.272Zm-8.995-.046c-3.028-.09-6.101-.226-9.039-.406a.796.796 0 0 1-.723-.814.827.827 0 0 1 .813-.723c2.938.181 5.966.317 8.949.362.407 0 .769.361.724.768 0 .497-.317.813-.724.813Zm26.984-.677a.781.781 0 0 1-.768-.678c-.046-.407.271-.769.678-.814 2.937-.226 5.966-.497 8.949-.768.407-.045.768.271.813.678.046.407-.271.768-.678.813-2.983.317-6.011.588-8.994.769Zm-44.973-.452h-.09a270.398 270.398 0 0 1-8.949-1.085c-.407-.045-.678-.452-.633-.858.045-.407.452-.678.859-.633 2.892.407 5.921.768 8.904 1.084.407.046.723.407.678.814-.045.406-.362.678-.769.678Zm62.872-1.401c-.362 0-.678-.271-.769-.678-.045-.407.226-.813.633-.859 2.938-.361 5.921-.813 8.904-1.265.407-.045.814.226.859.633.045.406-.226.813-.633.858-2.983.452-5.966.904-8.949 1.266 0 .045-.045.045-.045.045Zm-80.68-1.13h-.135a179.716 179.716 0 0 1-8.859-1.853c-.407-.09-.678-.497-.543-.903.091-.407.497-.678.904-.543 2.848.678 5.831 1.311 8.769 1.853.406.09.678.452.587.859-.045.361-.361.587-.723.587Zm98.443-1.627a.732.732 0 0 1-.724-.632c-.09-.407.181-.814.588-.859 2.893-.542 5.876-1.13 8.814-1.717a.769.769 0 0 1 .904.587.768.768 0 0 1-.588.904c-2.938.633-5.921 1.175-8.859 1.717h-.135Zm-115.935-2.53c-.09 0-.135 0-.226-.045a274.733 274.733 0 0 1-8.633-2.712.737.737 0 0 1-.452-.949.737.737 0 0 1 .95-.451 236.69 236.69 0 0 0 8.542 2.711c.407.135.633.542.497.949-.045.316-.361.497-.678.497Zm133.562-1.13c-.361 0-.633-.226-.723-.587-.091-.407.181-.814.542-.904a614.634 614.634 0 0 0 8.724-2.124c.406-.09.813.136.904.542.09.407-.136.814-.543.904a620.328 620.328 0 0 1-8.768 2.124c0 .045-.091.045-.136.045Zm17.447-4.473a.772.772 0 0 1-.723-.543.81.81 0 0 1 .542-.949 483.118 483.118 0 0 0 8.633-2.53c.407-.136.813.09.949.497.136.407-.09.813-.497.949a488.142 488.142 0 0 1-8.678 2.53c-.091.046-.136.046-.226.046Zm-168.003-.272c-.09 0-.181 0-.272-.045a134.974 134.974 0 0 1-8.271-3.66c-.362-.181-.542-.633-.362-.994.181-.362.633-.542.995-.362a164.745 164.745 0 0 0 8.18 3.615c.407.136.588.588.408.995-.136.271-.407.451-.678.451Zm185.223-4.97c-.316 0-.632-.181-.723-.497-.135-.407.091-.814.497-.949a309.884 309.884 0 0 0 8.498-2.937c.407-.136.813.045.949.451.136.407-.045.814-.452.949a313.47 313.47 0 0 1-8.543 2.938c-.045.045-.135.045-.226.045Zm-201.495-2.757c-.136 0-.226-.045-.362-.09a134.995 134.995 0 0 1-7.774-4.609c-.361-.226-.452-.678-.226-1.039.226-.362.678-.452 1.04-.226a145.047 145.047 0 0 0 7.729 4.564c.362.18.497.677.316 1.039a.943.943 0 0 1-.723.361Zm-15.187-9.579a.876.876 0 0 1-.452-.136 167.875 167.875 0 0 1-7.186-5.513c-.317-.271-.362-.723-.09-1.084a.726.726 0 0 1 1.039-.091c2.305 1.898 4.7 3.706 7.096 5.423.316.226.407.723.18 1.039a.62.62 0 0 1-.587.362Zm-13.92-11.388c-.182 0-.362-.045-.498-.181-.588-.542-1.13-1.039-1.672-1.581a116.934 116.934 0 0 1-4.746-4.745.824.824 0 0 1 0-1.084.825.825 0 0 1 1.084 0c1.492 1.581 3.12 3.163 4.701 4.699.543.542 1.13 1.04 1.672 1.582.317.271.317.768.046 1.084a.81.81 0 0 1-.588.226Zm-12.476-12.969c-.226 0-.406-.09-.587-.271-1.944-2.35-3.842-4.745-5.56-7.139-.226-.317-.18-.814.181-1.04.317-.226.814-.181 1.04.181 1.717 2.35 3.57 4.745 5.514 7.049a.78.78 0 0 1-.09 1.085.914.914 0 0 1-.498.135Zm-10.53-14.55a.722.722 0 0 1-.634-.362 113.31 113.31 0 0 1-4.43-7.907.743.743 0 0 1 .317-.995.743.743 0 0 1 .995.317 94.699 94.699 0 0 0 4.384 7.772c.226.361.09.813-.226 1.039a.725.725 0 0 1-.407.136ZM7.818 396.62a.805.805 0 0 1-.723-.451 100.774 100.774 0 0 1-2.983-8.541c-.136-.407.09-.813.497-.949.407-.135.814.09.95.497a115.687 115.687 0 0 0 2.937 8.405.807.807 0 0 1-.406.994c-.09 0-.181.045-.272.045Zm-5.152-17.216c-.362 0-.678-.226-.723-.588a99.298 99.298 0 0 1-1.356-8.947c-.046-.406.27-.768.678-.813.406-.045.768.271.813.678a96.424 96.424 0 0 0 1.356 8.811.768.768 0 0 1-.588.904c-.09-.045-.135-.045-.18-.045ZM.768 361.509a.761.761 0 0 1-.768-.768v-.813c0-2.757.136-5.513.362-8.269.045-.407.406-.723.813-.678.407.045.723.406.678.813a97.92 97.92 0 0 0-.361 8.134v.768c.045.497-.272.813-.724.813Zm1.537-17.894H2.17c-.407-.09-.678-.452-.588-.858.542-2.938 1.22-5.92 1.989-8.857.09-.407.542-.633.949-.542.407.09.633.542.542.948a111.036 111.036 0 0 0-1.989 8.722.775.775 0 0 1-.768.587Zm63.82-.045c-2.079 0-4.158-.136-6.237-.407a.77.77 0 0 1-.678-.858c.045-.407.452-.723.859-.678 2.938.361 5.921.452 8.859.271.407-.045.768.271.813.723.046.407-.27.768-.723.813-.994.136-1.943.136-2.892.136Zm11.707-1.491a.774.774 0 0 1-.723-.542c-.09-.407.135-.814.542-.904a40.844 40.844 0 0 0 8.226-3.163c.362-.181.814-.046 1.04.316.18.361.045.813-.317 1.039-2.621 1.401-5.514 2.486-8.542 3.299-.09-.045-.18-.045-.226-.045Zm-26.622-.768c-.09 0-.136 0-.226-.046a56.762 56.762 0 0 1-8.452-3.389c-.362-.18-.542-.632-.316-.994.18-.361.632-.542.994-.316 2.667 1.31 5.424 2.44 8.226 3.299.407.135.633.542.497.949-.135.316-.407.497-.723.497Zm42.351-7.592a.832.832 0 0 1-.542-.226.778.778 0 0 1 .045-1.084c2.17-2.034 4.023-4.293 5.469-6.824.226-.361.678-.497 1.04-.271.361.226.497.678.27 1.039a30.906 30.906 0 0 1-5.74 7.14c-.18.136-.361.226-.542.226Zm-58.397-.361a.876.876 0 0 1-.452-.136c-2.44-1.762-4.79-3.705-6.96-5.829-.316-.271-.316-.768 0-1.085.271-.316.768-.316 1.085 0a57.248 57.248 0 0 0 6.78 5.694c.316.226.406.723.18 1.039-.18.181-.406.317-.633.317Zm-28.068-7.05c-.09 0-.18 0-.271-.045a.737.737 0 0 1-.452-.949 102.676 102.676 0 0 1 3.525-8.36c.181-.361.633-.542.995-.361.361.181.542.633.361.994a109.353 109.353 0 0 0-3.48 8.224c-.09.316-.407.497-.678.497Zm15.187-5.422a.731.731 0 0 1-.588-.271 80.97 80.97 0 0 1-5.107-7.502c-.226-.361-.09-.813.271-1.039.362-.226.814-.09 1.04.271 1.536 2.576 3.209 5.061 5.017 7.366.27.316.18.813-.136 1.039-.18.045-.316.136-.497.136Zm80.092-2.486h-.181a.768.768 0 0 1-.588-.903 31.72 31.72 0 0 0 .678-6.598c0-.723 0-1.401-.045-2.124-.045-.406.271-.768.723-.813.407-.045.769.271.814.723.045.723.09 1.491.09 2.214 0 2.35-.226 4.7-.723 6.914a.827.827 0 0 1-.768.587Zm-87.595-8.314a.84.84 0 0 1-.362-.091c-.361-.225-.497-.677-.27-1.039a94.803 94.803 0 0 1 4.926-7.591c.226-.362.723-.407 1.04-.181.361.226.406.723.18 1.039a92.439 92.439 0 0 0-4.836 7.501.797.797 0 0 1-.678.362Zm-1.672-4.609c-.272 0-.543-.181-.678-.452-1.22-2.666-2.306-5.513-3.3-8.45-.136-.407.09-.814.497-.949.407-.136.814.09.95.497.949 2.847 2.079 5.648 3.254 8.314.18.362 0 .814-.362.995-.135 0-.271.045-.361.045Zm88.363-4.881a.773.773 0 0 1-.723-.542c-.091-.316-.181-.632-.272-.904a64.694 64.694 0 0 0-2.802-7.41c-.18-.362 0-.814.362-.995.361-.18.813 0 .994.362 1.085 2.35 2.034 4.88 2.893 7.592l.271.949c.136.406-.136.813-.497.948h-.226Zm-76.25-5.151c-.181 0-.362-.045-.497-.181a.78.78 0 0 1-.09-1.084c1.988-2.305 4.112-4.519 6.237-6.598a.779.779 0 0 1 1.084.046.778.778 0 0 1-.045 1.084c-2.124 2.033-4.158 4.203-6.147 6.462-.09.181-.316.271-.542.271Zm-17.899-7.004c-.361 0-.633-.226-.723-.588-.678-2.846-1.31-5.829-1.808-8.856-.045-.407.226-.814.633-.859.407-.09.813.226.859.633a130.76 130.76 0 0 0 1.762 8.766c.09.407-.135.814-.542.904h-.18Zm86.556-4.067a.789.789 0 0 1-.633-.316 35.425 35.425 0 0 0-5.921-6.462c-.317-.271-.362-.723-.09-1.085.27-.316.722-.361 1.084-.09 2.26 1.898 4.34 4.157 6.192 6.733.226.361.181.813-.18 1.039-.181.136-.317.181-.453.181Zm-55.64-1.31a.66.66 0 0 1-.588-.317c-.27-.316-.18-.813.136-1.039 2.486-1.898 5.017-3.615 7.548-5.061.362-.226.814-.09 1.04.271.226.362.09.813-.271 1.039a67.921 67.921 0 0 0-7.368 4.971c-.18.09-.316.136-.497.136Zm15.548-8.948c-.316 0-.587-.18-.723-.497a.807.807 0 0 1 .407-.994c2.938-1.175 5.92-1.988 8.769-2.53a.704.704 0 0 1 .858.632.704.704 0 0 1-.633.859 44.74 44.74 0 0 0-8.497 2.44c0 .045-.09.09-.18.09Zm26.306-.949c-.09 0-.18 0-.271-.045-2.667-1.084-5.514-1.717-8.498-1.988-.406-.045-.723-.407-.678-.813.046-.407.407-.723.814-.678 3.119.226 6.147.949 8.95 2.078.406.136.587.588.406.995a.805.805 0 0 1-.723.451Zm-75.663-2.44c-.406 0-.723-.271-.768-.677-.271-2.938-.497-5.965-.588-8.993 0-.407.317-.768.724-.768.406 0 .768.316.768.723.09 3.028.316 6.01.588 8.947.045.407-.272.768-.678.814 0-.046-.046-.046-.046-.046Zm-.678-17.984a.762.762 0 0 1-.768-.769c.045-2.937.18-5.964.362-9.037a.827.827 0 0 1 .813-.723.828.828 0 0 1 .723.813c-.18 3.028-.316 6.055-.361 8.947-.045.452-.362.769-.769.769Zm1.085-17.94h-.09c-.407-.045-.723-.407-.678-.813.316-3.028.723-6.01 1.175-8.947.045-.407.452-.678.859-.633.407.045.678.452.633.858a181.952 181.952 0 0 0-1.176 8.857c0 .407-.316.678-.723.678Zm2.848-17.759h-.181a.767.767 0 0 1-.588-.903c.633-2.938 1.356-5.92 2.17-8.767.09-.407.542-.633.95-.542.406.09.632.542.541.949a173.754 173.754 0 0 0-2.124 8.676.775.775 0 0 1-.768.587Zm4.79-17.307c-.09 0-.18 0-.225-.045-.407-.135-.588-.542-.452-.949.994-2.847 2.034-5.693 3.164-8.45.18-.407.587-.587.994-.407.407.181.588.588.407.995-1.13 2.711-2.17 5.558-3.164 8.359-.09.317-.407.497-.723.497Zm6.871-16.629a.84.84 0 0 1-.316-.09c-.362-.181-.543-.633-.362-.994a134.135 134.135 0 0 1 4.203-7.998c.226-.362.678-.498 1.04-.272.362.226.497.678.271 1.04a163.443 163.443 0 0 0-4.158 7.908.745.745 0 0 1-.678.406Zm8.859-15.589a.733.733 0 0 1-.407-.136c-.361-.226-.452-.678-.226-1.039a135.368 135.368 0 0 1 5.198-7.366c.271-.316.723-.407 1.04-.136.316.272.406.723.135 1.04-1.808 2.35-3.525 4.835-5.153 7.32-.09.181-.361.317-.587.317Zm10.847-14.37c-.18 0-.361-.045-.497-.181a.78.78 0 0 1-.09-1.084 141.388 141.388 0 0 1 6.102-6.643c.271-.316.768-.316 1.085 0 .316.271.316.768 0 1.084a139.4 139.4 0 0 0-6.057 6.598.837.837 0 0 1-.543.226Zm12.566-12.834a.644.644 0 0 1-.543-.271.778.778 0 0 1 .046-1.084c2.214-1.988 4.565-3.932 6.915-5.829.316-.272.814-.226 1.04.135.27.316.225.814-.136 1.04a142.506 142.506 0 0 0-6.825 5.738c-.136.226-.316.271-.497.271Zm206.241-4.789c-.181 0-.362-.091-.542-.226-2.125-2.034-4.339-4.067-6.645-5.965-.316-.271-.361-.723-.09-1.085.271-.316.723-.361 1.085-.09 2.35 1.943 4.61 3.931 6.734 6.01.317.271.317.768 0 1.084-.135.226-.361.272-.542.272Zm-192.14-6.327a.789.789 0 0 1-.632-.316c-.226-.362-.136-.813.18-1.039a134.813 134.813 0 0 1 7.549-4.926c.362-.226.814-.09 1.04.271.225.362.09.814-.272 1.04-2.53 1.536-5.062 3.208-7.503 4.88a.855.855 0 0 1-.361.09Zm178.264-5.061a.875.875 0 0 1-.452-.135 97.296 97.296 0 0 0-7.548-4.79c-.362-.226-.497-.678-.271-1.04.226-.361.678-.497 1.039-.271 2.622 1.537 5.198 3.163 7.639 4.881.361.226.407.723.181 1.039a.66.66 0 0 1-.588.316ZM81.042 119.8a.745.745 0 0 1-.679-.406c-.18-.362-.045-.814.317-1.04a149.412 149.412 0 0 1 8.09-4.021c.362-.181.814 0 .994.361.181.362 0 .813-.361.994a187.584 187.584 0 0 0-8 3.977c-.136.135-.272.135-.362.135Zm147.437-4.744a.841.841 0 0 1-.316-.091c-2.622-1.31-5.379-2.53-8.136-3.66-.407-.181-.588-.588-.407-.994.181-.407.588-.588.994-.407 2.803 1.13 5.56 2.395 8.227 3.705.361.181.542.633.361.995-.181.271-.452.452-.723.452Zm-131.121-2.802c-.317 0-.588-.181-.723-.497a.806.806 0 0 1 .406-.994c2.758-1.085 5.65-2.169 8.498-3.118a.756.756 0 0 1 .949.452.759.759 0 0 1-.452.949c-2.848.948-5.65 1.988-8.407 3.072-.09.091-.18.136-.271.136Zm114.488-4.022c-.091 0-.181 0-.226-.045a133.024 133.024 0 0 0-8.543-2.576c-.406-.09-.633-.542-.542-.903.09-.407.542-.633.904-.543 2.938.768 5.831 1.672 8.633 2.621.407.136.587.542.452.949-.045.271-.362.497-.678.497Zm-97.494-1.717a.774.774 0 0 1-.723-.542.81.81 0 0 1 .543-.949c2.892-.814 5.83-1.537 8.768-2.214a.767.767 0 0 1 .904.587.768.768 0 0 1-.587.904c-2.893.632-5.831 1.401-8.679 2.169a.407.407 0 0 1-.226.045Zm80.138-2.982h-.136a188.515 188.515 0 0 0-8.814-1.582c-.407-.045-.678-.452-.633-.858.046-.407.452-.678.859-.633 2.983.452 5.966.994 8.904 1.581a.77.77 0 0 1 .588.904.827.827 0 0 1-.768.588Zm-62.555-.949a.73.73 0 0 1-.723-.633c-.091-.407.226-.813.632-.858 2.938-.498 5.967-.949 8.95-1.266.406-.045.768.226.858.678.046.407-.226.768-.678.859-2.938.361-5.921.768-8.859 1.265-.09-.045-.135-.045-.18-.045Zm44.792-1.717h-.091c-2.938-.272-5.966-.452-8.949-.588-.407 0-.723-.361-.723-.768 0-.407.361-.723.768-.723 2.983.136 6.057.316 8.995.587.406.046.723.407.678.814.045.406-.317.678-.678.678Zm-26.939-.362c-.407 0-.723-.316-.768-.723-.045-.407.271-.768.723-.813a198.7 198.7 0 0 1 9.04-.362c.406 0 .768.317.768.723 0 .407-.316.768-.723.768-2.983.046-5.966.136-8.949.362l-.091.045ZM286.875 457.67c-.316 0-.587-.181-.723-.498a.807.807 0 0 1 .407-.994c2.667-1.04 4.158-1.718 4.158-1.718.362-.18.814 0 .995.407.18.362 0 .814-.407.995 0 0-1.492.632-4.204 1.717a.345.345 0 0 1-.226.091Z" fill="#FF8548"/><path d="M328.549 137.197h-.181a.768.768 0 0 1-.588-.904 37.754 37.754 0 0 1 1.221-4.428c.135-.407.542-.633.949-.497.407.136.633.542.497.949a46.187 46.187 0 0 0-1.175 4.293c-.045.361-.362.587-.723.587ZM531.219 350.303c-.316 0-.587-.181-.723-.497-.136-.407.045-.814.452-.995 2.667-.994 5.379-2.259 8.045-3.705.362-.181.814-.045 1.04.316.181.362.045.814-.317 1.04a63.94 63.94 0 0 1-8.226 3.796c-.09.045-.18.045-.271.045Zm15.729-8.496a.79.79 0 0 1-.633-.316c-.226-.316-.18-.813.181-1.039a74.026 74.026 0 0 0 6.87-5.604.78.78 0 0 1 1.085.046c.317.316.271.768-.045 1.084a76.897 76.897 0 0 1-7.006 5.694c-.181.09-.316.135-.452.135Zm13.108-12.11c-.181 0-.362-.045-.497-.181-.317-.271-.362-.723-.091-1.084a67.367 67.367 0 0 0 5.243-7.14c.226-.361.678-.452 1.04-.226.361.226.452.678.226 1.039a70.184 70.184 0 0 1-5.379 7.276c-.09.226-.316.316-.542.316Zm9.627-15.047a.841.841 0 0 1-.316-.091c-.362-.181-.543-.632-.362-.994 1.22-2.666 2.305-5.422 3.164-8.269.136-.407.542-.633.949-.497.407.135.633.542.497.949a67.976 67.976 0 0 1-3.254 8.45c-.136.271-.407.452-.678.452Zm5.288-17.036h-.135a.792.792 0 0 1-.633-.859c.497-2.847.813-5.829.994-8.811 0-.407.362-.723.814-.723.407 0 .723.361.723.813-.136 3.028-.497 6.055-.994 8.992a.828.828 0 0 1-.769.588Zm.949-17.849c-.406 0-.723-.317-.768-.723-.181-2.892-.497-5.83-.949-8.812-.045-.407.226-.813.633-.859.407-.045.813.226.858.633.498 3.028.814 6.055.995 8.947 0 .452-.317.814-.769.814Zm-2.757-17.669c-.361 0-.632-.226-.723-.587a105.6 105.6 0 0 0-2.441-8.541c-.135-.406.091-.813.498-.949.406-.135.813.091.949.497.949 2.892 1.763 5.83 2.486 8.676.09.407-.136.814-.543.904h-.226Zm-5.424-17.036c-.316 0-.632-.18-.723-.542-.949-2.892-1.717-5.829-2.35-8.721a.769.769 0 0 1 .588-.904.77.77 0 0 1 .904.588c.587 2.846 1.401 5.738 2.305 8.54.135.407-.091.813-.498.949-.045.09-.135.09-.226.09Zm-3.706-17.487a.776.776 0 0 1-.768-.678 74.668 74.668 0 0 1-.407-7.772v-1.266c0-.406.362-.723.768-.723.407 0 .769.362.724.769v1.22c0 2.53.135 5.106.361 7.636.045.407-.271.769-.678.814Zm.271-17.849h-.09c-.407-.046-.723-.452-.633-.859a73.221 73.221 0 0 1 1.763-8.857c.09-.406.497-.632.904-.542.407.09.633.497.542.904a81.866 81.866 0 0 0-1.717 8.676c-.045.406-.362.678-.769.678Zm62.601-1.13c-.407 0-.769-.316-.769-.723s.316-.768.723-.768c3.029-.046 5.967-.271 8.814-.723.407-.045.814.226.859.632.045.407-.226.814-.633.859-2.893.407-5.921.678-8.994.723Zm-8.95-.362h-.09a78.087 78.087 0 0 1-8.95-1.355.768.768 0 0 1-.587-.904.767.767 0 0 1 .904-.587c2.938.587 5.876 1.039 8.768 1.31.407.045.724.407.678.813a.713.713 0 0 1-.723.723Zm26.577-2.304a.774.774 0 0 1-.723-.542c-.136-.407.09-.814.497-.949 2.938-.904 5.695-2.034 8.136-3.389.361-.181.813-.046 1.039.316.181.361.045.813-.316 1.039-2.531 1.356-5.334 2.531-8.407 3.48-.045.045-.136.045-.226.045Zm-44.114-1.265c-.09 0-.135 0-.226-.046a94.532 94.532 0 0 1-8.452-3.118.807.807 0 0 1-.407-.994.808.808 0 0 1 .995-.406 107.773 107.773 0 0 0 8.316 3.072c.407.136.633.543.497.949a.732.732 0 0 1-.723.543Zm-16.452-6.959c-.136 0-.226-.046-.362-.091-2.621-1.446-5.243-2.982-7.729-4.699-.361-.226-.452-.723-.226-1.04.226-.361.723-.451 1.04-.226 2.441 1.672 5.017 3.209 7.593 4.61.362.18.497.677.317 1.039-.091.271-.362.407-.633.407Zm76.024-.497a.834.834 0 0 1-.542-.226c-.317-.317-.317-.769 0-1.085 2.169-2.169 3.751-4.564 4.79-7.094.136-.407.588-.588.995-.407.407.136.587.587.407.994-1.085 2.757-2.803 5.332-5.108 7.637-.135.135-.361.181-.542.181Zm-91.211-4.745c-.09 0-.181 0-.271-.045-.407-.136-.588-.588-.407-.994a79.063 79.063 0 0 1 3.752-8.225c.18-.361.632-.497 1.039-.316.362.181.497.633.317 1.039-1.402 2.621-2.622 5.333-3.707 8.044-.135.316-.407.497-.723.497Zm.362-4.745c-.181 0-.317-.045-.498-.181a93.919 93.919 0 0 1-6.689-6.055c-.316-.271-.316-.768 0-1.084.271-.317.769-.317 1.085 0 2.079 2.078 4.339 4.067 6.599 5.964.316.272.361.724.09 1.085a.726.726 0 0 1-.587.271Zm97.131-6.642c-.406 0-.723-.317-.768-.723-.181-2.712-.904-5.513-2.169-8.36-.181-.362 0-.814.406-.994.362-.181.814 0 .995.406 1.311 3.028 2.079 6.01 2.26 8.857.045.407-.272.768-.724.814.046 0 .046 0 0 0Zm-89.086-4.384c-.136 0-.316-.045-.407-.135-.361-.226-.407-.723-.181-1.04a77.455 77.455 0 0 1 5.56-7.139.738.738 0 0 1 1.085-.045.78.78 0 0 1 .09 1.084 80.234 80.234 0 0 0-5.469 6.959c-.226.181-.452.316-.678.316Zm-20.746-1.581c-.226 0-.407-.091-.588-.271a96.444 96.444 0 0 1-5.469-7.14c-.226-.362-.135-.813.181-1.039.362-.226.814-.136 1.04.18a103.94 103.94 0 0 0 5.423 7.05.78.78 0 0 1-.09 1.084.906.906 0 0 1-.497.136Zm103.143-10.348a.79.79 0 0 1-.633-.317c-1.762-2.44-3.706-4.699-5.785-6.642-.317-.271-.316-.768-.045-1.085.271-.316.768-.316 1.084-.045a46.051 46.051 0 0 1 5.967 6.824c.226.316.18.813-.181 1.039a.477.477 0 0 1-.407.226Zm-70.6-1.491a.646.646 0 0 1-.543-.272.778.778 0 0 1 .046-1.084c2.26-2.034 4.655-3.886 7.096-5.603.361-.226.813-.136 1.039.18.226.362.136.814-.18 1.04a65.936 65.936 0 0 0-6.961 5.467c-.136.226-.316.272-.497.272Zm-42.803-2.757a.722.722 0 0 1-.633-.361 111.303 111.303 0 0 1-4.249-7.953.724.724 0 0 1 .362-.995.723.723 0 0 1 .994.362 143.889 143.889 0 0 0 4.159 7.863c.226.361.09.813-.272 1.039-.09 0-.226.045-.361.045Zm57.538-7.32a.745.745 0 0 1-.362-1.401 57.049 57.049 0 0 1 8.362-3.434c.407-.136.813.09.949.497.136.406-.09.813-.497.949-2.757.903-5.469 2.033-8.181 3.343-.045 0-.136.046-.271.046Zm42.893-.588a.849.849 0 0 1-.361-.09 37.185 37.185 0 0 0-8.001-3.525c-.406-.135-.632-.542-.497-.949.136-.406.543-.632.949-.497a41.602 41.602 0 0 1 8.362 3.66c.362.226.497.678.271 1.04-.226.271-.497.361-.723.361Zm-25.899-4.835c-.361 0-.678-.271-.768-.632-.045-.407.226-.814.633-.859 3.073-.407 6.147-.542 9.085-.316a.827.827 0 0 1 .723.813c0 .407-.362.723-.814.723a44.092 44.092 0 0 0-8.768.316c-.045-.045-.091-.045-.091-.045Zm-82.352-3.344c-.316 0-.587-.18-.723-.497-1.084-2.756-2.124-5.603-3.028-8.45-.136-.407.09-.813.497-.949.407-.135.814.091.949.497a122.054 122.054 0 0 0 2.983 8.36.807.807 0 0 1-.406.994c-.091.045-.181.045-.272.045Zm-5.83-16.9c-.317 0-.588-.181-.723-.497-1.04-2.802-2.26-5.558-3.526-8.134a.722.722 0 0 1 .362-.994.722.722 0 0 1 .994.362 96.893 96.893 0 0 1 3.571 8.269c.135.407-.045.813-.452.994-.045-.045-.136 0-.226 0Zm-199.326-2.937c-.136 0-.226-.045-.362-.091a.742.742 0 0 1-.316-.994c1.356-2.621 2.938-5.196 4.701-7.727.226-.361.723-.406 1.039-.181.362.226.407.723.181 1.04-1.717 2.485-3.299 5.016-4.61 7.546-.091.271-.362.407-.633.407Zm191.461-13.105a.722.722 0 0 1-.633-.361c-1.581-2.531-3.254-4.971-5.062-7.275-.271-.317-.181-.814.136-1.04.316-.271.813-.18 1.039.136 1.808 2.35 3.571 4.835 5.153 7.411.226.361.09.813-.226 1.039-.136.045-.271.09-.407.09Zm-181.246-1.536c-.181 0-.362-.045-.497-.181-.317-.271-.317-.768-.046-1.084a84.96 84.96 0 0 1 6.374-6.372.779.779 0 0 1 1.084.045.78.78 0 0 1-.045 1.085 102.825 102.825 0 0 0-6.283 6.281c-.18.181-.361.226-.587.226Zm13.198-12.02a.66.66 0 0 1-.588-.316c-.271-.317-.18-.814.136-1.04 2.35-1.762 4.836-3.524 7.367-5.151.362-.226.814-.135 1.04.226.226.362.135.813-.226 1.04a109.427 109.427 0 0 0-7.277 5.105c-.136.046-.271.136-.452.136Zm157.11-.542a.832.832 0 0 1-.542-.226 74.287 74.287 0 0 0-6.509-6.01c-.316-.271-.361-.723-.09-1.085.271-.316.723-.361 1.085-.09a77.528 77.528 0 0 1 6.644 6.146.825.825 0 0 1 0 1.084c-.226.09-.407.18-.588.18Zm-142.059-9.173a.746.746 0 0 1-.678-.407c-.181-.362-.045-.813.316-1.04a111.777 111.777 0 0 1 8.046-4.066c.361-.18.813 0 .994.361.181.362 0 .814-.361.994a145.327 145.327 0 0 0-7.955 4.022.725.725 0 0 1-.362.136Zm128.274-2.215a.727.727 0 0 1-.407-.135 80.337 80.337 0 0 0-7.639-4.474c-.361-.18-.497-.632-.316-1.039.181-.361.633-.497 1.039-.316a94.61 94.61 0 0 1 7.775 4.564c.361.226.452.677.226 1.039-.181.226-.407.361-.678.361Zm-112.093-5.377c-.316 0-.587-.18-.723-.497a.806.806 0 0 1 .407-.994c2.757-1.085 5.604-2.124 8.452-3.028.407-.135.813.09.949.498.136.406-.09.813-.497.948a131.21 131.21 0 0 0-8.362 3.028c-.045 0-.136.045-.226.045Zm96.273-2.892c-.09 0-.181 0-.271-.045a96.891 96.891 0 0 0-8.407-2.937c-.407-.136-.633-.543-.497-.95.135-.406.542-.632.949-.496 2.893.858 5.785 1.852 8.497 2.982.407.136.588.588.407.994-.09.271-.407.452-.678.452Zm-79.233-2.666a.773.773 0 0 1-.723-.542c-.091-.407.135-.814.542-.904a145.023 145.023 0 0 1 8.769-2.033c.407-.09.813.18.904.587a.768.768 0 0 1-.588.904c-2.893.587-5.83 1.265-8.678 2.033-.09-.045-.181-.045-.226-.045Zm62.103-2.44h-.136a107.47 107.47 0 0 0-8.768-1.446c-.407-.045-.723-.452-.633-.859.045-.406.452-.723.859-.632 3.028.406 6.011.904 8.904 1.49.407.091.678.498.587.905-.18.27-.497.542-.813.542Zm-44.566-1.085c-.362 0-.678-.27-.768-.632-.046-.407.226-.814.632-.859 2.984-.407 5.967-.723 8.95-.994.407-.045.768.271.813.678.046.407-.271.768-.678.813-2.938.226-5.921.543-8.859.95 0 .044-.045.044-.09.044Zm26.803-1.22a118.25 118.25 0 0 0-8.95-.18c-.406 0-.768-.317-.768-.723 0-.407.317-.769.723-.769 3.029-.045 6.057 0 8.995.181a.795.795 0 0 1 .723.813c0 .362-.316.678-.723.678ZM517.931 353.195a.762.762 0 0 1-.769-.768c0-.407.317-.769.769-.769 1.31 0 2.802-.135 4.384-.406.407-.091.814.226.859.632.09.407-.226.814-.633.859a24.387 24.387 0 0 1-4.61.452Z" fill="#66192D"/><path d="M382.697 148.901h-.046c-1.491-.09-3.028-.18-4.52-.271a.795.795 0 0 1-.723-.813.828.828 0 0 1 .814-.723c1.491.09 3.028.18 4.52.271.407.045.723.406.678.813 0 .452-.317.723-.723.723ZM525.479 580.309h-1.898c-.407 0-.769-.362-.724-.768 0-.407.362-.723.769-.723 3.028.045 6.011 0 8.994-.226.407-.046.769.271.814.723.045.406-.271.768-.723.813-2.396.09-4.791.181-7.232.181Zm-10.938-.542h-.091c-2.983-.272-6.056-.723-9.039-1.221a.79.79 0 0 1-.633-.858.791.791 0 0 1 .859-.633c2.983.543 5.966.949 8.949 1.22.407.046.723.407.678.814 0 .361-.316.678-.723.678Zm27.164-.678a.73.73 0 0 1-.723-.633c-.045-.407.226-.813.633-.858 2.938-.452 5.921-1.04 8.859-1.718.406-.09.813.136.904.543.09.406-.136.813-.543.903-2.938.723-5.966 1.266-8.949 1.718-.136.045-.181.045-.181.045Zm-45.018-2.35h-.18a139.67 139.67 0 0 1-8.814-2.305c-.407-.135-.633-.542-.497-.949.135-.406.542-.632.949-.497 2.847.814 5.785 1.582 8.723 2.26.407.09.678.497.588.903-.136.362-.452.588-.769.588Zm62.646-1.853c-.317 0-.633-.18-.724-.497-.135-.406.091-.813.498-.949a110.782 110.782 0 0 0 8.407-3.163c.406-.181.813 0 .994.407.181.361 0 .813-.407.994a114.152 114.152 0 0 1-8.542 3.208h-.226Zm-80.092-3.208c-.091 0-.181 0-.272-.045-2.847-.994-5.74-2.124-8.497-3.254-.407-.181-.587-.587-.407-.994.181-.407.588-.587.995-.407a146.143 146.143 0 0 0 8.407 3.254.737.737 0 0 1 .452.949c-.045.316-.362.497-.678.497Zm96.77-3.886a.746.746 0 0 1-.678-.407c-.181-.361-.045-.813.316-1.039 2.622-1.401 5.243-2.892 7.775-4.519.361-.226.813-.136 1.039.226.226.361.136.813-.226 1.039a115.284 115.284 0 0 1-7.91 4.564c-.09.136-.226.136-.316.136Zm-113.494-3.118a.823.823 0 0 1-.316-.091c-2.712-1.355-5.424-2.756-8.045-4.247-.362-.226-.498-.678-.272-1.039.226-.362.678-.498 1.04-.272 2.576 1.492 5.288 2.892 7.955 4.203.361.181.542.632.361.994-.135.316-.406.452-.723.452Zm128.771-6.598a.66.66 0 0 1-.588-.316c-.271-.316-.18-.813.136-1.039 2.396-1.808 4.746-3.706 6.961-5.694.316-.271.768-.226 1.084.045.272.317.226.768-.045 1.085a106.59 106.59 0 0 1-7.051 5.784c-.181.09-.361.135-.497.135Zm-144.5-2.349a.736.736 0 0 1-.407-.136c-2.531-1.672-5.062-3.389-7.458-5.197-.316-.271-.406-.722-.135-1.039.226-.316.723-.407 1.039-.135a120.84 120.84 0 0 0 7.413 5.151c.362.226.452.678.226 1.039-.181.181-.452.317-.678.317Zm158.06-9.671c-.181 0-.362-.09-.543-.225-.316-.272-.316-.769 0-1.085a120.832 120.832 0 0 0 6.012-6.733c.271-.316.723-.361 1.084-.09.317.271.362.723.091 1.084a124.653 124.653 0 0 1-6.102 6.824c-.136.18-.362.225-.542.225Zm-172.614-1.174a.682.682 0 0 1-.497-.181c-2.305-1.943-4.61-3.977-6.78-6.101-.316-.271-.316-.768-.045-1.084.271-.316.768-.316 1.085-.045a120.814 120.814 0 0 0 6.734 6.01c.317.271.362.723.091 1.084-.181.226-.362.317-.588.317Zm-13.153-12.472a.839.839 0 0 1-.542-.226 141.155 141.155 0 0 1-6.011-6.823.78.78 0 0 1 .09-1.085.782.782 0 0 1 1.085.09c1.943 2.305 3.932 4.609 5.966 6.779a.779.779 0 0 1-.045 1.084c-.181.09-.362.181-.543.181Zm197.292-.317a.878.878 0 0 1-.452-.135c-.361-.226-.406-.723-.18-1.039a103.586 103.586 0 0 0 4.881-7.592c.226-.361.678-.497 1.039-.271.362.226.498.678.272 1.039a105.925 105.925 0 0 1-4.972 7.682c-.091.226-.317.316-.588.316Zm-208.908-13.646a.658.658 0 0 1-.587-.317 138.427 138.427 0 0 1-5.198-7.501c-.226-.361-.136-.813.226-1.039.361-.226.813-.136 1.039.226a167.451 167.451 0 0 0 5.153 7.411c.226.316.181.813-.136 1.039-.18.136-.316.181-.497.181Zm218.129-1.943a.846.846 0 0 1-.317-.091c-.361-.18-.542-.632-.361-.994a111.718 111.718 0 0 0 3.616-8.269c.135-.407.587-.588.994-.452.407.136.588.587.452.994a104.309 104.309 0 0 1-3.661 8.36c-.181.271-.407.452-.723.452Zm-228.072-13.24a.72.72 0 0 1-.633-.362 174.781 174.781 0 0 1-4.339-8.043.722.722 0 0 1 .361-.994.723.723 0 0 1 .995.361 123.67 123.67 0 0 0 4.294 7.953c.226.362.09.814-.272 1.04-.135.045-.271.045-.406.045Zm234.626-3.661c-.091 0-.136 0-.226-.045-.407-.135-.633-.542-.498-.949.859-2.892 1.537-5.829 2.125-8.766a.746.746 0 0 1 .904-.588c.406.091.678.452.587.904-.587 2.937-1.265 5.92-2.124 8.902-.136.317-.452.542-.768.542Zm3.389-17.804h-.09c-.407-.045-.723-.406-.678-.813.226-2.576.362-5.151.362-7.682v-1.31c0-.407.316-.768.723-.768s.768.316.768.723v1.31c0 2.576-.135 5.197-.361 7.818 0 .406-.362.722-.724.722Zm-.316-18.12c-.362 0-.678-.271-.768-.678-.407-2.982-.949-5.964-1.673-8.811-.09-.407.136-.814.543-.904.407-.09.813.136.904.542.768 2.938 1.31 5.965 1.717 8.993.045.406-.226.813-.633.858h-.09Zm-4.52-17.533c-.316 0-.587-.18-.723-.497a66.123 66.123 0 0 0-3.842-8.088c-.181-.362-.09-.814.271-1.04.362-.18.814-.09 1.04.272a69.292 69.292 0 0 1 3.932 8.269.806.806 0 0 1-.407.994c-.09.09-.18.09-.271.09Zm-57.944-8.088c-2.351 0-4.52-.362-6.554-1.04a.737.737 0 0 1-.452-.949.737.737 0 0 1 .949-.451c2.531.903 5.469 1.175 8.633.813.407-.045.768.271.813.678.046.407-.271.768-.677.813-.904.045-1.808.136-2.712.136Zm11.435-2.44c-.317 0-.588-.181-.723-.497a.807.807 0 0 1 .407-.995c2.576-.994 5.243-2.349 8-3.976.361-.226.813-.09 1.039.271.226.362.091.813-.271 1.039a57.627 57.627 0 0 1-8.226 4.067c-.045.091-.136.091-.226.091Zm-24.95-3.841a.658.658 0 0 1-.587-.317c-1.853-2.395-3.119-5.377-3.616-8.631-.045-.406.226-.813.633-.858.406-.045.813.226.858.633.452 2.982 1.627 5.738 3.3 7.953.271.316.181.813-.136 1.039a.644.644 0 0 1-.452.181Zm62.645-1.446a.658.658 0 0 1-.587-.317 69.475 69.475 0 0 0-5.785-6.868.823.823 0 0 1 0-1.085.824.824 0 0 1 1.084 0 72.337 72.337 0 0 1 5.921 7.004c.272.317.181.814-.135 1.04-.181.18-.317.226-.498.226Zm-22.056-3.796a.66.66 0 0 1-.588-.316c-.271-.317-.181-.814.136-1.04a43.192 43.192 0 0 0 6.463-6.1.78.78 0 0 1 1.085-.09.78.78 0 0 1 .09 1.084 41.962 41.962 0 0 1-6.689 6.326c-.181.091-.317.136-.497.136Zm9.536-9.264c-.18 0-.316-.045-.497-.18l-.813-.678a129.05 129.05 0 0 0-6.373-4.745c-.362-.226-.407-.723-.181-1.039.226-.362.723-.407 1.039-.181a96.069 96.069 0 0 1 6.464 4.835c.271.226.542.452.859.678.316.271.361.723.09 1.084a.86.86 0 0 1-.588.226Zm-53.063-2.756c-.09 0-.135 0-.226-.045-.406-.136-.632-.542-.497-.949.904-3.118 2.486-5.92 4.61-8.134.272-.316.769-.316 1.085-.045.317.271.317.768.045 1.084-1.943 2.034-3.39 4.655-4.248 7.501-.136.362-.407.588-.769.588Zm55.278-1.627a.852.852 0 0 1-.361-.09c-.362-.226-.498-.678-.272-1.039 1.447-2.486 2.712-5.197 3.797-8.089.136-.407.588-.588.995-.452.406.136.587.587.452.994-1.13 2.937-2.441 5.739-3.933 8.315-.135.226-.407.361-.678.361Zm-17.13-5.829c-.136 0-.226-.045-.362-.09a60.345 60.345 0 0 0-8.135-3.706.737.737 0 0 1-.452-.949.738.738 0 0 1 .949-.452 56.174 56.174 0 0 1 8.362 3.796c.361.181.497.678.316 1.039-.181.181-.452.362-.678.362Zm-26.08-5.016a.774.774 0 0 1-.723-.542c-.135-.407.091-.814.497-.949 2.803-.859 5.921-1.13 9.266-.813.407.045.723.406.678.813-.045.407-.407.723-.814.678-3.163-.317-6.056-.045-8.678.723a.344.344 0 0 1-.226.09Zm49.809-6.01H618c-.406-.09-.632-.497-.542-.904a101.364 101.364 0 0 0 1.718-8.811c.045-.407.452-.678.858-.633.407.045.678.452.633.859-.452 3.118-1.039 6.1-1.717 8.992-.136.271-.452.497-.769.497Zm2.576-17.939c-.451-.046-.768-.362-.768-.814.136-2.124.181-4.338.181-6.552 0-.813 0-1.672-.045-2.485 0-.407.316-.768.723-.768s.768.316.768.723c0 .858.045 1.671.045 2.53 0 2.214-.045 4.474-.18 6.597 0 .452-.317.769-.724.769Zm-.316-18.121a.78.78 0 0 1-.768-.677 127.587 127.587 0 0 0-1.04-8.993c-.045-.407.226-.813.633-.858.407-.046.814.226.859.632.452 3.028.768 6.101 1.039 9.038.046.406-.271.768-.678.813 0 .045-.045.045-.045.045Zm-2.576-17.984c-.362 0-.678-.272-.723-.588-.588-2.892-1.221-5.874-1.989-8.811-.09-.407.135-.814.542-.904.407-.091.814.135.904.542a227.456 227.456 0 0 1 1.989 8.902.769.769 0 0 1-.588.904c-.045-.045-.09-.045-.135-.045Zm-4.384-17.578a.774.774 0 0 1-.724-.543c-.858-2.846-1.762-5.738-2.757-8.585a.758.758 0 0 1 .452-.949.756.756 0 0 1 .949.452 214.14 214.14 0 0 1 2.803 8.676c.135.406-.091.813-.497.949h-.226Zm-5.921-17.172c-.317 0-.588-.18-.724-.497a218.386 218.386 0 0 0-3.48-8.36c-.181-.361 0-.813.407-.994.361-.18.813 0 .994.407a219.575 219.575 0 0 1 3.481 8.405.808.808 0 0 1-.407.994c-.091.045-.181.045-.271.045Zm-7.323-16.584a.746.746 0 0 1-.678-.406 222.212 222.212 0 0 0-4.113-8.044c-.181-.361-.045-.813.317-1.039.361-.181.813-.045 1.039.316 1.447 2.666 2.803 5.378 4.158 8.089a.722.722 0 0 1-.361.994c-.136.045-.226.09-.362.09Zm-8.542-15.996a.723.723 0 0 1-.633-.362 196.123 196.123 0 0 0-4.701-7.727c-.226-.361-.135-.813.226-1.039.362-.226.814-.136 1.04.226a359.89 359.89 0 0 1 4.746 7.772c.226.362.09.814-.271 1.04-.136.045-.272.09-.407.09Zm-9.718-15.364a.863.863 0 0 1-.633-.316 301.954 301.954 0 0 0-5.243-7.366c-.226-.316-.181-.813.136-1.039.316-.271.813-.181 1.039.135a279.647 279.647 0 0 1 5.289 7.411c.226.362.135.814-.181 1.039-.136.136-.271.136-.407.136Zm-10.802-14.55a.73.73 0 0 1-.588-.272 169.19 169.19 0 0 0-5.785-6.958.78.78 0 0 1 .09-1.085.782.782 0 0 1 1.085.09 206.076 206.076 0 0 1 5.785 7.005c.271.316.226.813-.135 1.039a.652.652 0 0 1-.452.181Zm-11.842-13.783a.749.749 0 0 1-.543-.226 288.205 288.205 0 0 0-6.237-6.552.824.824 0 0 1 0-1.084.826.826 0 0 1 1.085 0 215.85 215.85 0 0 1 6.282 6.552.779.779 0 0 1-.045 1.084.716.716 0 0 1-.542.226Zm-12.792-12.833c-.18 0-.361-.045-.497-.226-2.169-2.033-4.429-4.112-6.689-6.055a.78.78 0 0 1-.091-1.085.782.782 0 0 1 1.085-.09c2.26 1.988 4.565 4.022 6.735 6.1.316.272.316.769.045 1.085-.181.181-.362.271-.588.271Zm-13.65-11.93c-.18 0-.316-.045-.497-.18a274.474 274.474 0 0 0-7.141-5.558c-.317-.272-.407-.723-.136-1.04.272-.316.723-.406 1.04-.135a278.368 278.368 0 0 1 7.186 5.603.725.725 0 0 1 .091 1.039.707.707 0 0 1-.543.271Zm-14.508-10.89a.872.872 0 0 1-.452-.135c-2.441-1.718-4.972-3.389-7.503-5.016-.362-.226-.452-.678-.226-1.04.226-.361.678-.451 1.039-.225a271.355 271.355 0 0 1 7.549 5.061c.361.226.406.723.18 1.039-.135.181-.361.316-.587.316Zm-15.277-9.851a1.32 1.32 0 0 1-.407-.09c-2.577-1.536-5.243-3.028-7.865-4.474-.361-.18-.497-.677-.316-1.039.181-.361.678-.497 1.039-.316 2.667 1.446 5.289 2.982 7.91 4.518.362.226.497.678.271 1.04-.09.226-.361.361-.632.361Zm-15.91-8.676c-.136 0-.226-.045-.317-.09a190.67 190.67 0 0 0-8.135-3.886c-.362-.181-.543-.633-.362-.994.181-.362.633-.543.994-.362a274.238 274.238 0 0 1 8.226 3.931c.362.181.543.633.317.995-.181.225-.452.406-.723.406Zm-16.498-7.546c-.09 0-.181 0-.271-.045a459.576 459.576 0 0 0-8.407-3.344c-.407-.136-.588-.588-.452-.994.136-.407.588-.588.994-.452a172.649 172.649 0 0 1 8.453 3.344c.406.18.587.587.406.994-.135.316-.406.497-.723.497Zm-16.949-6.372c-.091 0-.181 0-.226-.045-2.848-.949-5.74-1.852-8.633-2.756-.407-.136-.633-.542-.497-.949.135-.407.542-.633.949-.497 2.892.858 5.83 1.807 8.678 2.756.407.136.587.542.497.949-.181.316-.452.542-.768.542Zm-17.402-5.196c-.045 0-.135 0-.181-.045a270.999 270.999 0 0 0-8.768-2.169.769.769 0 0 1-.588-.904.77.77 0 0 1 .904-.588c2.938.678 5.921 1.401 8.814 2.169.407.091.633.498.542.904-.09.407-.361.633-.723.633Zm-17.672-4.067h-.136c-2.938-.588-5.921-1.085-8.904-1.582-.407-.045-.678-.452-.633-.858.045-.407.452-.678.859-.633a518.14 518.14 0 0 1 8.949 1.582c.407.09.678.497.588.903-.045.362-.362.588-.723.588Zm-17.899-2.892h-.09c-2.984-.407-5.967-.723-8.995-1.039-.407-.046-.723-.407-.678-.814.045-.406.407-.723.814-.678 3.028.317 6.056.633 9.039 1.04.407.045.724.452.633.858a.73.73 0 0 1-.723.633ZM389.386 486.815c-.316 0-.588-.181-.678-.452-1.085-2.711-1.582-4.202-1.627-4.293-.136-.407.09-.813.497-.949.407-.135.813.091.949.497 0 0 .497 1.537 1.582 4.203a.806.806 0 0 1-.407.994h-.316Z" fill="#786AB5"/><path d="M217.134 307.465c-1.491 0-3.028-.045-4.52-.181-.316 0-.542-.271-.542-.587 0-.317.316-.543.587-.543 2.938.226 5.967.226 8.95 0 .316 0 .587.226.587.543 0 .316-.226.587-.542.587-1.446.136-2.983.181-4.52.181Zm13.56-1.446a.537.537 0 0 1-.543-.452c-.045-.316.136-.587.452-.678a34.051 34.051 0 0 0 2.079-.497c.317-.09.633.09.678.407.091.316-.09.632-.406.678-.724.18-1.447.316-2.125.497-.09.045-.09.045-.135.045Zm-26.984 0h-.136c-2.983-.633-5.92-1.536-8.768-2.621-.271-.09-.452-.452-.316-.723.09-.271.452-.452.723-.316a71.968 71.968 0 0 0 8.587 2.575c.317.046.498.362.452.678-.045.226-.271.407-.542.407Zm-16.859-6.417a.644.644 0 0 1-.271-.09 65.33 65.33 0 0 1-7.639-5.016.571.571 0 0 1-.09-.813.571.571 0 0 1 .813-.091 59.654 59.654 0 0 0 7.503 4.926c.272.135.362.497.226.768-.18.226-.361.316-.542.316Zm-14.328-10.98c-.136 0-.316-.046-.407-.181a66.928 66.928 0 0 1-5.921-6.959c-.181-.271-.135-.587.136-.813.271-.181.587-.136.813.135a64.063 64.063 0 0 0 5.786 6.823.573.573 0 0 1 0 .814.555.555 0 0 1-.407.181Zm-10.712-14.506c-.181 0-.407-.09-.497-.316a68.302 68.302 0 0 1-3.797-8.269c-.09-.271.045-.633.317-.723.271-.091.632.045.723.316a69.987 69.987 0 0 0 3.751 8.134c.136.271.045.632-.226.768a.644.644 0 0 1-.271.09Zm-6.463-16.855a.536.536 0 0 1-.543-.452c-.723-2.892-1.265-5.919-1.672-8.947-.045-.316.181-.587.497-.632.316-.046.588.18.633.497a70.4 70.4 0 0 0 1.627 8.811c.09.317-.09.633-.407.678-.09 0-.135.045-.135.045Zm-2.306-17.939c-.316 0-.542-.226-.587-.542v-1.311c0-2.576.135-5.196.316-7.817.045-.317.317-.543.633-.497.316.045.542.316.497.632a88.037 88.037 0 0 0-.316 7.682v1.311c.045.271-.181.542-.543.542.046 0 .046 0 0 0Zm1.537-18.03h-.09c-.317-.045-.497-.362-.452-.678.226-1.356.542-2.756.813-4.157.362-1.627.633-3.209.769-4.745.045-.316.316-.542.633-.497.316.045.542.316.497.633-.136 1.536-.407 3.163-.769 4.88a66.348 66.348 0 0 0-.813 4.112c-.091.271-.317.452-.588.452Zm.859-17.849c-.226 0-.452-.181-.542-.407a18.948 18.948 0 0 0-4.204-7.546c-.226-.226-.181-.588.045-.814.226-.226.588-.18.814.045 2.124 2.395 3.616 5.016 4.475 7.999a.581.581 0 0 1-.407.723h-.181Zm-11.39-13.331a.644.644 0 0 1-.271-.09c-2.305-1.356-4.927-2.621-8.091-3.841-.271-.136-.452-.452-.316-.723.135-.271.452-.452.723-.316 3.209 1.265 5.921 2.53 8.271 3.931.271.181.362.497.181.768-.09.181-.271.271-.497.271Zm-16.724-6.823c-.045 0-.09 0-.18-.045a375.118 375.118 0 0 0-8.724-2.531c-.316-.09-.497-.406-.406-.678.09-.316.406-.497.678-.406 2.621.723 5.74 1.581 8.723 2.53.316.091.452.407.361.723 0 .226-.226.407-.452.407Zm-17.491-4.971h-.136c-3.435-.949-6.192-1.762-8.723-2.575-.317-.091-.452-.407-.362-.723.09-.317.407-.452.723-.362 2.531.768 5.288 1.627 8.678 2.576.317.09.498.407.407.678a.642.642 0 0 1-.587.406Zm-17.266-5.467c-.045 0-.136 0-.181-.046a114.795 114.795 0 0 1-8.407-3.524.581.581 0 0 1-.271-.768c.135-.272.452-.407.768-.272 2.576 1.221 5.288 2.35 8.317 3.48.27.09.452.452.316.723-.09.226-.316.407-.542.407Zm-16.317-7.818a.84.84 0 0 1-.316-.09c-2.667-1.672-5.153-3.48-7.368-5.378-.226-.226-.27-.542-.045-.813.226-.226.542-.271.814-.045 2.17 1.853 4.61 3.615 7.231 5.287.272.181.362.497.181.768a.624.624 0 0 1-.497.271Zm-13.605-11.794c-.18 0-.316-.09-.452-.226a46.964 46.964 0 0 1-5.017-7.591c-.135-.271-.045-.633.226-.769.271-.135.633-.045.769.226a47.672 47.672 0 0 0 4.881 7.411c.18.226.18.588-.09.814a.411.411 0 0 1-.317.135Zm233.541-15.454c-.226 0-.452-.181-.542-.407a274.632 274.632 0 0 0-2.712-8.631c-.09-.316.045-.632.362-.723.316-.09.633.046.723.362.949 2.847 1.898 5.739 2.712 8.676a.593.593 0 0 1-.362.723h-.181Zm-241.993-.362a.568.568 0 0 1-.542-.406c-.904-2.802-1.582-5.784-2.034-8.857a.564.564 0 0 1 .452-.633.563.563 0 0 1 .633.452 56.566 56.566 0 0 0 1.988 8.676.592.592 0 0 1-.361.723c0 .045-.046.045-.136.045Zm236.163-16.809a.59.59 0 0 1-.543-.362c-1.084-2.802-2.26-5.603-3.435-8.36-.135-.271 0-.632.272-.768.271-.135.632 0 .768.271a173.343 173.343 0 0 1 3.48 8.405c.136.271-.045.633-.316.723-.091.091-.136.091-.226.091Zm-238.965-.904c-.317 0-.543-.226-.588-.542-.045-.859-.045-1.718-.045-2.576 0-2.124.09-4.293.226-6.507 0-.316.271-.542.588-.542.316 0 .542.271.542.587-.136 2.214-.226 4.383-.226 6.462 0 .858 0 1.717.045 2.53.045.317-.226.543-.542.588Zm91.617-4.971c-1.672 0-3.344-.09-5.017-.316-.316-.045-.542-.316-.497-.633.045-.316.317-.542.633-.497 2.938.362 5.966.407 8.904.091.316-.046.588.18.633.497.045.316-.181.587-.497.632-1.402.181-2.803.226-4.159.226Zm12.927-2.124a.586.586 0 0 1-.542-.361c-.091-.316.045-.633.361-.723 2.803-.949 5.515-2.26 8.046-3.841.271-.181.633-.09.768.181.181.271.091.632-.181.768a40.732 40.732 0 0 1-8.271 3.931c-.09 0-.136.045-.181.045Zm-26.667-.271c-.045 0-.136 0-.181-.045-2.893-1.039-5.695-2.395-8.226-4.022-.271-.18-.362-.497-.181-.768s.543-.361.769-.181a41.114 41.114 0 0 0 8 3.932c.316.09.452.452.361.723a.586.586 0 0 1-.542.361Zm153.766-8.269a.559.559 0 0 1-.498-.316c-1.356-2.712-2.757-5.378-4.248-7.954-.136-.27-.045-.632.226-.768.271-.135.633-.045.768.226a150.094 150.094 0 0 1 4.249 8.044.558.558 0 0 1-.271.768h-.226Zm-111.957-1.039a.517.517 0 0 1-.362-.136c-.226-.226-.271-.587-.045-.813 2.034-2.26 3.571-4.79 4.565-7.502.09-.316.407-.451.723-.361.317.09.452.452.362.723a23.339 23.339 0 0 1-4.791 7.863c-.136.135-.271.226-.452.226Zm-56.905-.407c-.136 0-.317-.045-.407-.181a35.937 35.937 0 0 1-5.379-7.456c-.135-.271-.045-.633.226-.768.271-.136.633-.045.769.226a31.963 31.963 0 0 0 5.197 7.185.538.538 0 0 1-.045.813.41.41 0 0 1-.361.181Zm-61.651-.994h-.09c-.317-.045-.543-.317-.498-.633.407-2.892.95-5.874 1.582-8.947.045-.316.362-.497.678-.452.317.045.497.362.452.678-.633 3.027-1.175 6.01-1.582 8.902 0 .271-.226.452-.542.452Zm221.654-13.33a.623.623 0 0 1-.497-.272c-1.628-2.53-3.3-5.06-5.063-7.5-.18-.272-.135-.588.136-.77.271-.18.588-.135.768.136 1.763 2.44 3.435 4.971 5.063 7.547.18.27.09.632-.181.768a.348.348 0 0 1-.226.09Zm-168.32-1.492a.536.536 0 0 1-.542-.452 32.914 32.914 0 0 1-.678-6.688c0-.813.045-1.672.09-2.485 0-.316.271-.542.588-.542.316 0 .542.271.542.587-.045.814-.09 1.627-.09 2.395 0 2.17.226 4.338.632 6.462.046.316-.135.588-.452.678-.045.045-.09.045-.09.045Zm71.188-.407c-.316 0-.542-.226-.588-.542-.135-2.801-.678-5.693-1.717-8.676-.091-.316.045-.633.361-.723.317-.09.633.045.724.362 1.039 3.072 1.627 6.1 1.762 8.992.045.316-.18.587-.542.587ZM56.227 83.921h-.135c-.317-.09-.498-.407-.407-.678.813-2.982 1.762-5.92 2.712-8.676.09-.316.452-.452.723-.361.316.09.452.452.361.723-.994 2.711-1.898 5.603-2.712 8.585-.045.226-.27.407-.542.407Zm207.416-10.348c-.18 0-.316-.09-.451-.226a174.856 174.856 0 0 0-5.876-6.868c-.226-.226-.181-.588.045-.814.226-.226.587-.18.813.045a125.106 125.106 0 0 1 5.921 6.914c.181.226.136.588-.09.814a.722.722 0 0 1-.362.135Zm-92.16-4.202a.626.626 0 0 1-.497-.271c-1.446-2.486-3.164-4.926-5.152-7.366a.58.58 0 0 1 .09-.813.581.581 0 0 1 .814.09 60.982 60.982 0 0 1 5.243 7.501c.135.271.045.633-.181.768-.091.09-.181.09-.317.09Zm-64.498-.407c-.045 0-.136 0-.181-.045-.316-.09-.452-.407-.361-.723a48.081 48.081 0 0 1 3.616-8.405c.135-.271.497-.362.768-.226.271.136.362.497.226.768a45.968 45.968 0 0 0-3.526 8.224c-.09.226-.271.407-.542.407Zm-44.61-2.034c-.091 0-.182 0-.227-.045a.581.581 0 0 1-.271-.768 75.028 75.028 0 0 1 4.294-8.043c.18-.271.497-.362.768-.181.271.18.362.497.18.768a81.362 81.362 0 0 0-4.248 7.908c-.045.226-.27.361-.497.361Zm189.065-6.732a.553.553 0 0 1-.407-.181c-2.17-2.079-4.429-4.158-6.689-6.055-.226-.181-.272-.543-.046-.814.181-.226.543-.27.814-.045a171.153 171.153 0 0 1 6.735 6.1.573.573 0 0 1 0 .814c-.091.135-.272.18-.407.18Zm-91.256-4.88a.73.73 0 0 1-.407-.136 77.134 77.134 0 0 0-6.825-5.83.572.572 0 0 1-.09-.813c.18-.271.542-.316.813-.09 2.441 1.852 4.791 3.84 6.916 5.92a.573.573 0 0 1 0 .813c-.136.045-.272.135-.407.135Zm-44.702-2.305a.652.652 0 0 1-.316-.09c-.271-.181-.316-.543-.136-.814 1.266-1.672 2.622-3.39 4.114-5.061.587-.633 1.175-1.31 1.762-1.898a.574.574 0 0 1 .814 0 .573.573 0 0 1 0 .813l-1.763 1.898a81.92 81.92 0 0 0-4.068 4.971c-.09.136-.271.18-.407.18Zm-43.571-1.446a.514.514 0 0 1-.362-.136c-.226-.18-.27-.542-.09-.813 1.989-2.395 4.113-4.61 6.373-6.552.226-.226.588-.181.814.045.226.226.18.587-.046.813a56.034 56.034 0 0 0-6.237 6.417.5.5 0 0 1-.452.226Zm165.743-3.073a.652.652 0 0 1-.316-.09 127.645 127.645 0 0 0-7.413-5.107c-.271-.18-.361-.497-.18-.768.18-.271.497-.361.768-.18a138.152 138.152 0 0 1 7.503 5.15c.271.182.316.543.135.814-.135.09-.316.181-.497.181Zm-91.843-4.157c-.091 0-.181-.046-.271-.09-2.577-1.582-5.244-2.983-7.955-4.248-.272-.136-.407-.452-.272-.769a.582.582 0 0 1 .769-.27 86.163 86.163 0 0 1 8.045 4.292c.271.18.362.497.181.768-.136.181-.317.317-.497.317Zm-17.763-4.248c-.181 0-.317-.09-.452-.226-.181-.226-.136-.587.09-.813a67.291 67.291 0 0 1 7.593-5.061c.272-.136.633-.045.769.226.135.27.045.632-.226.768a64.733 64.733 0 0 0-7.458 4.97c-.045.09-.181.136-.316.136Zm-42.487-.271c-.18 0-.407-.09-.497-.271-.136-.271-.045-.633.226-.768a46.09 46.09 0 0 1 8.316-3.796c.317-.09.633.045.724.361.09.317-.046.633-.362.723a45.483 45.483 0 0 0-8.136 3.706c-.09 0-.18.045-.271.045Zm136.816-1.04c-.09 0-.181 0-.271-.045-2.667-1.446-5.379-2.756-8.091-3.976-.271-.136-.406-.452-.271-.768a.582.582 0 0 1 .769-.271 114.265 114.265 0 0 1 8.181 4.021c.271.136.361.497.226.769-.136.135-.317.27-.543.27Zm-93.019-2.033c-.045 0-.135 0-.18-.045-2.893-.949-5.831-1.717-8.724-2.214-.316-.045-.497-.362-.452-.678.045-.316.362-.497.678-.452a70.77 70.77 0 0 1 8.859 2.26c.317.09.452.406.362.722-.045.226-.271.407-.543.407Zm-26.802-2.801c-.272 0-.543-.226-.543-.498-.045-.316.181-.587.497-.632a55.162 55.162 0 0 1 9.131-.497c.316 0 .542.27.542.587 0 .316-.271.542-.588.542-3.073-.09-6.056.046-8.949.452 0 .045-.045.045-.09.045Zm103.278-2.486c-.045 0-.135 0-.18-.045-2.848-.994-5.741-1.853-8.633-2.62-.317-.091-.497-.408-.407-.679.09-.316.407-.497.678-.406 2.893.768 5.831 1.626 8.723 2.62.317.09.452.407.362.724a.57.57 0 0 1-.543.406Zm-62.102-.316a.589.589 0 0 1-.543-.362c-.135-.27.045-.632.317-.723a69.6 69.6 0 0 1 8.678-2.846c.316-.09.632.09.678.406.09.316-.091.633-.407.678a75.548 75.548 0 0 0-8.543 2.802c0 .045-.09.045-.18.045Zm44.565-4.203h-.09a87.583 87.583 0 0 0-8.949-1.039c-.317 0-.543-.271-.543-.587 0-.317.271-.543.588-.543 2.983.181 6.011.543 9.04 1.04.316.045.497.361.452.632 0 .317-.226.497-.498.497Zm-27.074-.406c-.271 0-.542-.226-.542-.497-.045-.317.181-.588.497-.633a85.91 85.91 0 0 1 9.085-.768c.317-.045.588.226.588.542 0 .316-.226.588-.543.588a82.37 82.37 0 0 0-8.949.768h-.136Z" fill="#FF443C"/><path d="M71.459 95.715H46.555a2.478 2.478 0 0 1-2.486-2.485V78.68a2.478 2.478 0 0 1 2.486-2.486h24.904a2.478 2.478 0 0 1 2.486 2.485v14.55a2.508 2.508 0 0 1-2.486 2.486Z" fill="#FF443C"/><path d="m73.719 94.224-14.735-8.902-14.69 8.902a2.493 2.493 0 0 0 2.26 1.491H71.46c.994 0 1.898-.632 2.26-1.49Z" fill="#FF443C"/><path d="m44.295 77.686 14.734 10.031 14.69-9.986a2.494 2.494 0 0 0-2.26-1.491H46.555c-.995-.046-1.853.587-2.26 1.446Z" fill="#FF443C"/><path d="M59.03 87.988 44.158 77.866l.271-.362 14.6 9.942 14.553-9.942.272.407-14.826 10.077Z" fill="#66192D"/><path d="M547.581 146.958h-24.904a2.478 2.478 0 0 1-2.486-2.485v-14.551a2.479 2.479 0 0 1 2.486-2.485h24.904a2.479 2.479 0 0 1 2.486 2.485v14.551c-.045 1.401-1.13 2.485-2.486 2.485Z" fill="#786AB5"/><path d="m549.796 145.466-14.735-8.902-14.69 8.902a2.494 2.494 0 0 0 2.26 1.492h24.905c1.039 0 1.898-.588 2.26-1.492Z" fill="#786AB5"/><path d="m520.417 128.928 14.734 10.032 14.69-9.987a2.495 2.495 0 0 0-2.26-1.491h-24.904c-1.04 0-1.899.587-2.26 1.446Z" fill="#786AB5"/><path d="m535.106 139.231-14.825-10.077.271-.407 14.554 9.941 14.599-9.896.272.362-14.871 10.077Z" fill="#66192D"/><path d="M649.097 477.145h-24.904a2.479 2.479 0 0 1-2.486-2.485v-14.551a2.478 2.478 0 0 1 2.486-2.485h24.904a2.478 2.478 0 0 1 2.486 2.485v14.551c-.045 1.355-1.13 2.485-2.486 2.485Z" fill="#FF8548"/><path d="m651.357 475.654-14.735-8.902-14.689 8.902a2.492 2.492 0 0 0 2.26 1.492h24.904c.994 0 1.853-.633 2.26-1.492Z" fill="#FF8548"/><path d="m621.933 459.115 14.734 10.032 14.69-9.987a2.495 2.495 0 0 0-2.26-1.491h-24.904c-.995 0-1.899.588-2.26 1.446Z" fill="#FF8548"/><path d="m636.668 469.418-14.871-10.122.271-.362 14.6 9.941 14.554-9.941.271.407-14.825 10.077Z" fill="#66192D"/><path d="M112.906 305.612H88.002a2.479 2.479 0 0 1-2.486-2.485v-14.551a2.479 2.479 0 0 1 2.486-2.485h24.904a2.478 2.478 0 0 1 2.486 2.485v14.551c0 1.4-1.13 2.485-2.486 2.485Z" fill="#FFBA41"/><path d="m115.166 304.166-14.735-8.902-14.69 8.902a2.493 2.493 0 0 0 2.26 1.491h24.905c1.04-.045 1.898-.632 2.26-1.491Z" fill="#FFBA41"/><path d="m85.787 287.628 14.735 10.031 14.689-9.986a2.491 2.491 0 0 0-2.26-1.491H88.047a2.277 2.277 0 0 0-2.26 1.446Z" fill="#FFBA41"/><path d="m100.476 297.93-14.825-10.122.226-.406 14.599 9.941 14.554-9.896.272.361-14.826 10.122Z" fill="#66192D"/></svg>