<svg width="667" height="654" viewBox="0 0 667 654" fill="none" xmlns="http://www.w3.org/2000/svg">
<path d="M483.257 510.694C562.421 431.548 562.421 303.228 483.257 224.082C404.092 144.937 275.741 144.937 196.576 224.082C117.411 303.228 117.412 431.548 196.576 510.694C275.741 589.84 404.092 589.84 483.257 510.694Z" fill="#553E93"/>
<path d="M358.018 165.531C358.832 166.073 359.69 166.615 360.594 167.157C360.685 166.57 403.307 180.081 407.691 182.069C420.347 187.853 428.121 189.932 414.245 194.315C420.257 192.417 433.906 229.471 443.443 227.935C452.754 226.444 455.511 236.927 457.952 244.112C459.263 247.908 463.331 250.167 461.794 254.731C461.297 256.177 454.653 259.16 455.15 260.154C457.952 265.441 470.653 266.073 470.743 273.891C469.523 275.834 467.67 276.783 465.139 276.692C459.263 279.087 464.822 283.832 465.952 287.537C468.664 296.439 477.207 304.347 483.354 294.225C489.546 284.058 475.354 274.071 483.987 263.678C489.049 257.578 502.518 268.513 499.309 256.9C498.405 253.556 484.348 238.825 492.122 236.656C492.484 236.566 492.755 235.797 492.936 234.532C469.885 207.917 439.556 186.995 403.714 175.11C388.618 170.049 373.25 166.886 358.018 165.531Z" fill="#786AB5"/>
<path d="M520.326 275.02C519.332 273.123 509.343 284.103 507.264 285.278C499.671 289.48 497.998 281.211 491.625 289.932C490.495 291.469 478.97 306.742 478.924 305.07C479.15 310.764 476.8 316.367 479.512 321.835C481.953 326.715 476.213 331.144 476.529 336.295C476.981 343.073 470.789 347.682 472.371 354.415C473.727 360.244 477.252 364.537 477.252 370.728C477.252 380.624 475.489 385.143 483.444 392.237C488.552 396.801 495.241 412.572 504.236 403.67C505.908 402.043 522.315 388.893 521.366 387.854C527.197 394.045 522.044 389.978 530.36 389.617C532.62 389.526 528.688 446.643 525.253 445.333C525.795 445.559 526.428 445.469 527.151 445.197C529.05 440.679 530.767 436.024 532.349 431.28C550.157 377.551 544.236 321.699 520.326 275.02Z" fill="#786AB5"/>
<path d="M425.454 464.809C425.5 458.98 414.607 453.512 408.686 453.783C395.985 454.28 392.64 450.213 380.843 447.14C370.945 444.565 372.482 427.71 357.43 426.987C349.43 426.58 334.334 404.845 326.424 411.352C321.181 415.644 311.147 404.122 307.622 404.076C299.531 403.986 306.085 408.776 300.797 402.766C297.316 398.789 287.734 407.149 285.745 409.499C281.813 414.063 264.773 407.194 262.152 400.642C261.203 398.292 266.672 388.938 262.604 382.296C261.067 379.72 249.767 381.618 248.005 379.901C245.654 377.596 254.061 369.191 253.112 367.429C249.18 360.109 236.253 378.455 230.603 363.724C226.038 351.749 232.004 347.23 233.179 335.707C233.722 330.285 242.988 327.619 247.462 329.562C254.649 332.725 253.7 329.788 259.169 329.2C263.463 328.748 268.073 333.629 272.186 334.352C277.067 335.21 273.723 348.947 278.333 352.246C281 354.144 280.954 333.764 281.135 333.267C284.073 324.998 296.864 325.766 298.943 318.807C304.006 301.681 315.577 302.991 329.633 296.936C336.323 294.044 352.865 290.7 357.024 284.148C364.843 271.947 344.323 253.692 338.989 245.061C338.944 244.97 334.244 250.348 333.159 250.393C329.181 250.574 325.475 228.16 317.882 241.039C316.435 243.479 310.876 244.202 313.949 247.817C320.006 254.866 308.254 256.584 304.593 255.544C300.887 254.55 282.627 243.976 289.045 238.057C302.153 226.037 305.09 232.273 318.695 232.182C334.244 232.137 334.831 246.733 347.713 231.098C351.283 226.76 328.006 214.378 332.616 208.911C348.888 189.48 357.792 232.634 363.894 240.09C372.798 251.026 378.538 245.241 377.815 233.176C377.499 227.483 389.567 222.196 390.425 216.05C390.606 214.785 382.606 203.488 381.431 202.72C377.227 200.009 376.278 197.162 374.109 194.496C371.397 191.107 367.148 196.168 364.707 193.14C363.577 191.739 343.148 192.507 340.978 192.553C330.266 192.146 318.243 192.507 307.396 192.643C302.966 192.462 279.463 203.94 278.83 194.541C278.514 189.886 284.118 181.708 274.129 185.503C270.92 186.723 268.932 184.916 269.564 184.78C262.694 186.181 249.813 190.971 244.298 195.942C241.225 198.698 248.547 199.963 249.044 202.313C249.993 206.832 238.558 215.282 236.027 218.219C226.942 228.703 227.349 242.621 215.1 252.788C200.953 264.537 200.184 281.753 200.049 297.976C200.004 305.838 193.224 309.137 197.518 318.039C201.134 325.63 207.913 329.291 209.043 338.509C209.767 344.564 205.021 350.167 207.326 356.087C210.128 363.362 215.507 369.779 222.061 373.213C236.072 380.579 245.248 386.092 254.242 399.558C265.361 416.277 285.248 408.957 278.74 425.857C275.983 432.951 269.022 436.34 266.174 443.932C262.739 453.015 269.338 459.612 273.542 466.978C277.791 474.434 279.372 483.336 286.83 488.397C292.164 492.012 301.927 495.039 303.283 502.405C305.452 514.154 295.554 528.795 296.638 539.549C297.362 546.779 297.497 554.19 303.78 558.935C315.125 567.43 312.413 555.591 319.464 549.988C326.063 544.746 333.837 546.282 341.385 544.204C348.3 542.306 340.074 539.73 342.876 538.194C348.797 534.85 352.323 539.866 358.018 534.805C363.171 530.195 370.131 528.84 372.572 521.61C376.504 509.771 394.358 514.109 401.77 504.89C406.335 499.242 408.324 493.187 410.403 486.318C412.889 477.823 425.364 473.937 425.454 464.809C425.5 458.708 425.364 470.909 425.454 464.809Z" fill="#786AB5"/>
<path d="M301.339 98.3816C298.989 102.539 275.259 138.96 280.231 174.568L306.04 165.305L317.837 117.315L301.339 98.3816Z" fill="#FDAD9B"/>
<path d="M404.482 83.4693C404.482 83.4693 388.618 55.2722 349.973 63.0896C311.328 70.8619 290.265 125.629 300.752 234.08C300.752 234.08 362.131 209.905 441.907 229.381C441.907 229.335 428.799 124.319 404.482 83.4693Z" fill="#FF8548"/>
<path d="M433.952 72.0824L406.787 98.9239C406.787 98.9239 337.182 117.541 317.837 117.315C298.492 117.089 290.898 103.081 290.898 103.081C290.898 103.081 307.215 77.5049 340.255 65.9369C343.374 64.8524 346.583 63.9034 350.018 63.0901C355.713 61.7344 361.498 60.9662 367.284 60.6047C401.409 58.5713 433.952 72.0824 433.952 72.0824Z" fill="#FF8548"/>
<path d="M433.952 72.0823C438.291 76.7366 431.601 81.8428 424.098 89.2536C416.596 96.6644 408.867 101.002 406.787 98.9238C404.708 96.8452 409.138 89.1632 416.641 81.7525C424.144 74.2965 431.963 69.9133 433.952 72.0823Z" fill="#66192D"/>
<path d="M410.403 99.014C410.403 99.014 409.996 93.6366 416.821 86.8133C420.935 82.7012 426.087 79.99 429.567 78.4988C431.647 77.595 434.042 78.5891 434.856 80.7129L437.025 86.271L426.901 92.7329L410.403 99.014Z" fill="#FDAD9B"/>
<path d="M362.447 198.427C362.447 198.427 446.2 153.466 476.258 202.494C498.495 238.78 465.094 272.58 341.159 269.146C341.159 269.146 328.91 263.452 331.893 233.99C333.023 222.377 362.447 198.427 362.447 198.427Z" fill="#FFD00E"/>
<path d="M362.447 198.427C362.447 198.427 250.897 153.194 228.795 181.482C203.439 213.972 227.756 269.191 345.362 249.444L359.69 234.035L362.447 198.427Z" fill="#FFD00E"/>
<path d="M331.125 242.124C331.125 242.124 310.56 242.937 300.887 247.636C291.215 252.336 296.367 263.768 315.983 263.452C335.6 263.136 334.108 260.244 334.108 260.244C334.108 260.244 330.402 250.257 331.125 242.124Z" fill="#66192D"/>
<path d="M340.978 269.372C327.238 259.657 331.577 234.261 331.622 233.99L331.667 233.854L331.803 233.809L416.505 203.307L416.686 203.759L332.119 234.216C331.803 236.204 328.323 259.792 341.295 269.01L340.978 269.372Z" fill="#020202"/>
<path d="M357.431 200.596C350.606 200.596 345.046 198.879 340.481 195.49C331.893 189.073 330.311 178.906 331.577 172.083L339.758 167.383C340.165 165.169 355.984 173.438 355.939 173.438C356.029 173.483 363.487 175.607 389.386 162.503C407.42 153.375 416.505 140.406 417.183 122.873C417.68 109.678 411.714 102.222 410.313 99.0141C410.132 98.6074 419.036 89.7506 418.765 88.8468L425.455 85.5029C425.229 84.7348 431.873 82.159 431.782 81.9331L436.935 86.2711C439.466 92.1003 444.89 105.476 444.212 123.913C443.489 143.072 435.489 169.462 401.59 186.633C383.194 195.942 368.685 200.596 357.431 200.596Z" fill="#FDAD9B"/>
<path d="M351.961 201.681H279.644C278.152 201.681 276.796 200.732 276.299 199.331L261.293 154.912C260.525 152.652 262.242 150.348 264.638 150.348H334.153C337.317 150.348 340.119 152.336 341.114 155.318L355.261 197.162C356.029 199.376 354.357 201.681 351.961 201.681Z" fill="#66192D"/>
<path d="M347.396 201.681H275.124C273.587 201.681 272.276 200.732 271.779 199.331L256.773 154.912C256.005 152.652 257.722 150.348 260.118 150.348H329.633C332.797 150.348 335.6 152.336 336.594 155.318L350.741 197.162C351.51 199.376 349.792 201.681 347.396 201.681Z" fill="#66192D"/>
<path d="M296.774 174.523C296.774 172.851 298.718 172.128 300.435 172.128C302.153 172.128 304.955 173.981 304.955 176.331C304.955 178.861 302.921 179.223 301.203 179.223C299.486 179.268 296.774 176.692 296.774 174.523Z" fill="#DEEBE9"/>
<path d="M374.018 195.4H275.079V201.681H376.098C377.273 201.681 378.222 200.732 378.222 199.557C378.177 197.253 376.324 195.4 374.018 195.4Z" fill="#66192D"/>
<path d="M342.289 172.806C342.244 172.67 338.718 159.52 336.413 155.408C334.153 151.387 331.351 150.573 331.351 150.573L331.487 150.121C331.622 150.167 334.515 150.98 336.865 155.182C339.17 159.34 342.651 172.128 342.786 172.67L342.289 172.806Z" fill="#66192D"/>
<path d="M352.956 195.626C350.289 195.626 349.611 194.451 349.566 194.406V194.36L343.916 177.686L344.368 177.551L349.973 194.18C350.063 194.27 350.696 195.129 352.911 195.129V195.626H352.956Z" fill="#66192D"/>
<path d="M422.426 162.096C422.019 162.096 421.613 162.006 421.251 161.78C419.488 160.74 419.533 157.487 421.341 154.279C422.2 152.787 423.285 151.612 424.46 150.844C425.726 150.076 426.901 149.895 427.76 150.438C429.522 151.477 429.477 154.73 427.669 157.939C426.223 160.469 424.144 162.096 422.426 162.096ZM426.675 151.115C426.178 151.115 425.635 151.296 425.003 151.703C423.963 152.335 422.969 153.465 422.2 154.776C420.663 157.396 420.483 160.243 421.748 160.966C423.014 161.689 425.364 160.108 426.901 157.487C428.438 154.866 428.618 152.019 427.353 151.296C427.172 151.161 426.901 151.115 426.675 151.115Z" fill="#F18C7E"/>
<path d="M367.826 60.5141C363.08 60.3785 359.464 59.8815 356.753 56.7183L348.3 46.8674L345.86 44.0206L331.396 27.1655L338.99 46.8674L343.554 58.7066L345.001 62.4572C345.995 64.9877 344.684 66.1626 343.78 69.145C343.419 70.365 340.933 77.7758 347.396 77.821C355.487 77.8662 365.747 68.5575 367.962 60.5141C367.917 60.5141 367.871 60.5141 367.826 60.5141Z" fill="#FDAD9B"/>
<path d="M350.651 40.5413C350.651 40.5413 366.606 25.3582 357.385 12.5701C348.21 -0.218061 345.905 33.1305 345.905 33.1305L348.481 40.8576L350.651 40.5413Z" fill="#66192D"/>
<path d="M348.21 46.5515C348.255 46.6419 348.255 46.7774 348.3 46.913C349.792 53.5556 343.6 58.7522 343.6 58.7522L343.554 58.707L338.989 46.8678C340.933 45.4218 343.78 43.7047 345.86 44.021C346.899 44.1565 347.803 44.9247 348.21 46.5515Z" fill="#66192D"/>
<path d="M314.492 38.2818C310.876 26.4426 315.938 14.4227 325.792 11.4403C335.6 8.45788 346.493 15.6427 350.108 27.4819C353.724 39.3211 348.662 51.3411 338.809 54.3235C328.955 57.351 318.063 50.1662 314.492 38.2818Z" fill="#FDAD9B"/>
<path d="M346.718 25.8101C346.718 25.8101 341.656 29.4703 337.408 26.3976C333.159 23.3248 330.131 20.3876 320.639 25.1323C311.102 29.877 300.706 27.7532 298.763 22.4211C296.819 17.0889 301.384 12.9768 307.35 13.248C313.317 13.5191 306.085 10.2656 310.243 4.66228C314.401 -0.941 324.978 4.84304 330.176 2.0414C335.419 -0.760243 354.041 -3.15519 357.385 12.6605L346.718 25.8101Z" fill="#66192D"/>
<path d="M350.696 28.9731C349.476 30.8258 347.125 31.4584 345.453 30.3739C343.781 29.2894 343.419 26.8944 344.639 24.9965C345.86 23.1438 348.21 22.5112 349.882 23.5957C351.555 24.6802 351.916 27.0752 350.696 28.9731Z" fill="#FDAD9B"/>
<path d="M309.249 20.523C308.887 20.523 308.571 20.4778 308.209 20.3874C306.085 19.8452 305.452 18.7155 305.633 17.8569C305.814 16.8628 307.034 15.9138 308.932 16.0946C311.78 16.3657 313.317 15.4168 313.362 15.4168L313.723 16.0042C313.633 16.0494 311.961 17.0887 308.887 16.7724C307.486 16.6368 306.447 17.2695 306.356 17.9473C306.221 18.6703 307.034 19.3029 308.435 19.6644C312.096 20.5682 318.424 14.9197 318.515 14.8745L318.966 15.3716C318.65 15.6879 313.226 20.523 309.249 20.523Z" fill="white"/>
<path d="M325.701 7.28299C321.814 7.28299 318.379 5.61104 318.062 5.29473L318.605 4.84285L318.334 5.06879L318.56 4.84285C318.921 5.15917 324.571 7.87043 329.407 5.97255C331.035 5.33992 332.436 4.61691 333.837 3.89391C336.639 2.40271 339.08 1.13746 341.882 1.67971L341.747 2.35753C339.215 1.86046 336.865 3.08054 334.153 4.48136C332.752 5.20436 331.306 5.97254 329.679 6.60517C328.368 7.05705 327.012 7.28299 325.701 7.28299Z" fill="white"/>
<path d="M352.549 11.7575C351.509 11.7575 349.611 10.1756 349.114 9.18122C348.752 8.45804 349.114 8.09645 349.295 8.00605C350.696 7.14728 352.685 9.85921 353.091 10.4016L353.137 10.4468V10.492C353.363 11.3508 353.001 11.6219 352.775 11.7123C352.775 11.7575 352.685 11.7575 352.549 11.7575ZM349.927 8.54844C349.837 8.54844 349.747 8.54845 349.701 8.59364C349.656 8.63884 349.747 9.04563 350.425 9.72361C351.374 10.6728 352.323 11.1248 352.549 11.0796C352.549 11.0796 352.549 10.9892 352.504 10.7632C351.826 9.7688 350.651 8.54844 349.927 8.54844Z" fill="white"/>
<path d="M462.382 230.782C460.981 230.782 459.67 230.42 458.449 229.742C456.416 228.568 455.014 226.534 454.562 224.049C454.11 221.563 454.608 218.897 455.918 216.593C458.721 211.758 464.416 209.769 468.574 212.164C472.777 214.605 473.907 220.479 471.105 225.359C469.749 227.709 467.715 229.426 465.32 230.285C464.37 230.646 463.331 230.782 462.382 230.782ZM464.687 212.074C461.704 212.074 458.54 213.882 456.732 217.045C455.512 219.169 455.06 221.609 455.466 223.868C455.873 226.082 457.094 227.89 458.901 228.929C460.709 229.968 462.879 230.104 465.003 229.381C467.173 228.613 469.026 227.031 470.291 224.862C472.823 220.479 471.873 215.102 468.122 212.978C467.082 212.345 465.907 212.074 464.687 212.074Z" fill="#66192D"/>
<path d="M343.781 86.7233L343.735 85.5485C364.482 84.961 371.985 67.1571 372.075 66.9763L373.16 67.4282C373.069 67.6089 371.216 72.1729 366.651 76.8724C362.402 81.2104 354.99 86.407 343.781 86.7233Z" fill="#66192D"/>
<path d="M353.679 96.7097L353.046 95.7156C353.137 95.6704 363.758 88.9374 365.114 76.9175L366.289 77.053C364.843 89.6152 353.769 96.6193 353.679 96.7097Z" fill="#66192D"/>
<path d="M309.407 102.009L305.136 114.876L306.251 115.246L310.522 102.38L309.407 102.009Z" fill="#66192D"/>
<path d="M266.898 145.602C266.672 145.602 266.446 145.512 266.31 145.331C265.406 144.156 264.412 142.982 263.463 141.852C263.191 141.536 263.237 141.039 263.553 140.767C263.869 140.496 264.367 140.541 264.638 140.858C265.632 141.987 266.581 143.208 267.53 144.382C267.802 144.699 267.711 145.196 267.395 145.422C267.214 145.512 267.079 145.602 266.898 145.602Z" fill="#FF8548"/>
<path d="M163.619 482.568C163.212 482.568 162.851 482.251 162.851 481.799C162.851 481.393 163.167 481.031 163.619 481.031C166.557 480.986 169.585 480.941 172.613 480.805C173.02 480.76 173.382 481.122 173.382 481.528C173.382 481.935 173.065 482.296 172.659 482.296C169.63 482.477 166.557 482.568 163.619 482.568ZM154.624 482.522C151.596 482.432 148.523 482.296 145.585 482.116C145.178 482.07 144.862 481.754 144.862 481.302C144.907 480.896 145.268 480.579 145.675 480.579C148.613 480.76 151.641 480.896 154.624 480.941C155.031 480.941 155.393 481.302 155.348 481.709C155.348 482.206 155.031 482.522 154.624 482.522ZM181.608 481.845C181.201 481.845 180.885 481.528 180.84 481.167C180.794 480.76 181.111 480.398 181.518 480.353C184.455 480.127 187.484 479.856 190.467 479.585C190.874 479.54 191.235 479.856 191.28 480.263C191.326 480.67 191.009 481.031 190.602 481.076C187.619 481.393 184.591 481.664 181.608 481.845ZM136.635 481.393C136.59 481.393 136.59 481.393 136.545 481.393C133.517 481.076 130.534 480.715 127.596 480.308C127.189 480.263 126.918 479.856 126.963 479.45C127.008 479.043 127.415 478.772 127.822 478.817C130.714 479.224 133.743 479.585 136.726 479.901C137.133 479.947 137.449 480.308 137.404 480.715C137.359 481.121 137.042 481.393 136.635 481.393ZM199.507 479.992C199.145 479.992 198.829 479.721 198.738 479.314C198.693 478.907 198.964 478.501 199.371 478.455C202.309 478.094 205.292 477.642 208.275 477.19C208.682 477.145 209.089 477.416 209.134 477.823C209.179 478.229 208.908 478.636 208.501 478.681C205.518 479.133 202.535 479.585 199.552 479.947C199.552 479.992 199.507 479.992 199.507 479.992ZM118.827 478.862C118.782 478.862 118.737 478.862 118.692 478.862C115.708 478.32 112.725 477.687 109.833 477.009C109.426 476.919 109.155 476.512 109.29 476.106C109.381 475.699 109.787 475.428 110.194 475.563C113.042 476.241 116.025 476.874 118.963 477.416C119.369 477.506 119.641 477.868 119.55 478.275C119.505 478.636 119.189 478.862 118.827 478.862ZM217.27 477.235C216.908 477.235 216.592 476.964 216.546 476.603C216.456 476.196 216.727 475.789 217.134 475.744C220.027 475.202 223.01 474.614 225.948 474.027C226.355 473.937 226.761 474.208 226.852 474.614C226.942 475.021 226.671 475.428 226.264 475.518C223.326 476.151 220.343 476.693 217.405 477.235C217.36 477.235 217.315 477.235 217.27 477.235ZM101.335 474.705C101.245 474.705 101.2 474.705 101.109 474.66C98.2165 473.801 95.3238 472.897 92.4763 471.948C92.0695 471.813 91.8887 471.361 92.0243 470.999C92.1599 470.593 92.6119 470.412 92.9735 470.548C95.7758 471.497 98.6233 472.4 101.516 473.259C101.923 473.394 102.149 473.801 102.013 474.208C101.968 474.524 101.652 474.705 101.335 474.705ZM234.897 473.575C234.536 473.575 234.264 473.349 234.174 472.988C234.083 472.581 234.355 472.174 234.716 472.084C237.609 471.406 240.547 470.683 243.44 469.96C243.846 469.87 244.253 470.096 244.344 470.502C244.434 470.909 244.208 471.316 243.801 471.406C240.909 472.129 237.925 472.852 235.033 473.53C235.033 473.575 234.942 473.575 234.897 473.575ZM252.344 469.102C252.027 469.102 251.711 468.876 251.621 468.559C251.53 468.153 251.756 467.746 252.163 467.61C255.056 466.797 257.948 465.938 260.796 465.08C261.203 464.944 261.609 465.17 261.745 465.577C261.881 465.984 261.655 466.39 261.248 466.526C258.4 467.384 255.463 468.243 252.57 469.056C252.479 469.102 252.434 469.102 252.344 469.102ZM84.3406 468.83C84.2502 468.83 84.1598 468.83 84.0694 468.785C81.2671 467.656 78.5099 466.435 75.798 465.125C75.4364 464.944 75.2556 464.492 75.4364 464.131C75.6172 463.769 76.0692 463.589 76.4308 463.769C79.0975 465.035 81.8546 466.255 84.6118 467.384C85.0185 467.52 85.1994 467.972 85.0186 468.379C84.883 468.65 84.6118 468.83 84.3406 468.83ZM269.564 463.86C269.248 463.86 268.932 463.679 268.841 463.363C268.706 462.956 268.932 462.549 269.338 462.414C272.231 461.465 275.079 460.471 277.836 459.477C278.243 459.341 278.649 459.522 278.785 459.928C278.921 460.335 278.74 460.742 278.333 460.877C275.576 461.871 272.683 462.866 269.79 463.815C269.745 463.86 269.655 463.86 269.564 463.86ZM68.0691 461.103C67.9335 461.103 67.8431 461.058 67.7075 461.013C65.086 459.567 62.4645 458.031 59.9333 456.404C59.5717 456.178 59.4813 455.726 59.7073 455.365C59.9333 455.003 60.3853 454.913 60.7469 455.139C63.2328 456.72 65.8544 458.257 68.4759 459.703C68.8375 459.883 68.973 460.38 68.7923 460.742C68.6115 460.968 68.3403 461.103 68.0691 461.103ZM52.8824 451.524C52.7468 451.524 52.566 451.478 52.4304 451.388C49.9897 449.626 47.5941 447.773 45.2438 445.875C44.9274 445.604 44.8822 445.152 45.1534 444.791C45.4245 444.474 45.8766 444.429 46.1929 444.7C48.4981 446.598 50.8936 448.406 53.2891 450.123C53.6055 450.349 53.6959 450.846 53.4699 451.162C53.3343 451.433 53.1084 451.524 52.8824 451.524ZM38.9612 440.136C38.7804 440.136 38.5996 440.091 38.464 439.955C37.8764 439.413 37.334 438.916 36.7916 438.374C35.1645 436.838 33.5373 435.211 32.0458 433.629C31.7746 433.313 31.7746 432.861 32.0458 432.545C32.3622 432.274 32.8142 432.274 33.1305 432.545C34.6221 434.126 36.2493 435.708 37.8312 437.244C38.3736 437.786 38.9612 438.284 39.5035 438.826C39.8199 439.097 39.82 439.594 39.5488 439.91C39.368 440.091 39.142 440.136 38.9612 440.136ZM26.4864 427.167C26.2604 427.167 26.0796 427.077 25.8988 426.896C23.9552 424.546 22.0569 422.151 20.3394 419.757C20.1134 419.44 20.1585 418.943 20.5201 418.717C20.8365 418.491 21.3337 418.536 21.5597 418.898C23.2773 421.248 25.1304 423.643 27.0739 425.947C27.3451 426.264 27.2999 426.761 26.9835 427.032C26.8479 427.122 26.6672 427.167 26.4864 427.167ZM15.9551 412.617C15.6839 412.617 15.4579 412.481 15.3223 412.255C13.7403 409.68 12.2488 407.014 10.8929 404.348C10.7121 403.986 10.8476 403.534 11.2092 403.353C11.5708 403.173 12.0228 403.308 12.2036 403.67C13.5144 406.291 15.0059 408.911 16.5879 411.442C16.8139 411.803 16.6783 412.255 16.3619 412.481C16.2263 412.572 16.0907 412.617 15.9551 412.617ZM7.81932 396.62C7.50293 396.62 7.23175 396.44 7.09616 396.169C5.96619 393.367 4.97184 390.475 4.11306 387.628C3.97747 387.221 4.20345 386.815 4.61024 386.679C5.01702 386.544 5.4238 386.769 5.55939 387.176C6.41817 389.978 7.41254 392.825 8.4973 395.581C8.6329 395.988 8.45209 396.394 8.09051 396.575C8.00011 396.575 7.90972 396.62 7.81932 396.62ZM2.66667 379.404C2.30508 379.404 1.98871 379.178 1.94351 378.816C1.35592 375.879 0.903939 372.852 0.587549 369.869C0.54235 369.463 0.85874 369.101 1.26553 369.056C1.67232 369.011 2.03393 369.327 2.07912 369.734C2.39551 372.671 2.8475 375.653 3.43508 378.545C3.52548 378.952 3.25427 379.359 2.84748 379.449C2.75708 379.404 2.71187 379.404 2.66667 379.404ZM0.768354 361.509C0.361567 361.509 0 361.193 0 360.741C0 360.47 0 360.199 0 359.928C0 357.171 0.135563 354.415 0.361556 351.659C0.406754 351.252 0.768365 350.936 1.17515 350.981C1.58194 351.026 1.89833 351.387 1.85313 351.794C1.62714 354.505 1.49152 357.217 1.49152 359.928C1.49152 360.199 1.49152 360.47 1.49152 360.696C1.53672 361.193 1.22034 361.509 0.768354 361.509ZM2.30512 343.615C2.25992 343.615 2.2147 343.615 2.1695 343.615C1.76271 343.525 1.49155 343.163 1.58195 342.757C2.12433 339.819 2.80227 336.837 3.57065 333.9C3.66104 333.493 4.11307 333.267 4.51986 333.358C4.92665 333.448 5.15262 333.9 5.06222 334.306C4.29385 337.153 3.61585 340.091 3.07347 343.028C2.98307 343.389 2.66671 343.615 2.30512 343.615ZM66.1255 343.57C64.0464 343.57 61.9673 343.434 59.8881 343.163C59.4814 343.118 59.165 342.757 59.2102 342.305C59.2554 341.898 59.6621 341.582 60.0689 341.627C63.0068 341.988 65.99 342.079 68.9279 341.898C69.3347 341.853 69.6962 342.169 69.7414 342.621C69.7866 343.028 69.4702 343.389 69.0182 343.434C68.0239 343.57 67.0747 343.57 66.1255 343.57ZM77.832 342.079C77.5156 342.079 77.1992 341.853 77.1088 341.537C77.0184 341.13 77.2444 340.723 77.6512 340.633C80.5439 339.865 83.3462 338.78 85.8773 337.47C86.2389 337.289 86.6909 337.424 86.9169 337.786C87.0977 338.147 86.9621 338.599 86.6005 338.825C83.979 340.226 81.0863 341.311 78.058 342.124C77.9676 342.079 77.8772 342.079 77.832 342.079ZM51.21 341.311C51.1196 341.311 51.0744 341.311 50.984 341.265C48.0913 340.362 45.2438 339.232 42.5319 337.876C42.1703 337.696 41.9895 337.244 42.2155 336.882C42.3962 336.521 42.8483 336.34 43.2099 336.566C45.8766 337.876 48.6337 339.006 51.436 339.865C51.8428 340 52.0687 340.407 51.9331 340.814C51.7976 341.13 51.5264 341.311 51.21 341.311ZM93.5611 333.719C93.3803 333.719 93.1543 333.629 93.0187 333.493C92.7475 333.177 92.7475 332.725 93.0639 332.409C95.2334 330.375 97.0866 328.116 98.533 325.585C98.7589 325.224 99.2109 325.088 99.5725 325.314C99.9341 325.54 100.07 325.992 99.8437 326.353C98.3069 328.974 96.4086 331.369 94.1035 333.493C93.9227 333.629 93.7419 333.719 93.5611 333.719ZM35.1645 333.358C35.0289 333.358 34.8481 333.312 34.7125 333.222C32.2718 331.46 29.9214 329.517 27.7519 327.393C27.4355 327.122 27.4355 326.625 27.7519 326.308C28.0231 325.992 28.5203 325.992 28.8367 326.308C30.961 328.387 33.2661 330.33 35.6165 332.002C35.9329 332.228 36.0233 332.725 35.7973 333.041C35.6165 333.222 35.3905 333.358 35.1645 333.358ZM7.09616 326.308C7.00576 326.308 6.91537 326.308 6.82498 326.263C6.41819 326.127 6.2374 325.676 6.37299 325.314C7.41256 322.512 8.58769 319.711 9.89845 316.954C10.0792 316.593 10.5313 316.412 10.8929 316.593C11.2544 316.774 11.4352 317.226 11.2544 317.587C9.98885 320.253 8.81371 323.055 7.77414 325.811C7.68374 326.127 7.36735 326.308 7.09616 326.308ZM22.2829 320.886C22.0569 320.886 21.8309 320.795 21.6953 320.615C19.8874 318.265 18.1698 315.734 16.5879 313.113C16.3619 312.752 16.4975 312.3 16.859 312.074C17.2206 311.848 17.6726 311.984 17.8986 312.345C19.4354 314.921 21.1077 317.406 22.9157 319.711C23.1869 320.027 23.0964 320.524 22.7801 320.75C22.5993 320.795 22.4637 320.886 22.2829 320.886ZM102.375 318.4C102.33 318.4 102.284 318.4 102.194 318.4C101.787 318.31 101.516 317.903 101.606 317.497C102.058 315.373 102.284 313.159 102.284 310.899C102.284 310.176 102.284 309.498 102.239 308.775C102.194 308.369 102.51 308.007 102.962 307.962C103.369 307.917 103.731 308.233 103.776 308.685C103.821 309.408 103.866 310.176 103.866 310.899C103.866 313.249 103.64 315.599 103.143 317.813C103.053 318.129 102.736 318.4 102.375 318.4ZM14.7799 310.086C14.6443 310.086 14.5087 310.041 14.4183 309.995C14.0567 309.77 13.9211 309.318 14.1471 308.956C15.6839 306.335 17.311 303.805 19.0738 301.365C19.2998 301.003 19.797 300.958 20.1134 301.184C20.475 301.41 20.5201 301.907 20.2941 302.223C18.5766 304.618 16.9495 307.149 15.4579 309.724C15.3223 309.95 15.0511 310.086 14.7799 310.086ZM13.1076 305.477C12.8364 305.477 12.5652 305.296 12.4296 305.025C11.2093 302.359 10.1245 299.512 9.1301 296.575C8.9945 296.168 9.22048 295.761 9.62727 295.626C10.0341 295.49 10.4408 295.716 10.5764 296.123C11.5256 298.97 12.6556 301.771 13.8308 304.437C14.0116 304.799 13.8307 305.251 13.4692 305.432C13.3336 305.432 13.198 305.477 13.1076 305.477ZM101.471 300.596C101.154 300.596 100.838 300.37 100.748 300.054C100.657 299.738 100.567 299.422 100.476 299.15C99.6629 296.53 98.7137 294.044 97.6742 291.74C97.4934 291.378 97.6741 290.926 98.0357 290.745C98.3973 290.565 98.8493 290.745 99.0301 291.107C100.115 293.457 101.064 295.987 101.923 298.699C102.013 299.015 102.104 299.331 102.194 299.648C102.33 300.054 102.058 300.461 101.697 300.596C101.606 300.596 101.516 300.596 101.471 300.596ZM25.2208 295.445C25.04 295.445 24.8592 295.4 24.7236 295.264C24.4072 294.993 24.362 294.496 24.6332 294.18C26.622 291.875 28.7463 289.661 30.8706 287.582C31.187 287.311 31.639 287.311 31.9554 287.628C32.2266 287.944 32.2266 288.396 31.9102 288.712C29.7859 290.745 27.7519 292.915 25.7632 295.174C25.6728 295.355 25.4468 295.445 25.2208 295.445ZM7.32215 288.441C6.96056 288.441 6.68938 288.215 6.59898 287.853C5.92101 285.007 5.28823 282.024 4.79104 278.997C4.74584 278.59 5.01704 278.183 5.42383 278.138C5.83062 278.048 6.23736 278.364 6.28256 278.771C6.77975 281.753 7.36734 284.69 8.04532 287.537C8.13572 287.944 7.90974 288.351 7.50296 288.441C7.45776 288.441 7.41255 288.441 7.32215 288.441ZM93.8775 284.374C93.6515 284.374 93.4255 284.284 93.2447 284.058C91.4819 281.572 89.448 279.403 87.3237 277.596C87.0073 277.325 86.9621 276.873 87.2333 276.511C87.5045 276.195 87.9564 276.15 88.318 276.421C90.5779 278.319 92.6571 280.578 94.5103 283.154C94.7363 283.515 94.691 283.967 94.3295 284.193C94.1487 284.329 94.0131 284.374 93.8775 284.374ZM38.238 283.064C38.012 283.064 37.786 282.973 37.6504 282.747C37.3792 282.431 37.4696 281.934 37.786 281.708C40.2719 279.81 42.803 278.093 45.3342 276.647C45.6958 276.421 46.1478 276.557 46.3738 276.918C46.5997 277.28 46.4642 277.731 46.1026 277.957C43.6166 279.403 41.1307 281.075 38.7352 282.928C38.5544 283.018 38.4188 283.064 38.238 283.064ZM53.7863 274.116C53.4699 274.116 53.1987 273.936 53.0631 273.619C52.9275 273.213 53.1083 272.806 53.4699 272.625C56.4078 271.45 59.3909 270.637 62.2385 270.095C62.6452 270.004 63.052 270.275 63.0972 270.727C63.1876 271.134 62.9164 271.541 62.4644 271.586C59.7073 272.083 56.8146 272.896 53.9671 274.026C53.9671 274.071 53.8767 274.116 53.7863 274.116ZM80.0919 273.167C80.0015 273.167 79.9111 273.167 79.8207 273.122C77.154 272.038 74.3065 271.405 71.3234 271.134C70.9166 271.089 70.6002 270.727 70.6454 270.321C70.6906 269.914 71.0522 269.598 71.459 269.643C74.5777 269.869 77.606 270.592 80.4083 271.721C80.8151 271.857 80.9959 272.309 80.8151 272.716C80.6795 272.987 80.4083 273.167 80.0919 273.167ZM4.42943 270.727C4.02264 270.727 3.70627 270.456 3.66108 270.05C3.38988 267.112 3.16387 264.085 3.07347 261.057C3.07347 260.65 3.38985 260.289 3.79664 260.289C4.20343 260.289 4.56505 260.605 4.56505 261.012C4.65545 264.04 4.8814 267.022 5.1526 269.959C5.19779 270.366 4.8814 270.727 4.47462 270.773C4.47462 270.727 4.42943 270.727 4.42943 270.727ZM3.75145 252.743C3.29946 252.743 2.9831 252.381 2.9831 251.974C3.0283 249.037 3.16386 246.01 3.34465 242.937C3.38985 242.53 3.75146 242.214 4.15825 242.214C4.56504 242.259 4.88142 242.621 4.88142 243.027C4.70062 246.055 4.56506 249.082 4.51986 251.974C4.47466 252.426 4.15824 252.743 3.75145 252.743ZM4.83623 234.803C4.79103 234.803 4.79105 234.803 4.74585 234.803C4.33907 234.758 4.02268 234.396 4.06787 233.99C4.38426 230.962 4.79104 227.98 5.24303 225.043C5.28823 224.636 5.69502 224.365 6.10181 224.41C6.5086 224.455 6.77975 224.862 6.73455 225.268C6.28256 228.16 5.87578 231.143 5.55939 234.125C5.55939 234.532 5.24302 234.803 4.83623 234.803ZM7.68376 217.044C7.63856 217.044 7.59335 217.044 7.50296 217.044C7.09617 216.954 6.82496 216.547 6.91535 216.141C7.54813 213.203 8.27133 210.221 9.08491 207.374C9.17531 206.967 9.62728 206.741 10.0341 206.832C10.4409 206.922 10.6668 207.374 10.5764 207.781C9.80805 210.628 9.0849 213.52 8.45212 216.457C8.36172 216.818 8.04535 217.044 7.68376 217.044ZM12.4748 199.737C12.3844 199.737 12.294 199.737 12.2488 199.692C11.842 199.557 11.6612 199.15 11.7968 198.743C12.7912 195.896 13.8308 193.05 14.9607 190.293C15.1415 189.886 15.5483 189.706 15.9551 189.886C16.3619 190.067 16.5427 190.474 16.3619 190.881C15.2319 193.592 14.1923 196.439 13.198 199.24C13.1076 199.557 12.7912 199.737 12.4748 199.737ZM19.345 183.108C19.2546 183.108 19.119 183.063 19.0286 183.018C18.667 182.837 18.4862 182.385 18.667 182.024C19.9777 179.312 21.3789 176.646 22.8705 174.026C23.0965 173.664 23.5484 173.528 23.91 173.754C24.2716 173.98 24.4072 174.432 24.1813 174.794C22.7349 177.369 21.3337 180.035 20.0229 182.702C19.8874 182.973 19.6162 183.108 19.345 183.108ZM28.2039 167.519C28.0683 167.519 27.9327 167.473 27.7971 167.383C27.4356 167.157 27.3452 166.705 27.5711 166.344C29.1983 163.858 30.961 161.373 32.769 158.978C33.0402 158.662 33.4921 158.571 33.8085 158.842C34.1249 159.114 34.2153 159.565 33.9441 159.882C32.1362 162.232 30.4186 164.717 28.7915 167.202C28.7011 167.383 28.4299 167.519 28.2039 167.519ZM39.0515 153.149C38.8708 153.149 38.69 153.104 38.5544 152.968C38.238 152.697 38.1928 152.2 38.464 151.884C40.4075 149.624 42.4867 147.365 44.5658 145.241C44.837 144.925 45.3342 144.925 45.6506 145.241C45.967 145.512 45.967 146.009 45.6506 146.325C43.5715 148.449 41.5375 150.663 39.594 152.923C39.4584 153.058 39.2323 153.149 39.0515 153.149ZM51.6168 140.315C51.3908 140.315 51.21 140.225 51.0744 140.044C50.8032 139.728 50.8032 139.276 51.1196 138.96C53.3343 136.972 55.6846 135.028 58.035 133.131C58.3513 132.859 58.8486 132.905 59.0746 133.266C59.3457 133.582 59.3005 134.08 58.9389 134.306C56.5886 136.158 54.2835 138.101 52.114 140.044C51.9784 140.27 51.7976 140.315 51.6168 140.315ZM257.858 135.526C257.677 135.526 257.496 135.435 257.316 135.3C255.191 133.266 252.977 131.233 250.671 129.335C250.355 129.064 250.31 128.612 250.581 128.25C250.852 127.934 251.304 127.889 251.666 128.16C254.016 130.103 256.276 132.091 258.4 134.17C258.717 134.441 258.717 134.938 258.4 135.254C258.265 135.48 258.039 135.526 257.858 135.526ZM65.7187 129.199C65.4927 129.199 65.2668 129.109 65.086 128.883C64.86 128.521 64.9503 128.07 65.2667 127.844C67.7075 126.126 70.2838 124.455 72.8149 122.918C73.1765 122.692 73.6285 122.828 73.8545 123.189C74.0805 123.551 73.9449 124.003 73.5833 124.229C71.0522 125.765 68.5211 127.437 66.0803 129.109C65.9899 129.154 65.8543 129.199 65.7187 129.199ZM243.982 124.138C243.846 124.138 243.666 124.093 243.53 124.003C241.135 122.331 238.603 120.704 235.982 119.213C235.62 118.987 235.485 118.535 235.711 118.173C235.937 117.812 236.389 117.676 236.75 117.902C239.372 119.439 241.948 121.065 244.389 122.783C244.75 123.009 244.796 123.506 244.57 123.822C244.434 124.048 244.208 124.138 243.982 124.138ZM81.0411 119.8C80.7699 119.8 80.4987 119.665 80.3631 119.394C80.1823 119.032 80.3179 118.58 80.6795 118.354C83.301 116.953 86.0129 115.598 88.77 114.333C89.1316 114.152 89.5836 114.333 89.7644 114.694C89.9452 115.056 89.7644 115.507 89.4028 115.688C86.6909 116.953 83.979 118.309 81.4027 119.665C81.2671 119.8 81.1315 119.8 81.0411 119.8ZM228.479 115.056C228.389 115.056 228.253 115.01 228.163 114.965C225.541 113.655 222.784 112.435 220.027 111.305C219.62 111.124 219.439 110.717 219.62 110.311C219.801 109.904 220.208 109.723 220.614 109.904C223.417 111.034 226.174 112.299 228.841 113.609C229.202 113.79 229.383 114.242 229.202 114.604C229.021 114.875 228.75 115.056 228.479 115.056ZM97.3577 112.254C97.0414 112.254 96.7702 112.073 96.6346 111.757C96.499 111.35 96.6798 110.943 97.0414 110.763C99.7985 109.678 102.691 108.594 105.539 107.645C105.946 107.509 106.352 107.735 106.488 108.097C106.623 108.503 106.397 108.91 106.036 109.046C103.188 109.994 100.386 111.034 97.629 112.118C97.5386 112.209 97.4481 112.254 97.3577 112.254ZM211.846 108.232C211.755 108.232 211.665 108.232 211.62 108.187C208.818 107.238 205.97 106.379 203.077 105.611C202.671 105.521 202.444 105.069 202.535 104.708C202.625 104.301 203.077 104.075 203.439 104.165C206.377 104.933 209.27 105.837 212.072 106.786C212.479 106.922 212.659 107.328 212.524 107.735C212.479 108.006 212.162 108.232 211.846 108.232ZM114.352 106.515C114.036 106.515 113.72 106.289 113.629 105.973C113.539 105.566 113.765 105.159 114.172 105.024C117.064 104.21 120.002 103.487 122.94 102.81C123.347 102.719 123.754 102.99 123.844 103.397C123.935 103.804 123.663 104.21 123.257 104.301C120.364 104.933 117.426 105.702 114.578 106.47C114.488 106.515 114.443 106.515 114.352 106.515ZM194.49 103.533C194.444 103.533 194.399 103.533 194.354 103.533C191.461 102.945 188.478 102.403 185.54 101.951C185.133 101.906 184.862 101.499 184.907 101.093C184.953 100.686 185.359 100.415 185.766 100.46C188.749 100.912 191.732 101.454 194.67 102.041C195.077 102.132 195.348 102.539 195.258 102.945C195.168 103.262 194.851 103.533 194.49 103.533ZM131.935 102.584C131.573 102.584 131.257 102.313 131.212 101.951C131.121 101.544 131.438 101.138 131.844 101.093C134.782 100.595 137.811 100.144 140.794 99.8272C141.2 99.782 141.562 100.053 141.652 100.505C141.698 100.912 141.426 101.273 140.974 101.364C138.036 101.725 135.053 102.132 132.115 102.629C132.025 102.584 131.98 102.584 131.935 102.584ZM176.727 100.867C176.681 100.867 176.681 100.867 176.636 100.867C173.698 100.595 170.67 100.415 167.687 100.279C167.28 100.279 166.964 99.9176 166.964 99.5109C166.964 99.1042 167.325 98.7879 167.732 98.7879C170.715 98.9235 173.789 99.1042 176.727 99.3753C177.133 99.4205 177.45 99.7821 177.405 100.189C177.45 100.595 177.088 100.867 176.727 100.867ZM149.788 100.505C149.381 100.505 149.065 100.189 149.02 99.782C148.975 99.3754 149.291 99.0139 149.743 98.9687C152.726 98.7879 155.754 98.6524 158.783 98.6072C159.189 98.6072 159.551 98.9235 159.551 99.3302C159.551 99.7369 159.235 100.098 158.828 100.098C155.845 100.144 152.862 100.234 149.879 100.46C149.788 100.505 149.788 100.505 149.788 100.505Z" fill="#FF8548"/>
<path d="M286.875 457.67C286.559 457.67 286.288 457.489 286.152 457.172C286.017 456.766 286.197 456.359 286.559 456.178C289.226 455.138 290.717 454.46 290.717 454.46C291.079 454.28 291.531 454.46 291.712 454.867C291.892 455.229 291.712 455.681 291.305 455.862C291.305 455.862 289.813 456.494 287.101 457.579C287.056 457.624 286.966 457.67 286.875 457.67Z" fill="#FF8548"/>
<path d="M328.549 137.197C328.503 137.197 328.458 137.197 328.368 137.197C327.961 137.107 327.69 136.7 327.78 136.293C328.097 134.802 328.503 133.311 329.001 131.865C329.136 131.458 329.543 131.232 329.95 131.368C330.357 131.504 330.583 131.91 330.447 132.317C329.995 133.718 329.588 135.164 329.272 136.61C329.227 136.971 328.91 137.197 328.549 137.197Z" fill="#66192D"/>
<path d="M531.219 350.303C530.903 350.303 530.632 350.122 530.496 349.806C530.36 349.399 530.541 348.992 530.948 348.811C533.615 347.817 536.327 346.552 538.993 345.106C539.355 344.925 539.807 345.061 540.033 345.422C540.214 345.784 540.078 346.236 539.716 346.462C537.004 347.953 534.247 349.218 531.49 350.258C531.4 350.303 531.31 350.303 531.219 350.303ZM546.948 341.807C546.722 341.807 546.496 341.717 546.315 341.491C546.089 341.175 546.135 340.678 546.496 340.452C548.892 338.735 551.197 336.837 553.366 334.848C553.683 334.577 554.135 334.577 554.451 334.894C554.768 335.21 554.722 335.662 554.406 335.978C552.191 338.012 549.841 339.91 547.4 341.672C547.219 341.762 547.084 341.807 546.948 341.807ZM560.056 329.697C559.875 329.697 559.694 329.652 559.559 329.516C559.242 329.245 559.197 328.793 559.468 328.432C561.367 326.172 563.129 323.777 564.711 321.292C564.937 320.931 565.389 320.84 565.751 321.066C566.112 321.292 566.203 321.744 565.977 322.105C564.35 324.636 562.542 327.076 560.598 329.381C560.508 329.607 560.282 329.697 560.056 329.697ZM569.683 314.65C569.593 314.65 569.457 314.604 569.367 314.559C569.005 314.378 568.824 313.927 569.005 313.565C570.225 310.899 571.31 308.143 572.169 305.296C572.305 304.889 572.711 304.663 573.118 304.799C573.525 304.934 573.751 305.341 573.615 305.748C572.711 308.64 571.627 311.486 570.361 314.198C570.225 314.469 569.954 314.65 569.683 314.65ZM574.971 297.614C574.926 297.614 574.881 297.614 574.836 297.614C574.429 297.523 574.158 297.162 574.203 296.755C574.7 293.908 575.016 290.926 575.197 287.944C575.197 287.537 575.559 287.221 576.011 287.221C576.418 287.221 576.734 287.582 576.734 288.034C576.598 291.062 576.237 294.089 575.74 297.026C575.649 297.343 575.333 297.614 574.971 297.614ZM575.92 279.765C575.514 279.765 575.197 279.448 575.152 279.042C574.971 276.15 574.655 273.212 574.203 270.23C574.158 269.823 574.429 269.417 574.836 269.371C575.243 269.326 575.649 269.597 575.694 270.004C576.192 273.032 576.508 276.059 576.689 278.951C576.689 279.403 576.372 279.765 575.92 279.765ZM573.163 262.096C572.802 262.096 572.531 261.87 572.44 261.509C571.762 258.707 570.949 255.815 569.999 252.968C569.864 252.562 570.09 252.155 570.497 252.019C570.903 251.884 571.31 252.11 571.446 252.516C572.395 255.408 573.209 258.346 573.932 261.192C574.022 261.599 573.796 262.006 573.389 262.096C573.299 262.096 573.209 262.096 573.163 262.096ZM567.739 245.06C567.423 245.06 567.107 244.88 567.016 244.518C566.067 241.626 565.299 238.689 564.666 235.797C564.576 235.39 564.847 234.984 565.254 234.893C565.66 234.803 566.067 235.074 566.158 235.481C566.745 238.327 567.559 241.219 568.463 244.021C568.598 244.428 568.372 244.834 567.965 244.97C567.92 245.06 567.83 245.06 567.739 245.06ZM564.033 227.573C563.672 227.573 563.31 227.302 563.265 226.895C562.994 224.319 562.858 221.698 562.858 219.123C562.858 218.716 562.858 218.264 562.858 217.857C562.858 217.451 563.22 217.134 563.626 217.134C564.033 217.134 564.395 217.496 564.35 217.903C564.35 218.309 564.35 218.716 564.35 219.123C564.35 221.653 564.485 224.229 564.711 226.759C564.756 227.166 564.44 227.528 564.033 227.573ZM564.304 209.724C564.259 209.724 564.259 209.724 564.214 209.724C563.807 209.678 563.491 209.272 563.581 208.865C563.988 205.883 564.576 202.9 565.344 200.008C565.434 199.602 565.841 199.376 566.248 199.466C566.655 199.556 566.881 199.963 566.79 200.37C566.067 203.217 565.48 206.154 565.073 209.046C565.028 209.452 564.711 209.724 564.304 209.724ZM626.905 208.594C626.498 208.594 626.136 208.278 626.136 207.871C626.136 207.464 626.452 207.103 626.859 207.103C629.888 207.057 632.826 206.832 635.673 206.38C636.08 206.335 636.487 206.606 636.532 207.012C636.577 207.419 636.306 207.826 635.899 207.871C633.006 208.278 629.978 208.549 626.905 208.594ZM617.955 208.232C617.91 208.232 617.91 208.232 617.865 208.232C614.927 207.961 611.899 207.509 608.915 206.877C608.509 206.786 608.237 206.38 608.328 205.973C608.418 205.566 608.825 205.295 609.232 205.386C612.17 205.973 615.108 206.425 618 206.696C618.407 206.741 618.724 207.103 618.678 207.509C618.678 207.916 618.362 208.232 617.955 208.232ZM644.532 205.928C644.216 205.928 643.899 205.702 643.809 205.386C643.673 204.979 643.899 204.572 644.306 204.437C647.244 203.533 650.001 202.403 652.442 201.048C652.803 200.867 653.255 201.002 653.481 201.364C653.662 201.725 653.526 202.177 653.165 202.403C650.634 203.759 647.831 204.934 644.758 205.883C644.713 205.928 644.622 205.928 644.532 205.928ZM600.418 204.663C600.328 204.663 600.283 204.663 600.192 204.617C597.345 203.714 594.497 202.674 591.74 201.499C591.378 201.319 591.198 200.912 591.333 200.505C591.514 200.144 591.921 199.963 592.328 200.099C595.04 201.228 597.842 202.268 600.644 203.171C601.051 203.307 601.277 203.714 601.141 204.12C601.051 204.437 600.78 204.663 600.418 204.663ZM583.966 197.704C583.83 197.704 583.74 197.658 583.604 197.613C580.983 196.167 578.361 194.631 575.875 192.914C575.514 192.688 575.423 192.191 575.649 191.874C575.875 191.513 576.372 191.423 576.689 191.648C579.13 193.32 581.706 194.857 584.282 196.258C584.644 196.438 584.779 196.935 584.599 197.297C584.508 197.568 584.237 197.704 583.966 197.704ZM659.99 197.207C659.809 197.207 659.583 197.116 659.448 196.981C659.131 196.664 659.131 196.212 659.448 195.896C661.617 193.727 663.199 191.332 664.238 188.802C664.374 188.395 664.826 188.214 665.233 188.395C665.64 188.531 665.82 188.982 665.64 189.389C664.555 192.146 662.837 194.721 660.532 197.026C660.397 197.161 660.171 197.207 659.99 197.207ZM568.779 192.462C568.689 192.462 568.598 192.462 568.508 192.417C568.101 192.281 567.92 191.829 568.101 191.423C569.186 188.621 570.451 185.864 571.853 183.198C572.033 182.837 572.485 182.701 572.892 182.882C573.254 183.063 573.389 183.515 573.209 183.921C571.807 186.542 570.587 189.254 569.502 191.965C569.367 192.281 569.095 192.462 568.779 192.462ZM569.141 187.717C568.96 187.717 568.824 187.672 568.643 187.536C566.338 185.639 564.079 183.605 561.954 181.481C561.638 181.21 561.638 180.713 561.954 180.397C562.225 180.08 562.723 180.08 563.039 180.397C565.118 182.475 567.378 184.464 569.638 186.361C569.954 186.633 569.999 187.085 569.728 187.446C569.593 187.627 569.367 187.717 569.141 187.717ZM666.272 181.075C665.866 181.075 665.549 180.758 665.504 180.352C665.323 177.64 664.6 174.839 663.335 171.992C663.154 171.63 663.335 171.178 663.741 170.998C664.103 170.817 664.555 170.998 664.736 171.404C666.047 174.432 666.815 177.414 666.996 180.261C667.041 180.668 666.724 181.029 666.272 181.075C666.318 181.075 666.318 181.075 666.272 181.075ZM577.186 176.691C577.05 176.691 576.87 176.646 576.779 176.556C576.418 176.33 576.372 175.833 576.598 175.516C578.316 173.031 580.169 170.636 582.158 168.377C582.429 168.06 582.926 168.015 583.243 168.332C583.559 168.603 583.604 169.1 583.333 169.416C581.389 171.63 579.536 173.98 577.864 176.375C577.638 176.556 577.412 176.691 577.186 176.691ZM556.44 175.11C556.214 175.11 556.033 175.019 555.852 174.839C553.954 172.579 552.101 170.184 550.383 167.699C550.157 167.337 550.248 166.886 550.564 166.66C550.926 166.434 551.378 166.524 551.604 166.84C553.321 169.281 555.129 171.63 557.027 173.89C557.299 174.206 557.253 174.703 556.937 174.974C556.801 175.065 556.621 175.11 556.44 175.11ZM659.583 164.762C659.357 164.762 659.131 164.671 658.95 164.445C657.188 162.005 655.244 159.746 653.165 157.803C652.848 157.532 652.849 157.035 653.12 156.718C653.391 156.402 653.888 156.402 654.204 156.673C656.329 158.661 658.363 160.966 660.171 163.497C660.397 163.813 660.351 164.31 659.99 164.536C659.899 164.671 659.764 164.762 659.583 164.762ZM588.983 163.271C588.757 163.271 588.576 163.18 588.44 162.999C588.169 162.683 588.169 162.231 588.486 161.915C590.746 159.881 593.141 158.029 595.582 156.312C595.943 156.086 596.395 156.176 596.621 156.492C596.847 156.854 596.757 157.306 596.441 157.532C594.045 159.158 591.695 161.011 589.48 162.999C589.344 163.225 589.164 163.271 588.983 163.271ZM546.18 160.514C545.909 160.514 545.683 160.379 545.547 160.153C544.056 157.622 542.609 154.911 541.298 152.2C541.118 151.838 541.253 151.386 541.66 151.205C542.022 151.025 542.473 151.16 542.654 151.567C543.965 154.233 545.366 156.899 546.813 159.43C547.039 159.791 546.903 160.243 546.541 160.469C546.451 160.469 546.315 160.514 546.18 160.514ZM603.718 153.194C603.446 153.194 603.175 153.058 603.04 152.787C602.859 152.425 602.994 151.974 603.356 151.793C606.113 150.392 608.915 149.262 611.718 148.359C612.125 148.223 612.531 148.449 612.667 148.856C612.803 149.262 612.577 149.669 612.17 149.805C609.413 150.708 606.701 151.838 603.989 153.148C603.944 153.148 603.853 153.194 603.718 153.194ZM646.611 152.606C646.475 152.606 646.34 152.561 646.25 152.516C643.718 151.025 641.052 149.85 638.249 148.991C637.843 148.856 637.617 148.449 637.752 148.042C637.888 147.636 638.295 147.41 638.701 147.545C641.594 148.449 644.396 149.669 647.063 151.205C647.425 151.431 647.56 151.883 647.334 152.245C647.108 152.516 646.837 152.606 646.611 152.606ZM620.712 147.771C620.351 147.771 620.034 147.5 619.944 147.139C619.899 146.732 620.17 146.325 620.577 146.28C623.65 145.873 626.724 145.738 629.662 145.964C630.068 146.009 630.385 146.37 630.385 146.777C630.385 147.184 630.023 147.5 629.571 147.5C626.724 147.319 623.741 147.41 620.803 147.816C620.758 147.771 620.712 147.771 620.712 147.771ZM538.36 144.427C538.044 144.427 537.773 144.247 537.637 143.93C536.553 141.174 535.513 138.327 534.609 135.48C534.473 135.073 534.699 134.667 535.106 134.531C535.513 134.396 535.92 134.622 536.055 135.028C536.959 137.875 537.954 140.677 539.038 143.388C539.174 143.795 538.993 144.201 538.632 144.382C538.541 144.427 538.451 144.427 538.36 144.427ZM532.53 127.527C532.213 127.527 531.942 127.346 531.807 127.03C530.767 124.228 529.547 121.472 528.281 118.896C528.1 118.535 528.236 118.083 528.643 117.902C529.004 117.721 529.456 117.857 529.637 118.264C530.948 120.93 532.123 123.686 533.208 126.533C533.343 126.94 533.163 127.346 532.756 127.527C532.711 127.482 532.62 127.527 532.53 127.527ZM333.204 124.59C333.068 124.59 332.978 124.545 332.842 124.499C332.481 124.319 332.345 123.867 332.526 123.505C333.882 120.884 335.464 118.309 337.227 115.778C337.453 115.417 337.95 115.372 338.266 115.597C338.628 115.823 338.673 116.32 338.447 116.637C336.73 119.122 335.148 121.653 333.837 124.183C333.746 124.454 333.475 124.59 333.204 124.59ZM524.665 111.485C524.394 111.485 524.168 111.35 524.032 111.124C522.451 108.593 520.778 106.153 518.97 103.849C518.699 103.532 518.789 103.035 519.106 102.809C519.422 102.538 519.919 102.629 520.145 102.945C521.953 105.295 523.716 107.78 525.298 110.356C525.524 110.717 525.388 111.169 525.072 111.395C524.936 111.44 524.801 111.485 524.665 111.485ZM343.419 109.949C343.238 109.949 343.057 109.904 342.922 109.768C342.605 109.497 342.605 109 342.876 108.684C344.82 106.515 346.99 104.346 349.25 102.312C349.566 102.041 350.018 102.041 350.334 102.357C350.605 102.674 350.605 103.126 350.289 103.442C348.074 105.475 345.95 107.599 344.006 109.723C343.826 109.904 343.645 109.949 343.419 109.949ZM356.617 97.9291C356.391 97.9291 356.165 97.8387 356.029 97.6128C355.758 97.2964 355.849 96.7994 356.165 96.5735C358.515 94.8111 361.001 93.0488 363.532 91.422C363.894 91.1961 364.346 91.2865 364.572 91.648C364.798 92.0095 364.707 92.4613 364.346 92.6873C361.815 94.314 359.374 96.0312 357.069 97.7935C356.933 97.8387 356.798 97.9291 356.617 97.9291ZM513.727 97.3868C513.546 97.3868 513.32 97.2964 513.185 97.1609C511.151 95.0371 508.936 93.0036 506.676 91.1509C506.36 90.8798 506.315 90.4279 506.586 90.0664C506.857 89.7501 507.309 89.7049 507.671 89.976C509.976 91.8739 512.236 93.9526 514.315 96.1216C514.586 96.4379 514.586 96.8897 514.315 97.2061C514.089 97.2964 513.908 97.3868 513.727 97.3868ZM371.668 88.2137C371.397 88.2137 371.126 88.0781 370.99 87.807C370.809 87.4455 370.945 86.9936 371.306 86.7677C373.883 85.3217 376.595 83.9661 379.352 82.7008C379.713 82.5201 380.165 82.7008 380.346 83.0623C380.527 83.4238 380.346 83.8757 379.985 84.0564C377.273 85.3217 374.606 86.6773 372.03 88.0781C371.894 88.1685 371.758 88.2137 371.668 88.2137ZM499.942 85.9995C499.806 85.9995 499.67 85.9543 499.535 85.8639C497.094 84.2372 494.518 82.746 491.896 81.3904C491.535 81.2096 491.399 80.7577 491.58 80.351C491.761 79.9895 492.213 79.854 492.619 80.0347C495.286 81.4355 497.908 82.9719 500.394 84.5987C500.755 84.8246 500.846 85.2765 500.62 85.638C500.439 85.8639 500.213 85.9995 499.942 85.9995ZM387.849 80.6222C387.533 80.6222 387.262 80.4414 387.126 80.1251C386.99 79.7184 387.171 79.3117 387.533 79.131C390.29 78.0465 393.137 77.0071 395.985 76.1034C396.392 75.9678 396.798 76.1938 396.934 76.6005C397.07 77.0072 396.844 77.4138 396.437 77.5494C393.634 78.4531 390.787 79.4925 388.075 80.577C388.03 80.577 387.939 80.6222 387.849 80.6222ZM484.122 77.7302C484.032 77.7302 483.941 77.7301 483.851 77.6849C481.139 76.6004 478.337 75.6063 475.444 74.7477C475.037 74.6122 474.811 74.2055 474.947 73.7988C475.082 73.3921 475.489 73.1662 475.896 73.3018C478.789 74.1603 481.681 75.1544 484.393 76.2841C484.8 76.4197 484.981 76.8716 484.8 77.2783C484.71 77.5494 484.393 77.7302 484.122 77.7302ZM404.889 75.0641C404.573 75.0641 404.256 74.8381 404.166 74.5218C404.075 74.1151 404.301 73.7084 404.708 73.6181C407.601 72.8499 410.539 72.172 413.477 71.5846C413.884 71.4942 414.29 71.7654 414.381 72.1721C414.471 72.5788 414.2 72.9854 413.793 73.0758C410.9 73.6633 407.963 74.3411 405.115 75.1093C405.025 75.0641 404.934 75.0641 404.889 75.0641ZM466.992 72.6239C466.947 72.6239 466.901 72.6239 466.856 72.6239C464.009 72.0365 461.071 71.5394 458.088 71.1779C457.681 71.1327 457.365 70.726 457.455 70.3194C457.5 69.9127 457.907 69.5964 458.314 69.6867C461.342 70.0934 464.325 70.5905 467.218 71.1779C467.625 71.2683 467.896 71.675 467.805 72.0817C467.625 72.3528 467.308 72.6239 466.992 72.6239ZM422.426 71.5394C422.064 71.5394 421.748 71.2683 421.658 70.9068C421.612 70.5001 421.884 70.0934 422.29 70.0482C425.274 69.6415 428.257 69.3252 431.24 69.0541C431.647 69.0089 432.008 69.3252 432.053 69.7319C432.099 70.1386 431.782 70.5001 431.375 70.5453C428.437 70.7712 425.454 71.0876 422.516 71.4943C422.516 71.5394 422.471 71.5394 422.426 71.5394ZM449.229 70.3194C446.246 70.1386 443.263 70.0934 440.279 70.1386C439.873 70.1386 439.511 69.8223 439.511 69.4156C439.511 69.0089 439.828 68.6474 440.234 68.6474C443.263 68.6022 446.291 68.6474 449.229 68.8282C449.636 68.8734 449.952 69.1897 449.952 69.6415C449.952 70.003 449.636 70.3194 449.229 70.3194Z" fill="#66192D"/>
<path d="M517.931 353.195C517.524 353.195 517.162 352.879 517.162 352.427C517.162 352.02 517.479 351.658 517.931 351.658C519.241 351.658 520.733 351.523 522.315 351.252C522.722 351.161 523.129 351.478 523.174 351.884C523.264 352.291 522.948 352.698 522.541 352.743C520.914 353.06 519.332 353.195 517.931 353.195Z" fill="#66192D"/>
<path d="M382.697 148.901H382.651C381.16 148.811 379.623 148.721 378.131 148.63C377.725 148.585 377.408 148.269 377.408 147.817C377.454 147.41 377.815 147.094 378.222 147.094C379.713 147.184 381.25 147.274 382.742 147.365C383.149 147.41 383.465 147.771 383.42 148.178C383.42 148.63 383.103 148.901 382.697 148.901Z" fill="#786AB5"/>
<path d="M525.479 580.309C524.846 580.309 524.213 580.309 523.581 580.309C523.174 580.309 522.812 579.947 522.857 579.541C522.857 579.134 523.219 578.818 523.626 578.818C526.654 578.863 529.637 578.818 532.62 578.592C533.027 578.546 533.389 578.863 533.434 579.315C533.479 579.721 533.163 580.083 532.711 580.128C530.315 580.218 527.92 580.309 525.479 580.309ZM514.541 579.767C514.496 579.767 514.496 579.767 514.45 579.767C511.467 579.495 508.394 579.044 505.411 578.546C505.004 578.456 504.733 578.095 504.778 577.688C504.868 577.281 505.23 577.01 505.637 577.055C508.62 577.598 511.603 578.004 514.586 578.275C514.993 578.321 515.309 578.682 515.264 579.089C515.264 579.45 514.948 579.767 514.541 579.767ZM541.705 579.089C541.344 579.089 541.027 578.818 540.982 578.456C540.937 578.049 541.208 577.643 541.615 577.598C544.553 577.146 547.536 576.558 550.474 575.88C550.88 575.79 551.287 576.016 551.378 576.423C551.468 576.829 551.242 577.236 550.835 577.326C547.897 578.049 544.869 578.592 541.886 579.044C541.75 579.089 541.705 579.089 541.705 579.089ZM496.687 576.739C496.642 576.739 496.552 576.739 496.507 576.739C493.523 576.061 490.586 575.293 487.693 574.434C487.286 574.299 487.06 573.892 487.196 573.485C487.331 573.079 487.738 572.853 488.145 572.988C490.992 573.802 493.93 574.57 496.868 575.248C497.275 575.338 497.546 575.745 497.456 576.151C497.32 576.513 497.004 576.739 496.687 576.739ZM559.333 574.886C559.016 574.886 558.7 574.706 558.609 574.389C558.474 573.983 558.7 573.576 559.107 573.44C561.954 572.491 564.756 571.452 567.514 570.277C567.92 570.096 568.327 570.277 568.508 570.684C568.689 571.045 568.508 571.497 568.101 571.678C565.299 572.853 562.451 573.937 559.559 574.886C559.468 574.886 559.378 574.886 559.333 574.886ZM479.241 571.678C479.15 571.678 479.06 571.678 478.969 571.633C476.122 570.639 473.229 569.509 470.472 568.379C470.065 568.198 469.885 567.792 470.065 567.385C470.246 566.978 470.653 566.798 471.06 566.978C473.817 568.153 476.664 569.238 479.467 570.232C479.874 570.367 480.054 570.819 479.919 571.181C479.874 571.497 479.557 571.678 479.241 571.678ZM576.011 567.792C575.74 567.792 575.468 567.656 575.333 567.385C575.152 567.024 575.288 566.572 575.649 566.346C578.271 564.945 580.892 563.454 583.424 561.827C583.785 561.601 584.237 561.691 584.463 562.053C584.689 562.414 584.599 562.866 584.237 563.092C581.661 564.719 578.994 566.255 576.327 567.656C576.237 567.792 576.101 567.792 576.011 567.792ZM462.517 564.674C462.427 564.674 462.291 564.629 462.201 564.583C459.489 563.228 456.777 561.827 454.156 560.336C453.794 560.11 453.658 559.658 453.884 559.297C454.11 558.935 454.562 558.799 454.924 559.025C457.5 560.517 460.212 561.917 462.879 563.228C463.24 563.409 463.421 563.86 463.24 564.222C463.105 564.538 462.834 564.674 462.517 564.674ZM591.288 558.076C591.062 558.076 590.836 557.986 590.7 557.76C590.429 557.444 590.52 556.947 590.836 556.721C593.232 554.913 595.582 553.015 597.797 551.027C598.113 550.756 598.565 550.801 598.881 551.072C599.153 551.389 599.107 551.84 598.836 552.157C596.576 554.19 594.181 556.133 591.785 557.941C591.604 558.031 591.424 558.076 591.288 558.076ZM446.788 555.727C446.653 555.727 446.517 555.681 446.381 555.591C443.85 553.919 441.319 552.202 438.923 550.394C438.607 550.123 438.517 549.672 438.788 549.355C439.014 549.039 439.511 548.948 439.827 549.22C442.223 551.027 444.709 552.744 447.24 554.371C447.602 554.597 447.692 555.049 447.466 555.41C447.285 555.591 447.014 555.727 446.788 555.727ZM604.848 546.056C604.667 546.056 604.486 545.966 604.305 545.831C603.989 545.559 603.989 545.062 604.305 544.746C606.384 542.577 608.418 540.318 610.317 538.013C610.588 537.697 611.04 537.652 611.401 537.923C611.718 538.194 611.763 538.646 611.492 539.007C609.548 541.357 607.514 543.616 605.39 545.831C605.254 546.011 605.028 546.056 604.848 546.056ZM432.234 544.882C432.053 544.882 431.873 544.836 431.737 544.701C429.432 542.758 427.127 540.724 424.957 538.6C424.641 538.329 424.641 537.832 424.912 537.516C425.183 537.2 425.68 537.2 425.997 537.471C428.166 539.549 430.426 541.583 432.731 543.481C433.048 543.752 433.093 544.204 432.822 544.565C432.641 544.791 432.46 544.882 432.234 544.882ZM419.081 532.41C418.901 532.41 418.675 532.319 418.539 532.184C416.46 529.97 414.426 527.665 412.528 525.361C412.256 525.044 412.302 524.547 412.618 524.276C412.934 524.005 413.432 524.05 413.703 524.366C415.646 526.671 417.635 528.975 419.669 531.145C419.94 531.461 419.94 531.913 419.624 532.229C419.443 532.319 419.262 532.41 419.081 532.41ZM616.373 532.093C616.238 532.093 616.057 532.048 615.921 531.958C615.56 531.732 615.515 531.235 615.741 530.919C617.458 528.478 619.13 525.903 620.622 523.327C620.848 522.966 621.3 522.83 621.661 523.056C622.023 523.282 622.159 523.734 621.933 524.095C620.396 526.716 618.724 529.292 616.961 531.777C616.87 532.003 616.644 532.093 616.373 532.093ZM407.465 518.447C407.239 518.447 407.013 518.356 406.878 518.13C405.07 515.69 403.307 513.16 401.68 510.629C401.454 510.268 401.544 509.816 401.906 509.59C402.267 509.364 402.719 509.454 402.945 509.816C404.573 512.301 406.335 514.832 408.098 517.227C408.324 517.543 408.279 518.04 407.962 518.266C407.782 518.402 407.646 518.447 407.465 518.447ZM625.594 516.504C625.503 516.504 625.368 516.458 625.277 516.413C624.916 516.233 624.735 515.781 624.916 515.419C626.227 512.708 627.447 509.951 628.532 507.15C628.667 506.743 629.119 506.562 629.526 506.698C629.933 506.834 630.114 507.285 629.978 507.692C628.893 510.494 627.673 513.295 626.317 516.052C626.136 516.323 625.91 516.504 625.594 516.504ZM397.522 503.264C397.25 503.264 397.024 503.128 396.889 502.902C395.352 500.236 393.906 497.525 392.55 494.859C392.369 494.497 392.505 494.045 392.911 493.865C393.273 493.684 393.725 493.819 393.906 494.226C395.217 496.892 396.663 499.558 398.2 502.179C398.426 502.541 398.29 502.993 397.928 503.219C397.793 503.264 397.657 503.264 397.522 503.264ZM632.148 499.603C632.057 499.603 632.012 499.603 631.922 499.558C631.515 499.423 631.289 499.016 631.424 498.609C632.283 495.717 632.961 492.78 633.549 489.843C633.639 489.436 634.001 489.165 634.453 489.255C634.859 489.346 635.131 489.707 635.04 490.159C634.453 493.096 633.775 496.079 632.916 499.061C632.78 499.378 632.464 499.603 632.148 499.603ZM635.537 481.799C635.537 481.799 635.492 481.799 635.447 481.799C635.04 481.754 634.724 481.393 634.769 480.986C634.995 478.41 635.131 475.835 635.131 473.304C635.131 472.852 635.131 472.446 635.131 471.994C635.131 471.587 635.447 471.226 635.854 471.226C636.261 471.226 636.622 471.542 636.622 471.949C636.622 472.4 636.622 472.852 636.622 473.259C636.622 475.835 636.487 478.456 636.261 481.077C636.261 481.483 635.899 481.799 635.537 481.799ZM635.221 463.679C634.859 463.679 634.543 463.408 634.453 463.001C634.046 460.019 633.504 457.037 632.78 454.19C632.69 453.783 632.916 453.376 633.323 453.286C633.73 453.196 634.136 453.422 634.227 453.828C634.995 456.766 635.537 459.793 635.944 462.821C635.989 463.227 635.718 463.634 635.311 463.679C635.266 463.679 635.266 463.679 635.221 463.679ZM630.701 446.146C630.385 446.146 630.114 445.966 629.978 445.649C628.893 442.893 627.583 440.136 626.136 437.561C625.955 437.199 626.046 436.747 626.407 436.521C626.769 436.341 627.221 436.431 627.447 436.793C628.938 439.459 630.249 442.215 631.379 445.062C631.515 445.469 631.334 445.875 630.972 446.056C630.882 446.146 630.792 446.146 630.701 446.146ZM572.757 438.058C570.406 438.058 568.237 437.696 566.203 437.018C565.796 436.883 565.615 436.431 565.751 436.069C565.886 435.663 566.338 435.482 566.7 435.618C569.231 436.521 572.169 436.793 575.333 436.431C575.74 436.386 576.101 436.702 576.146 437.109C576.192 437.516 575.875 437.877 575.469 437.922C574.565 437.967 573.661 438.058 572.757 438.058ZM584.192 435.618C583.875 435.618 583.604 435.437 583.469 435.121C583.333 434.714 583.514 434.307 583.876 434.126C586.452 433.132 589.119 431.777 591.876 430.15C592.237 429.924 592.689 430.06 592.915 430.421C593.141 430.783 593.006 431.234 592.644 431.46C589.842 433.132 587.039 434.488 584.418 435.527C584.373 435.618 584.282 435.618 584.192 435.618ZM559.242 431.777C559.016 431.777 558.79 431.686 558.655 431.46C556.802 429.065 555.536 426.083 555.039 422.829C554.994 422.423 555.265 422.016 555.672 421.971C556.078 421.926 556.485 422.197 556.53 422.604C556.982 425.586 558.157 428.342 559.83 430.557C560.101 430.873 560.011 431.37 559.694 431.596C559.559 431.732 559.378 431.777 559.242 431.777ZM621.887 430.331C621.661 430.331 621.435 430.24 621.3 430.014C619.537 427.619 617.594 425.315 615.515 423.146C615.243 422.829 615.243 422.378 615.515 422.061C615.831 421.79 616.283 421.79 616.599 422.061C618.724 424.275 620.712 426.625 622.52 429.065C622.792 429.382 622.701 429.879 622.385 430.105C622.204 430.285 622.068 430.331 621.887 430.331ZM599.831 426.535C599.605 426.535 599.379 426.445 599.243 426.219C598.972 425.902 599.062 425.405 599.379 425.179C601.684 423.417 603.853 421.383 605.842 419.079C606.113 418.763 606.61 418.717 606.927 418.989C607.243 419.26 607.288 419.757 607.017 420.073C604.983 422.468 602.723 424.592 600.328 426.399C600.147 426.49 600.011 426.535 599.831 426.535ZM609.367 417.271C609.187 417.271 609.051 417.226 608.87 417.091C608.599 416.865 608.328 416.639 608.057 416.413C605.887 414.696 603.763 413.114 601.684 411.668C601.322 411.442 601.277 410.945 601.503 410.629C601.729 410.267 602.226 410.222 602.542 410.448C604.667 411.894 606.836 413.521 609.006 415.283C609.277 415.509 609.548 415.735 609.865 415.961C610.181 416.232 610.226 416.684 609.955 417.045C609.819 417.181 609.593 417.271 609.367 417.271ZM556.304 414.515C556.214 414.515 556.169 414.515 556.078 414.47C555.672 414.334 555.446 413.928 555.581 413.521C556.485 410.403 558.067 407.601 560.191 405.387C560.463 405.071 560.96 405.071 561.276 405.342C561.593 405.613 561.593 406.11 561.321 406.426C559.378 408.46 557.931 411.081 557.073 413.927C556.937 414.289 556.666 414.515 556.304 414.515ZM611.582 412.888C611.447 412.888 611.311 412.843 611.221 412.798C610.859 412.572 610.723 412.12 610.949 411.759C612.396 409.273 613.661 406.562 614.746 403.67C614.882 403.263 615.334 403.082 615.741 403.218C616.147 403.354 616.328 403.805 616.193 404.212C615.063 407.149 613.752 409.951 612.26 412.527C612.125 412.753 611.853 412.888 611.582 412.888ZM594.452 407.059C594.316 407.059 594.226 407.014 594.09 406.969C591.288 405.432 588.531 404.212 585.955 403.263C585.548 403.128 585.367 402.676 585.503 402.314C585.638 401.908 586.09 401.727 586.452 401.862C589.119 402.811 591.966 404.077 594.814 405.658C595.175 405.839 595.311 406.336 595.13 406.697C594.949 406.878 594.678 407.059 594.452 407.059ZM568.372 402.043C568.056 402.043 567.74 401.817 567.649 401.501C567.514 401.094 567.74 400.687 568.146 400.552C570.949 399.693 574.067 399.422 577.412 399.739C577.819 399.784 578.135 400.145 578.09 400.552C578.045 400.959 577.683 401.275 577.276 401.23C574.113 400.913 571.22 401.185 568.598 401.953C568.553 401.998 568.463 402.043 568.372 402.043ZM618.181 396.033C618.136 396.033 618.046 396.033 618 396.033C617.594 395.943 617.368 395.536 617.458 395.129C618.136 392.328 618.724 389.345 619.176 386.318C619.221 385.911 619.628 385.64 620.034 385.685C620.441 385.73 620.712 386.137 620.667 386.544C620.215 389.662 619.628 392.644 618.95 395.536C618.814 395.807 618.498 396.033 618.181 396.033ZM620.757 378.094C620.306 378.048 619.989 377.732 619.989 377.28C620.125 375.156 620.17 372.942 620.17 370.728C620.17 369.915 620.17 369.056 620.125 368.243C620.125 367.836 620.441 367.475 620.848 367.475C621.255 367.475 621.616 367.791 621.616 368.198C621.616 369.056 621.661 369.869 621.661 370.728C621.661 372.942 621.616 375.202 621.481 377.325C621.481 377.777 621.164 378.094 620.757 378.094ZM620.441 359.973C620.034 359.973 619.718 359.657 619.673 359.296C619.447 356.358 619.085 353.331 618.633 350.303C618.588 349.896 618.859 349.49 619.266 349.445C619.673 349.399 620.08 349.671 620.125 350.077C620.577 353.105 620.893 356.178 621.164 359.115C621.21 359.521 620.893 359.883 620.486 359.928C620.486 359.973 620.441 359.973 620.441 359.973ZM617.865 341.989C617.503 341.989 617.187 341.717 617.142 341.401C616.554 338.509 615.921 335.527 615.153 332.59C615.063 332.183 615.288 331.776 615.695 331.686C616.102 331.595 616.509 331.821 616.599 332.228C617.322 335.21 618 338.193 618.588 341.13C618.678 341.537 618.407 341.943 618 342.034C617.955 341.989 617.91 341.989 617.865 341.989ZM613.481 324.411C613.164 324.411 612.848 324.185 612.757 323.868C611.899 321.022 610.995 318.13 610 315.283C609.865 314.876 610.091 314.469 610.452 314.334C610.859 314.198 611.266 314.424 611.401 314.786C612.396 317.678 613.345 320.57 614.204 323.462C614.339 323.868 614.113 324.275 613.707 324.411C613.661 324.411 613.571 324.411 613.481 324.411ZM607.56 307.239C607.243 307.239 606.972 307.059 606.836 306.742C605.752 303.986 604.576 301.139 603.356 298.382C603.175 298.021 603.356 297.569 603.763 297.388C604.124 297.208 604.576 297.388 604.757 297.795C605.978 300.597 607.153 303.398 608.238 306.2C608.373 306.607 608.192 307.013 607.831 307.194C607.74 307.239 607.65 307.239 607.56 307.239ZM600.237 290.655C599.966 290.655 599.695 290.52 599.559 290.249C598.249 287.537 596.847 284.826 595.446 282.205C595.265 281.844 595.401 281.392 595.763 281.166C596.124 280.985 596.576 281.121 596.802 281.482C598.249 284.148 599.605 286.86 600.96 289.571C601.141 289.932 601.006 290.384 600.599 290.565C600.463 290.61 600.373 290.655 600.237 290.655ZM591.695 274.659C591.424 274.659 591.198 274.523 591.062 274.297C589.57 271.722 587.989 269.101 586.361 266.57C586.135 266.209 586.226 265.757 586.587 265.531C586.949 265.305 587.401 265.395 587.627 265.757C589.254 268.333 590.836 270.953 592.373 273.529C592.599 273.891 592.463 274.343 592.102 274.569C591.966 274.614 591.83 274.659 591.695 274.659ZM581.977 259.295C581.751 259.295 581.48 259.16 581.344 258.979C579.627 256.493 577.864 254.008 576.101 251.613C575.875 251.297 575.92 250.8 576.237 250.574C576.553 250.303 577.05 250.393 577.276 250.709C579.084 253.15 580.847 255.635 582.565 258.12C582.791 258.482 582.7 258.934 582.384 259.159C582.248 259.295 582.113 259.295 581.977 259.295ZM571.175 244.745C570.949 244.745 570.723 244.654 570.587 244.473C568.734 242.124 566.79 239.774 564.802 237.515C564.53 237.198 564.576 236.701 564.892 236.43C565.208 236.159 565.706 236.204 565.977 236.52C567.966 238.825 569.909 241.175 571.762 243.525C572.033 243.841 571.988 244.338 571.627 244.564C571.491 244.699 571.31 244.745 571.175 244.745ZM559.333 230.962C559.107 230.962 558.926 230.872 558.79 230.736C556.756 228.522 554.632 226.308 552.553 224.184C552.282 223.868 552.282 223.416 552.553 223.1C552.869 222.829 553.321 222.829 553.638 223.1C555.762 225.224 557.886 227.438 559.92 229.652C560.191 229.968 560.191 230.42 559.875 230.736C559.694 230.917 559.513 230.962 559.333 230.962ZM546.541 218.129C546.361 218.129 546.18 218.084 546.044 217.903C543.875 215.87 541.615 213.791 539.355 211.848C539.038 211.577 538.993 211.08 539.264 210.763C539.536 210.447 540.033 210.402 540.349 210.673C542.609 212.661 544.914 214.695 547.084 216.773C547.4 217.045 547.4 217.542 547.129 217.858C546.948 218.039 546.767 218.129 546.541 218.129ZM532.891 206.199C532.711 206.199 532.575 206.154 532.394 206.019C530.044 204.121 527.648 202.268 525.253 200.461C524.936 200.189 524.846 199.738 525.117 199.421C525.389 199.105 525.84 199.015 526.157 199.286C528.552 201.093 530.993 202.991 533.343 204.889C533.66 205.16 533.705 205.612 533.434 205.928C533.298 206.109 533.072 206.199 532.891 206.199ZM518.383 195.309C518.247 195.309 518.066 195.264 517.931 195.174C515.49 193.456 512.959 191.785 510.428 190.158C510.066 189.932 509.976 189.48 510.202 189.118C510.428 188.757 510.88 188.667 511.241 188.893C513.772 190.519 516.304 192.236 518.79 193.954C519.151 194.18 519.196 194.677 518.97 194.993C518.835 195.174 518.609 195.309 518.383 195.309ZM503.106 185.458C502.97 185.458 502.834 185.413 502.699 185.368C500.122 183.832 497.456 182.34 494.834 180.894C494.473 180.714 494.337 180.217 494.518 179.855C494.699 179.494 495.196 179.358 495.557 179.539C498.224 180.985 500.846 182.521 503.467 184.057C503.829 184.283 503.964 184.735 503.738 185.097C503.648 185.323 503.377 185.458 503.106 185.458ZM487.196 176.782C487.06 176.782 486.97 176.737 486.879 176.692C484.213 175.336 481.455 174.026 478.744 172.806C478.382 172.625 478.201 172.173 478.382 171.812C478.563 171.45 479.015 171.269 479.376 171.45C482.133 172.715 484.891 174.026 487.602 175.381C487.964 175.562 488.145 176.014 487.919 176.376C487.738 176.601 487.467 176.782 487.196 176.782ZM470.698 169.236C470.608 169.236 470.517 169.236 470.427 169.191C467.67 168.061 464.822 166.931 462.02 165.847C461.613 165.711 461.432 165.259 461.568 164.853C461.704 164.446 462.156 164.265 462.562 164.401C465.41 165.44 468.257 166.57 471.015 167.745C471.421 167.925 471.602 168.332 471.421 168.739C471.286 169.055 471.015 169.236 470.698 169.236ZM453.749 162.864C453.658 162.864 453.568 162.864 453.523 162.819C450.675 161.87 447.783 160.967 444.89 160.063C444.483 159.927 444.257 159.521 444.393 159.114C444.528 158.707 444.935 158.481 445.342 158.617C448.234 159.475 451.172 160.424 454.02 161.373C454.427 161.509 454.607 161.915 454.517 162.322C454.336 162.638 454.065 162.864 453.749 162.864ZM436.347 157.668C436.302 157.668 436.212 157.668 436.166 157.623C433.274 156.854 430.336 156.131 427.398 155.454C426.991 155.363 426.72 154.957 426.81 154.55C426.901 154.143 427.308 153.872 427.714 153.962C430.652 154.64 433.635 155.363 436.528 156.131C436.935 156.222 437.161 156.629 437.07 157.035C436.98 157.442 436.709 157.668 436.347 157.668ZM418.675 153.601C418.629 153.601 418.584 153.601 418.539 153.601C415.601 153.013 412.618 152.516 409.635 152.019C409.228 151.974 408.957 151.567 409.002 151.161C409.047 150.754 409.454 150.483 409.861 150.528C412.844 151.025 415.872 151.567 418.81 152.11C419.217 152.2 419.488 152.607 419.398 153.013C419.353 153.375 419.036 153.601 418.675 153.601ZM400.776 150.709C400.731 150.709 400.731 150.709 400.686 150.709C397.702 150.302 394.719 149.986 391.691 149.67C391.284 149.624 390.968 149.263 391.013 148.856C391.058 148.45 391.42 148.133 391.827 148.178C394.855 148.495 397.883 148.811 400.866 149.218C401.273 149.263 401.59 149.67 401.499 150.076C401.454 150.438 401.138 150.709 400.776 150.709Z" fill="#786AB5"/>
<path d="M389.386 486.815C389.07 486.815 388.798 486.634 388.708 486.363C387.623 483.652 387.126 482.161 387.081 482.07C386.945 481.663 387.171 481.257 387.578 481.121C387.985 480.986 388.391 481.212 388.527 481.618C388.527 481.618 389.024 483.155 390.109 485.821C390.245 486.227 390.064 486.634 389.702 486.815C389.567 486.815 389.476 486.815 389.386 486.815Z" fill="#786AB5"/>
<path d="M217.134 307.465C215.643 307.465 214.106 307.42 212.614 307.284C212.298 307.284 212.072 307.013 212.072 306.697C212.072 306.38 212.388 306.154 212.659 306.154C215.597 306.38 218.626 306.38 221.609 306.154C221.925 306.154 222.196 306.38 222.196 306.697C222.196 307.013 221.97 307.284 221.654 307.284C220.208 307.42 218.671 307.465 217.134 307.465ZM230.694 306.019C230.422 306.019 230.196 305.838 230.151 305.567C230.106 305.251 230.287 304.98 230.603 304.889C231.281 304.754 232.004 304.573 232.682 304.392C232.999 304.302 233.315 304.482 233.36 304.799C233.451 305.115 233.27 305.431 232.954 305.477C232.23 305.657 231.507 305.793 230.829 305.974C230.739 306.019 230.739 306.019 230.694 306.019ZM203.71 306.019C203.665 306.019 203.62 306.019 203.574 306.019C200.591 305.386 197.654 304.483 194.806 303.398C194.535 303.308 194.354 302.946 194.49 302.675C194.58 302.404 194.942 302.223 195.213 302.359C198.015 303.398 200.908 304.257 203.8 304.934C204.117 304.98 204.298 305.296 204.252 305.612C204.207 305.838 203.981 306.019 203.71 306.019ZM186.851 299.602C186.761 299.602 186.67 299.557 186.58 299.512C183.913 298.021 181.382 296.349 178.941 294.496C178.715 294.315 178.625 293.954 178.851 293.683C179.032 293.457 179.393 293.366 179.664 293.592C182.015 295.4 184.546 297.072 187.167 298.518C187.439 298.653 187.529 299.015 187.393 299.286C187.213 299.512 187.032 299.602 186.851 299.602ZM172.523 288.622C172.387 288.622 172.207 288.576 172.116 288.441C169.992 286.272 168.003 283.922 166.195 281.482C166.014 281.211 166.06 280.895 166.331 280.669C166.602 280.488 166.918 280.533 167.144 280.804C168.907 283.199 170.851 285.504 172.93 287.627C173.156 287.853 173.156 288.215 172.93 288.441C172.794 288.576 172.659 288.622 172.523 288.622ZM161.811 274.116C161.63 274.116 161.404 274.026 161.314 273.8C159.867 271.134 158.602 268.378 157.517 265.531C157.427 265.26 157.562 264.898 157.834 264.808C158.105 264.717 158.466 264.853 158.557 265.124C159.641 267.926 160.907 270.682 162.308 273.258C162.444 273.529 162.353 273.89 162.082 274.026C161.992 274.071 161.901 274.116 161.811 274.116ZM155.348 257.261C155.076 257.261 154.85 257.081 154.805 256.809C154.082 253.917 153.54 250.89 153.133 247.862C153.088 247.546 153.314 247.275 153.63 247.23C153.946 247.184 154.218 247.41 154.263 247.727C154.624 250.709 155.167 253.691 155.89 256.538C155.98 256.855 155.8 257.171 155.483 257.216C155.393 257.216 155.348 257.261 155.348 257.261ZM153.042 239.322C152.726 239.322 152.5 239.096 152.455 238.78C152.455 238.328 152.455 237.921 152.455 237.469C152.455 234.893 152.59 232.273 152.771 229.652C152.816 229.335 153.088 229.109 153.404 229.155C153.72 229.2 153.946 229.471 153.901 229.787C153.675 232.363 153.585 234.939 153.585 237.469C153.585 237.921 153.585 238.328 153.585 238.78C153.63 239.051 153.404 239.322 153.042 239.322C153.088 239.322 153.088 239.322 153.042 239.322ZM154.579 221.292C154.534 221.292 154.534 221.292 154.489 221.292C154.172 221.247 153.992 220.93 154.037 220.614C154.263 219.258 154.579 217.858 154.85 216.457C155.212 214.83 155.483 213.248 155.619 211.712C155.664 211.396 155.935 211.17 156.252 211.215C156.568 211.26 156.794 211.531 156.749 211.848C156.613 213.384 156.342 215.011 155.98 216.728C155.664 218.084 155.393 219.484 155.167 220.84C155.076 221.111 154.85 221.292 154.579 221.292ZM155.438 203.443C155.212 203.443 154.986 203.262 154.896 203.036C154.082 200.234 152.726 197.749 150.692 195.49C150.466 195.264 150.511 194.902 150.737 194.676C150.963 194.45 151.325 194.496 151.551 194.721C153.675 197.116 155.167 199.737 156.026 202.72C156.116 203.036 155.935 203.352 155.619 203.443C155.528 203.443 155.483 203.443 155.438 203.443ZM144.048 190.112C143.958 190.112 143.867 190.067 143.777 190.022C141.472 188.666 138.85 187.401 135.686 186.181C135.415 186.045 135.234 185.729 135.37 185.458C135.505 185.187 135.822 185.006 136.093 185.142C139.302 186.407 142.014 187.672 144.364 189.073C144.635 189.254 144.726 189.57 144.545 189.841C144.455 190.022 144.274 190.112 144.048 190.112ZM127.324 183.289C127.279 183.289 127.234 183.289 127.144 183.244C124.161 182.34 121.042 181.436 118.42 180.713C118.104 180.623 117.923 180.307 118.014 180.035C118.104 179.719 118.42 179.538 118.692 179.629C121.313 180.352 124.432 181.21 127.415 182.159C127.731 182.25 127.867 182.566 127.776 182.882C127.776 183.108 127.55 183.289 127.324 183.289ZM109.833 178.318C109.787 178.318 109.742 178.318 109.697 178.318C106.262 177.369 103.505 176.556 100.974 175.743C100.657 175.652 100.522 175.336 100.612 175.02C100.702 174.703 101.019 174.568 101.335 174.658C103.866 175.426 106.623 176.285 110.013 177.234C110.33 177.324 110.511 177.641 110.42 177.912C110.33 178.138 110.104 178.318 109.833 178.318ZM92.5667 172.851C92.5215 172.851 92.4311 172.851 92.3859 172.805C89.3576 171.676 86.6005 170.501 83.979 169.281C83.7078 169.145 83.5722 168.829 83.7078 168.513C83.8434 168.241 84.1598 168.106 84.4761 168.241C87.0525 169.462 89.7644 170.591 92.7927 171.721C93.0639 171.811 93.2447 172.173 93.1091 172.444C93.0187 172.67 92.7927 172.851 92.5667 172.851ZM76.25 165.033C76.1596 165.033 76.024 164.988 75.9337 164.943C73.2669 163.271 70.781 161.463 68.5663 159.565C68.3403 159.339 68.2951 159.023 68.5211 158.752C68.7471 158.526 69.0634 158.481 69.3346 158.707C71.5041 160.56 73.9449 162.322 76.5664 163.994C76.8376 164.175 76.928 164.491 76.7472 164.762C76.6116 164.943 76.4308 165.033 76.25 165.033ZM62.6453 153.239C62.4645 153.239 62.3289 153.149 62.1933 153.013C60.2949 150.663 58.5774 148.088 57.1762 145.422C57.0406 145.151 57.131 144.789 57.4022 144.653C57.6734 144.518 58.035 144.608 58.1706 144.879C59.5717 147.5 61.1989 149.986 63.052 152.29C63.2328 152.516 63.2328 152.878 62.9616 153.104C62.8712 153.194 62.7808 153.239 62.6453 153.239ZM296.186 137.785C295.96 137.785 295.734 137.604 295.644 137.378C294.785 134.486 293.881 131.594 292.932 128.747C292.842 128.431 292.977 128.115 293.294 128.024C293.61 127.934 293.927 128.07 294.017 128.386C294.966 131.233 295.915 134.125 296.729 137.062C296.819 137.378 296.638 137.695 296.367 137.785C296.277 137.785 296.232 137.785 296.186 137.785ZM54.1931 137.423C53.9671 137.423 53.7411 137.288 53.6507 137.017C52.7467 134.215 52.0688 131.233 51.6168 128.16C51.5716 127.844 51.7976 127.573 52.0688 127.527C52.3852 127.482 52.6564 127.708 52.7016 127.979C53.1535 131.007 53.8315 133.944 54.6903 136.655C54.7807 136.972 54.5999 137.288 54.3287 137.378C54.3287 137.423 54.2835 137.423 54.1931 137.423ZM290.356 120.614C290.13 120.614 289.904 120.478 289.813 120.252C288.729 117.45 287.553 114.649 286.378 111.892C286.243 111.621 286.378 111.26 286.65 111.124C286.921 110.989 287.282 111.124 287.418 111.395C288.638 114.152 289.813 116.953 290.898 119.8C291.034 120.071 290.853 120.433 290.582 120.523C290.491 120.614 290.446 120.614 290.356 120.614ZM51.3908 119.71C51.0744 119.71 50.8484 119.484 50.8032 119.168C50.758 118.309 50.758 117.45 50.758 116.592C50.758 114.468 50.8484 112.299 50.984 110.085C50.984 109.769 51.2552 109.543 51.5716 109.543C51.888 109.543 52.114 109.814 52.114 110.13C51.9784 112.344 51.888 114.513 51.888 116.592C51.888 117.45 51.8879 118.309 51.9331 119.122C51.9783 119.439 51.7072 119.665 51.3908 119.71ZM143.008 114.739C141.336 114.739 139.664 114.649 137.991 114.423C137.675 114.378 137.449 114.107 137.494 113.79C137.539 113.474 137.811 113.248 138.127 113.293C141.065 113.655 144.093 113.7 147.031 113.384C147.347 113.338 147.619 113.564 147.664 113.881C147.709 114.197 147.483 114.468 147.167 114.513C145.765 114.694 144.364 114.739 143.008 114.739ZM155.935 112.615C155.709 112.615 155.483 112.48 155.393 112.254C155.302 111.938 155.438 111.621 155.754 111.531C158.557 110.582 161.269 109.271 163.8 107.69C164.071 107.509 164.433 107.6 164.568 107.871C164.749 108.142 164.659 108.503 164.387 108.639C161.766 110.266 159.009 111.576 156.116 112.57C156.026 112.57 155.98 112.615 155.935 112.615ZM129.268 112.344C129.223 112.344 129.132 112.344 129.087 112.299C126.194 111.26 123.392 109.904 120.861 108.277C120.59 108.097 120.499 107.78 120.68 107.509C120.861 107.238 121.223 107.148 121.449 107.328C123.935 108.91 126.601 110.22 129.449 111.26C129.765 111.35 129.901 111.712 129.81 111.983C129.72 112.209 129.494 112.344 129.268 112.344ZM283.034 104.075C282.808 104.075 282.627 103.939 282.536 103.759C281.18 101.047 279.779 98.3812 278.288 95.8055C278.152 95.5344 278.243 95.1729 278.514 95.0373C278.785 94.9018 279.147 94.9921 279.282 95.2633C280.774 97.8842 282.175 100.55 283.531 103.307C283.666 103.578 283.576 103.939 283.26 104.075C283.214 104.075 283.124 104.075 283.034 104.075ZM171.077 103.036C170.941 103.036 170.806 102.99 170.715 102.9C170.489 102.674 170.444 102.313 170.67 102.087C172.704 99.8272 174.241 97.2967 175.235 94.5854C175.325 94.2691 175.642 94.1336 175.958 94.224C176.275 94.3143 176.41 94.6758 176.32 94.9469C175.28 97.7938 173.698 100.46 171.529 102.81C171.393 102.945 171.258 103.036 171.077 103.036ZM114.172 102.629C114.036 102.629 113.855 102.584 113.765 102.448C111.641 100.189 109.833 97.6582 108.386 94.9921C108.251 94.721 108.341 94.3595 108.612 94.224C108.883 94.0884 109.245 94.1788 109.381 94.4499C110.737 97.0256 112.499 99.4657 114.578 101.635C114.804 101.861 114.804 102.222 114.533 102.448C114.443 102.584 114.307 102.629 114.172 102.629ZM52.5208 101.635C52.4756 101.635 52.4756 101.635 52.4304 101.635C52.114 101.59 51.8879 101.318 51.9331 101.002C52.3399 98.1101 52.8823 95.1277 53.5151 92.0549C53.5603 91.7386 53.8767 91.5579 54.1931 91.6031C54.5095 91.6483 54.6903 91.9646 54.6451 92.2809C54.0123 95.3085 53.4699 98.2908 53.0631 101.183C53.0631 101.454 52.8371 101.635 52.5208 101.635ZM274.175 88.3043C273.994 88.3043 273.813 88.214 273.678 88.0332C272.05 85.5027 270.378 82.9722 268.615 80.5321C268.435 80.2609 268.48 79.9446 268.751 79.7639C269.022 79.5831 269.339 79.6283 269.519 79.8994C271.282 82.3396 272.954 84.8701 274.582 87.4458C274.762 87.7169 274.672 88.0784 274.401 88.214C274.355 88.2592 274.265 88.3043 274.175 88.3043ZM105.855 86.8132C105.584 86.8132 105.358 86.6324 105.313 86.3613C104.861 84.1923 104.635 81.9329 104.635 79.6735C104.635 78.8601 104.68 78.0015 104.725 77.1882C104.725 76.8719 104.996 76.6459 105.313 76.6459C105.629 76.6459 105.855 76.917 105.855 77.2333C105.81 78.0467 105.765 78.8601 105.765 79.6283C105.765 81.7973 105.991 83.9663 106.397 86.0902C106.443 86.4065 106.262 86.6776 105.945 86.768C105.9 86.8132 105.855 86.8132 105.855 86.8132ZM177.043 86.4065C176.727 86.4065 176.501 86.1805 176.455 85.8642C176.32 83.0626 175.777 80.1706 174.738 77.1882C174.647 76.8719 174.783 76.5555 175.099 76.4652C175.416 76.3748 175.732 76.5104 175.823 76.8267C176.862 79.8994 177.45 82.927 177.585 85.819C177.63 86.1353 177.405 86.4065 177.043 86.4065ZM56.227 83.9212C56.1818 83.9212 56.1367 83.9212 56.0915 83.9212C55.7751 83.8308 55.5943 83.5145 55.6847 83.2433C56.4982 80.2609 57.4474 77.3237 58.3966 74.5673C58.487 74.251 58.8485 74.1154 59.1197 74.2058C59.4361 74.2962 59.5717 74.6577 59.4813 74.9288C58.487 77.64 57.583 80.5321 56.7694 83.5145C56.7242 83.7404 56.4982 83.9212 56.227 83.9212ZM263.643 73.5731C263.463 73.5731 263.327 73.4828 263.192 73.3472C261.293 70.9974 259.304 68.6929 257.316 66.4787C257.09 66.2527 257.135 65.8912 257.361 65.6653C257.587 65.4394 257.948 65.4845 258.174 65.7105C260.208 67.9247 262.197 70.2293 264.095 72.6242C264.276 72.8502 264.231 73.2117 264.005 73.4376C263.869 73.528 263.734 73.5731 263.643 73.5731ZM171.483 69.3707C171.303 69.3707 171.122 69.2803 170.986 69.0996C169.54 66.6142 167.822 64.1741 165.834 61.734C165.653 61.508 165.653 61.1465 165.924 60.9206C166.15 60.7398 166.512 60.7398 166.738 61.011C168.726 63.4511 170.489 65.9816 171.981 68.5121C172.116 68.7832 172.026 69.1447 171.8 69.2803C171.709 69.3707 171.619 69.3707 171.483 69.3707ZM106.985 68.964C106.94 68.964 106.849 68.964 106.804 68.9188C106.488 68.8284 106.352 68.5121 106.443 68.1958C107.347 65.3942 108.522 62.5925 110.059 59.7909C110.194 59.5198 110.556 59.4294 110.827 59.5649C111.098 59.7005 111.189 60.062 111.053 60.3331C109.561 63.0444 108.386 65.8461 107.527 68.5573C107.437 68.7833 107.256 68.964 106.985 68.964ZM62.3741 66.9305C62.2837 66.9305 62.1933 66.9306 62.1481 66.8854C61.8769 66.7498 61.7412 66.4335 61.8768 66.1172C63.1876 63.2703 64.634 60.5591 66.1707 58.0738C66.3515 57.8026 66.6679 57.7122 66.9391 57.893C67.2103 58.0737 67.3007 58.3901 67.1199 58.6612C65.6284 61.1013 64.182 63.7674 62.8712 66.569C62.826 66.795 62.6001 66.9305 62.3741 66.9305ZM251.44 60.1976C251.304 60.1976 251.169 60.1524 251.033 60.0168C248.863 57.9382 246.604 55.8595 244.344 53.9617C244.118 53.7809 244.072 53.4194 244.298 53.1483C244.479 52.9223 244.841 52.8772 245.112 53.1031C247.372 55.0462 249.677 57.1248 251.847 59.2034C252.073 59.4294 252.073 59.7909 251.847 60.0168C251.756 60.1524 251.575 60.1976 251.44 60.1976ZM160.184 55.3173C160.048 55.3173 159.913 55.2721 159.777 55.1817C157.653 53.1483 155.348 51.16 152.952 49.3525C152.726 49.1718 152.636 48.8103 152.862 48.5391C153.042 48.268 153.404 48.2228 153.675 48.4488C156.116 50.3015 158.466 52.2897 160.591 54.3684C160.817 54.5943 160.817 54.9558 160.591 55.1817C160.455 55.2269 160.319 55.3173 160.184 55.3173ZM115.482 53.0127C115.347 53.0127 115.256 52.9675 115.166 52.9223C114.895 52.7416 114.85 52.3801 115.03 52.109C116.296 50.437 117.652 48.7199 119.144 47.0479C119.731 46.4153 120.319 45.7375 120.906 45.15C121.132 44.9241 121.494 44.9241 121.72 45.15C121.946 45.376 121.946 45.7375 121.72 45.9634C121.132 46.5961 120.545 47.2287 119.957 47.8613C118.511 49.4881 117.155 51.16 115.889 52.832C115.799 52.9675 115.618 53.0127 115.482 53.0127ZM71.911 51.5667C71.7754 51.5667 71.6398 51.5215 71.5494 51.4312C71.3234 51.2504 71.2782 50.8889 71.459 50.6178C73.4477 48.2228 75.572 46.0086 77.832 44.0656C78.058 43.8396 78.4196 43.8848 78.6456 44.1107C78.8716 44.3367 78.8263 44.6982 78.6003 44.9241C76.4308 46.822 74.3065 48.991 72.363 51.3408C72.2274 51.5215 72.0918 51.5667 71.911 51.5667ZM237.654 48.494C237.519 48.494 237.428 48.4488 237.338 48.4036C234.897 46.5961 232.411 44.8789 229.925 43.2974C229.654 43.1166 229.564 42.8003 229.745 42.5292C229.925 42.258 230.242 42.1677 230.513 42.3484C233.044 43.9752 235.575 45.6923 238.016 47.4998C238.287 47.6806 238.332 48.0421 238.151 48.3132C238.016 48.4036 237.835 48.494 237.654 48.494ZM145.811 44.3367C145.72 44.3367 145.63 44.2915 145.54 44.2463C142.963 42.6647 140.296 41.2639 137.585 39.9987C137.313 39.8631 137.178 39.5468 137.313 39.2305C137.449 38.9593 137.765 38.8238 138.082 38.9593C140.794 40.2246 143.506 41.6706 146.127 43.2522C146.398 43.4329 146.489 43.7492 146.308 44.0204C146.172 44.2011 145.991 44.3367 145.811 44.3367ZM128.048 40.089C127.867 40.089 127.731 39.9987 127.596 39.8631C127.415 39.6372 127.46 39.2756 127.686 39.0497C130.082 37.197 132.613 35.5251 135.279 33.9887C135.551 33.8531 135.912 33.9435 136.048 34.2146C136.183 34.4858 136.093 34.8472 135.822 34.9828C133.2 36.474 130.714 38.1459 128.364 39.9535C128.319 40.0438 128.183 40.089 128.048 40.089ZM85.5609 39.8179C85.3801 39.8179 85.1541 39.7275 85.0638 39.5468C84.9282 39.2757 85.0186 38.9142 85.2897 38.7786C87.9113 37.2422 90.7136 35.9769 93.6063 34.9828C93.9227 34.8924 94.2391 35.028 94.3295 35.3443C94.4199 35.6606 94.2842 35.9769 93.9679 36.0673C91.1655 37.0163 88.4084 38.2815 85.8321 39.7727C85.7417 39.7727 85.6513 39.8179 85.5609 39.8179ZM222.377 38.7786C222.287 38.7786 222.196 38.7786 222.106 38.7334C219.439 37.2874 216.727 35.9769 214.015 34.7569C213.744 34.6213 213.609 34.305 213.744 33.9887C213.88 33.7176 214.196 33.582 214.513 33.7176C217.27 34.9376 220.027 36.2933 222.694 37.7393C222.965 37.8748 223.055 38.2363 222.92 38.5075C222.784 38.643 222.603 38.7786 222.377 38.7786ZM129.358 36.7451C129.313 36.7451 129.223 36.7451 129.178 36.7C126.285 35.751 123.347 34.9828 120.454 34.4858C120.138 34.4406 119.957 34.1242 120.002 33.8079C120.047 33.4916 120.364 33.3109 120.68 33.3561C123.618 33.8983 126.601 34.6665 129.539 35.6154C129.856 35.7058 129.991 36.0221 129.901 36.3384C129.856 36.5644 129.63 36.7451 129.358 36.7451ZM102.556 33.9435C102.284 33.9435 102.013 33.7176 102.013 33.4464C101.968 33.1301 102.194 32.859 102.51 32.8138C105.448 32.4071 108.522 32.2264 111.641 32.3167C111.957 32.3167 112.183 32.5879 112.183 32.9042C112.183 33.2205 111.912 33.4464 111.595 33.4464C108.522 33.3561 105.539 33.4916 102.646 33.8983C102.646 33.9435 102.601 33.9435 102.556 33.9435ZM205.834 31.4582C205.789 31.4582 205.699 31.4582 205.654 31.413C202.806 30.4189 199.913 29.5603 197.021 28.7921C196.704 28.7017 196.524 28.3854 196.614 28.1143C196.704 27.798 197.021 27.6172 197.292 27.7076C200.185 28.4758 203.123 29.3343 206.015 30.3285C206.332 30.4188 206.467 30.7352 206.377 31.0515C206.286 31.3226 206.06 31.4582 205.834 31.4582ZM143.732 31.1418C143.506 31.1418 143.28 31.0063 143.189 30.7804C143.054 30.5092 143.234 30.1477 143.506 30.0574C146.308 28.9277 149.201 27.9787 152.184 27.2105C152.5 27.1202 152.816 27.3009 152.862 27.6172C152.952 27.9335 152.771 28.2498 152.455 28.295C149.517 29.0632 146.669 30.0122 143.912 31.0967C143.912 31.1419 143.822 31.1418 143.732 31.1418ZM188.297 26.9394C188.252 26.9394 188.252 26.9394 188.207 26.9394C185.224 26.4423 182.196 26.0808 179.258 25.9001C178.941 25.9001 178.715 25.629 178.715 25.3126C178.715 24.9963 178.986 24.7704 179.303 24.7704C182.286 24.9511 185.314 25.3126 188.343 25.8097C188.659 25.8549 188.84 26.1712 188.795 26.4423C188.795 26.7587 188.569 26.9394 188.297 26.9394ZM161.223 26.5327C160.952 26.5327 160.681 26.3068 160.681 26.0356C160.636 25.7193 160.862 25.4482 161.178 25.403C164.161 24.9963 167.19 24.7252 170.263 24.6348C170.58 24.5896 170.851 24.8608 170.851 25.1771C170.851 25.4934 170.625 25.7645 170.308 25.7645C167.28 25.8549 164.252 26.126 161.359 26.5327C161.269 26.5327 161.269 26.5327 161.223 26.5327Z" fill="#FF443C"/>
<path d="M71.459 95.7152H46.5546C45.1986 95.7152 44.0687 94.6307 44.0687 93.2299V78.6794C44.0687 77.3238 45.1534 76.1941 46.5546 76.1941H71.459C72.815 76.1941 73.9449 77.2786 73.9449 78.6794V93.2299C73.9449 94.5855 72.815 95.7152 71.459 95.7152Z" fill="#FF443C"/>
<path d="M73.719 94.2243L58.9842 85.3223L44.2947 94.2243C44.6563 95.0828 45.5602 95.7154 46.5546 95.7154H71.459C72.4534 95.7154 73.3574 95.0828 73.719 94.2243Z" fill="#FF443C"/>
<path d="M44.2947 77.6856L59.0294 87.7173L73.719 77.7308C73.3574 76.8722 72.4534 76.2396 71.459 76.2396H46.5546C45.5602 76.1944 44.7015 76.827 44.2947 77.6856Z" fill="#FF443C"/>
<path d="M59.0294 87.988L44.159 77.8659L44.4302 77.5044L59.0294 87.4457L73.5833 77.5044L73.8545 77.9111L59.0294 87.988Z" fill="#66192D"/>
<path d="M547.581 146.958H522.677C521.321 146.958 520.191 145.874 520.191 144.473V129.922C520.191 128.567 521.276 127.437 522.677 127.437H547.581C548.937 127.437 550.067 128.522 550.067 129.922V144.473C550.022 145.874 548.937 146.958 547.581 146.958Z" fill="#786AB5"/>
<path d="M549.796 145.466L535.061 136.564L520.371 145.466C520.733 146.325 521.637 146.958 522.631 146.958H547.536C548.575 146.958 549.434 146.37 549.796 145.466Z" fill="#786AB5"/>
<path d="M520.417 128.928L535.151 138.96L549.841 128.973C549.479 128.115 548.575 127.482 547.581 127.482H522.677C521.637 127.482 520.778 128.069 520.417 128.928Z" fill="#786AB5"/>
<path d="M535.106 139.231L520.281 129.154L520.552 128.747L535.106 138.688L549.705 128.792L549.977 129.154L535.106 139.231Z" fill="#66192D"/>
<path d="M649.097 477.145H624.193C622.837 477.145 621.707 476.06 621.707 474.66V460.109C621.707 458.753 622.792 457.624 624.193 457.624H649.097C650.453 457.624 651.583 458.708 651.583 460.109V474.66C651.538 476.015 650.453 477.145 649.097 477.145Z" fill="#FF8548"/>
<path d="M651.357 475.654L636.622 466.752L621.933 475.654C622.294 476.513 623.198 477.146 624.193 477.146H649.097C650.091 477.146 650.95 476.513 651.357 475.654Z" fill="#FF8548"/>
<path d="M621.933 459.115L636.667 469.147L651.357 459.16C650.995 458.302 650.091 457.669 649.097 457.669H624.193C623.198 457.669 622.294 458.257 621.933 459.115Z" fill="#FF8548"/>
<path d="M636.668 469.418L621.797 459.296L622.068 458.934L636.668 468.875L651.222 458.934L651.493 459.341L636.668 469.418Z" fill="#66192D"/>
<path d="M112.906 305.612H88.0016C86.6457 305.612 85.5157 304.527 85.5157 303.127V288.576C85.5157 287.221 86.6005 286.091 88.0016 286.091H112.906C114.262 286.091 115.392 287.175 115.392 288.576V303.127C115.392 304.527 114.262 305.612 112.906 305.612Z" fill="#FFBA41"/>
<path d="M115.166 304.166L100.431 295.264L85.7417 304.166C86.1033 305.025 87.0072 305.657 88.0016 305.657H112.906C113.946 305.612 114.804 305.025 115.166 304.166Z" fill="#FFBA41"/>
<path d="M85.7869 287.628L100.522 297.659L115.211 287.673C114.85 286.814 113.946 286.182 112.951 286.182H88.0468C87.0073 286.136 86.1485 286.724 85.7869 287.628Z" fill="#FFBA41"/>
<path d="M100.476 297.93L85.6513 287.808L85.8773 287.402L100.476 297.343L115.03 287.447L115.302 287.808L100.476 297.93Z" fill="#66192D"/>
</svg>
